<?xml version="1.0" encoding="UTF-8" standalone="no"?>
<svg
   width="24"
   height="24"
   viewBox="0 0 24 24"
   id="svg2"
   version="1.1"
   inkscape:version="1.3.2 (091e20ef0f, 2023-11-25, custom)"
   sodipodi:docname="folder-templates.svg"
   xmlns:inkscape="http://www.inkscape.org/namespaces/inkscape"
   xmlns:sodipodi="http://sodipodi.sourceforge.net/DTD/sodipodi-0.dtd"
   xmlns="http://www.w3.org/2000/svg"
   xmlns:svg="http://www.w3.org/2000/svg"
   xmlns:rdf="http://www.w3.org/1999/02/22-rdf-syntax-ns#"
   xmlns:cc="http://creativecommons.org/ns#"
   xmlns:dc="http://purl.org/dc/elements/1.1/">
  <defs
     id="defs3051">
    <style
       type="text/css"
       id="current-color-scheme">
    .ColorScheme-Text {
    color:#F5F5F5;
    }
    </style>
  </defs>
  <sodipodi:namedview
     id="base"
     pagecolor="#ffffff"
     bordercolor="#666666"
     borderopacity="1.0"
     inkscape:pageopacity="0.0"
     inkscape:pageshadow="2"
     inkscape:zoom="10.727273"
     inkscape:cx="11"
     inkscape:cy="11.04661"
     inkscape:document-units="px"
     inkscape:current-layer="layer1"
     showgrid="true"
     units="px"
     inkscape:showpageshadow="false"
     borderlayer="true"
     showguides="true"
     inkscape:guide-bbox="true"
     inkscape:window-width="1354"
     inkscape:window-height="720"
     inkscape:window-x="0"
     inkscape:window-y="0"
     inkscape:window-maximized="1"
     inkscape:document-rotation="0"
     inkscape:pagecheckerboard="0"
     inkscape:deskcolor="#d1d1d1">
    <inkscape:grid
       type="xygrid"
       id="grid4136"
       empspacing="2"
       originx="0"
       originy="0"
       spacingy="1"
       spacingx="1"
       units="px"
       visible="true" />
  </sodipodi:namedview>
  <metadata
     id="metadata7">
    <rdf:RDF>
      <cc:Work
         rdf:about="">
        <dc:format>image/svg+xml</dc:format>
        <dc:type
           rdf:resource="http://purl.org/dc/dcmitype/StillImage" />
      </cc:Work>
    </rdf:RDF>
  </metadata>
  <g
     inkscape:label="Capa 1"
     inkscape:groupmode="layer"
     id="layer1"
     transform="translate(0,-1030.3622)">
    <path
       style="fill:currentColor;fill-opacity:1;stroke:none"
       class="ColorScheme-Text"
       d="m 10,1034.3622 a 1.0001,1.0001 0 0 0 -0.707031,0.293 l -3,3 A 1.0001,1.0001 0 0 0 6,1038.3622 v 1 10 a 1.0001,1.0001 0 0 0 1,1 h 4 v -2 H 8 v -8 h 3 a 1.0001,1.0001 0 0 0 1,-1 v -3 h 4 v 6 h 2 v -7 a 1.0001,1.0001 0 0 0 -1,-1 h -6 z m 0,2.416 v 1.584 H 8.414062 l 0.791016,-0.791 z m 6.5,6.584 a 0.49999234,0.5 0 0 0 -0.5,0.5 0.49999234,0.5 0 0 0 0.5,0.5 0.49999234,0.5 0 0 0 0.5,-0.5 0.49999234,0.5 0 0 0 -0.5,-0.5 z m 1,1 a 0.49999234,0.5 0 0 0 -0.5,0.5 0.49999234,0.5 0 0 0 0.5,0.5 0.49999234,0.5 0 0 0 0.5,-0.5 0.49999234,0.5 0 0 0 -0.5,-0.5 z m -1,1 a 0.49999234,0.5 0 0 0 -0.5,0.5 0.49999234,0.5 0 0 0 0.5,0.5 0.49999234,0.5 0 0 0 0.5,-0.5 0.49999234,0.5 0 0 0 -0.5,-0.5 z m 1,1 a 0.49999234,0.5 0 0 0 -0.5,0.5 0.49999234,0.5 0 0 0 0.5,0.5 0.49999234,0.5 0 0 0 0.5,-0.5 0.49999234,0.5 0 0 0 -0.5,-0.5 z m -1,1 a 0.49999234,0.5 0 0 0 -0.5,0.5 0.49999234,0.5 0 0 0 0.5,0.5 0.49999234,0.5 0 0 0 0.5,-0.5 0.49999234,0.5 0 0 0 -0.5,-0.5 z m -3,1 a 0.49999234,0.5 0 0 0 -0.5,0.5 0.49999234,0.5 0 0 0 0.5,0.5 0.49999234,0.5 0 0 0 0.5,-0.5 0.49999234,0.5 0 0 0 -0.5,-0.5 z m 2,0 a 0.49999234,0.5 0 0 0 -0.5,0.5 0.49999234,0.5 0 0 0 0.5,0.5 0.49999234,0.5 0 0 0 0.5,-0.5 0.49999234,0.5 0 0 0 -0.5,-0.5 z m 2,0 a 0.49999234,0.5 0 0 0 -0.5,0.5 0.49999234,0.5 0 0 0 0.5,0.5 0.49999234,0.5 0 0 0 0.5,-0.5 0.49999234,0.5 0 0 0 -0.5,-0.5 z m -5,1 a 0.49999234,0.5 0 0 0 -0.5,0.5 0.49999234,0.5 0 0 0 0.5,0.5 0.49999234,0.5 0 0 0 0.5,-0.5 0.49999234,0.5 0 0 0 -0.5,-0.5 z m 2,0 a 0.49999234,0.5 0 0 0 -0.5,0.5 0.49999234,0.5 0 0 0 0.5,0.5 0.49999234,0.5 0 0 0 0.5,-0.5 0.49999234,0.5 0 0 0 -0.5,-0.5 z m 2,0 a 0.49999234,0.5 0 0 0 -0.5,0.5 0.49999234,0.5 0 0 0 0.5,0.5 0.49999234,0.5 0 0 0 0.5,-0.5 0.49999234,0.5 0 0 0 -0.5,-0.5 z"
       id="path4167-3" />
  </g>
</svg>
