<?xml version="1.0" encoding="UTF-8" standalone="no"?>
<!-- Created with Inkscape (http://www.inkscape.org/) -->

<svg
   width="24"
   height="24"
   viewBox="0 0 24 24"
   id="svg2"
   version="1.1"
   inkscape:version="1.3.2 (091e20ef0f, 2023-11-25, custom)"
   sodipodi:docname="folder-music.svg"
   xmlns:inkscape="http://www.inkscape.org/namespaces/inkscape"
   xmlns:sodipodi="http://sodipodi.sourceforge.net/DTD/sodipodi-0.dtd"
   xmlns="http://www.w3.org/2000/svg"
   xmlns:svg="http://www.w3.org/2000/svg"
   xmlns:rdf="http://www.w3.org/1999/02/22-rdf-syntax-ns#"
   xmlns:cc="http://creativecommons.org/ns#"
   xmlns:dc="http://purl.org/dc/elements/1.1/">
  <defs
     id="defs3051">
    <style
       type="text/css"
       id="current-color-scheme">
    .ColorScheme-Text {
    color:#F5F5F5;
    }
    </style>
  </defs>
  <sodipodi:namedview
     id="base"
     pagecolor="#ffffff"
     bordercolor="#666666"
     borderopacity="1.0"
     inkscape:pageopacity="0.0"
     inkscape:pageshadow="2"
     inkscape:zoom="16"
     inkscape:cx="13.5625"
     inkscape:cy="8.03125"
     inkscape:document-units="px"
     inkscape:current-layer="layer1"
     showgrid="true"
     units="px"
     inkscape:showpageshadow="false"
     borderlayer="true"
     showguides="true"
     inkscape:guide-bbox="true"
     inkscape:window-width="1354"
     inkscape:window-height="720"
     inkscape:window-x="0"
     inkscape:window-y="0"
     inkscape:window-maximized="1"
     inkscape:pagecheckerboard="0"
     inkscape:deskcolor="#d1d1d1">
    <inkscape:grid
       type="xygrid"
       id="grid4136"
       empspacing="2"
       originx="0"
       originy="0"
       spacingy="1"
       spacingx="1"
       units="px"
       visible="true" />
  </sodipodi:namedview>
  <metadata
     id="metadata7">
    <rdf:RDF>
      <cc:Work
         rdf:about="">
        <dc:format>image/svg+xml</dc:format>
        <dc:type
           rdf:resource="http://purl.org/dc/dcmitype/StillImage" />
      </cc:Work>
    </rdf:RDF>
  </metadata>
  <g
     inkscape:label="Capa 1"
     inkscape:groupmode="layer"
     id="layer1"
     transform="translate(0,-1030.3622)">
    <path
       style="fill:currentColor;fill-opacity:1;stroke:none"
       class="ColorScheme-Text"
       d="m 17.970703,1034.3622 a 1.0001,1.0001 0 0 0 -0.1875,0.023 l -8.9999999,2 A 1.0001,1.0001 0 0 0 8,1037.3622 v 8.0547 a 2.4999912,2.4999912 0 0 0 -0.5,-0.055 2.4999912,2.4999912 0 0 0 -2.5,2.5 2.4999912,2.4999912 0 0 0 2.5,2.5 2.4999912,2.4999912 0 0 0 2.5,-2.5 2.4999912,2.4999912 0 0 0 -0.00586,-0.1 H 10 v -0.3965 -6.1992 l 7,-1.5567 v 3.8106 a 2.4999912,2.4999912 0 0 0 -0.5,-0.055 2.4999912,2.4999912 0 0 0 -2.5,2.5 2.4999912,2.4999912 0 0 0 2.5,2.5 2.4999912,2.4999912 0 0 0 2.5,-2.5 v -0.4961 -1.5 -8.5 a 1.0001,1.0001 0 0 0 -1.029297,-1 z M 17,1036.6063 v 0.9532 l -7,1.5566 v -0.9531 z m -0.5,8.7559 a 0.49999118,0.49999118 0 0 1 0.5,0.5 0.49999118,0.49999118 0 0 1 -0.5,0.5 0.49999118,0.49999118 0 0 1 -0.5,-0.5 0.49999118,0.49999118 0 0 1 0.5,-0.5 z m -9,2 a 0.49999118,0.49999118 0 0 1 0.5,0.5 0.49999118,0.49999118 0 0 1 -0.5,0.5 0.49999118,0.49999118 0 0 1 -0.5,-0.5 0.49999118,0.49999118 0 0 1 0.5,-0.5 z"
       id="path4168" />
  </g>
</svg>
