<?xml version="1.0" encoding="UTF-8" standalone="no"?>
<!-- Created with Inkscape (http://www.inkscape.org/) -->

<svg
   width="24"
   height="24"
   viewBox="0 0 24 24"
   id="svg2"
   version="1.1"
   inkscape:version="1.3.2 (091e20ef0f, 2023-11-25, custom)"
   sodipodi:docname="user-home.svg"
   xmlns:inkscape="http://www.inkscape.org/namespaces/inkscape"
   xmlns:sodipodi="http://sodipodi.sourceforge.net/DTD/sodipodi-0.dtd"
   xmlns="http://www.w3.org/2000/svg"
   xmlns:svg="http://www.w3.org/2000/svg"
   xmlns:rdf="http://www.w3.org/1999/02/22-rdf-syntax-ns#"
   xmlns:cc="http://creativecommons.org/ns#"
   xmlns:dc="http://purl.org/dc/elements/1.1/">
  <defs
     id="defs3051">
    <style
       type="text/css"
       id="current-color-scheme">
    .ColorScheme-Text {
    color:#F5F5F5;
    }
    </style>
  </defs>
  <sodipodi:namedview
     id="base"
     pagecolor="#ffffff"
     bordercolor="#666666"
     borderopacity="1.0"
     inkscape:pageopacity="0.0"
     inkscape:pageshadow="2"
     inkscape:zoom="19.461507"
     inkscape:cx="10.996065"
     inkscape:cy="10.996065"
     inkscape:document-units="px"
     inkscape:current-layer="layer1"
     showgrid="true"
     units="px"
     inkscape:showpageshadow="false"
     borderlayer="true"
     showguides="true"
     inkscape:guide-bbox="true"
     inkscape:window-width="1354"
     inkscape:window-height="725"
     inkscape:window-x="0"
     inkscape:window-y="0"
     inkscape:window-maximized="1"
     inkscape:pagecheckerboard="0"
     inkscape:deskcolor="#d1d1d1">
    <inkscape:grid
       type="xygrid"
       id="grid4136"
       empspacing="2"
       originx="0"
       originy="0"
       spacingy="1"
       spacingx="1"
       units="px"
       visible="true" />
    <sodipodi:guide
       position="0,20"
       orientation="0,1"
       id="guide4140"
       inkscape:label="Icon Max Height"
       inkscape:color="rgb(233,30,99)"
       inkscape:locked="false" />
    <sodipodi:guide
       position="0,2"
       orientation="0,1"
       id="guide4142"
       inkscape:label="Icon Baseline"
       inkscape:color="rgb(233,30,99)"
       inkscape:locked="false" />
    <sodipodi:guide
       position="11,0"
       orientation="1,0"
       id="guide4144"
       inkscape:label="Center Vertical"
       inkscape:color="rgb(221,44,0)"
       inkscape:locked="false" />
    <sodipodi:guide
       position="15,11"
       orientation="0,1"
       id="guide4146"
       inkscape:label="Center Horizontal"
       inkscape:color="rgb(221,44,0)"
       inkscape:locked="false" />
  </sodipodi:namedview>
  <metadata
     id="metadata7">
    <rdf:RDF>
      <cc:Work
         rdf:about="">
        <dc:format>image/svg+xml</dc:format>
        <dc:type
           rdf:resource="http://purl.org/dc/dcmitype/StillImage" />
      </cc:Work>
    </rdf:RDF>
  </metadata>
  <g
     inkscape:label="Capa 1"
     inkscape:groupmode="layer"
     id="layer1"
     transform="translate(0,-1030.3622)">
    <path
       style="fill:currentColor;fill-opacity:1;stroke:none"
       class="ColorScheme-Text"
       d="m 11.972883,1033.3623 a 0.99924977,0.99805849 0 0 0 -0.01953,0 0.99924977,0.99805849 0 0 0 -0.01758,0 0.99924977,0.99805849 0 0 0 -0.02539,0 0.99924977,0.99805849 0 0 0 -0.0625,0.01 0.99924977,0.99805849 0 0 0 -0.02734,0.01 0.99924977,0.99805849 0 0 0 -0.07812,0.018 0.99924977,0.99805849 0 0 0 -0.0039,0 0.99924977,0.99805849 0 0 0 -0.0078,0 0.99924977,0.99805849 0 0 0 -0.08008,0.027 0.99924977,0.99805849 0 0 0 -0.0332,0.014 0.99924977,0.99805849 0 0 0 -0.03906,0.016 0.99924977,0.99805849 0 0 0 -0.08203,0.043 0.99924977,0.99805849 0 0 0 -0.05859,0.037 l -8.9922242,5.9883 a 0.99924977,0.99805849 0 0 0 -0.4453125,0.8301 v 1.9961 a 0.99924977,0.99805849 0 1 0 1.9980469,0 v -1.4629 l 8.0019538,-5.3282 8.001952,5.3282 v 1.4629 a 0.99924977,0.99805849 0 1 0 1.998047,0 v -1.9961 a 0.99924977,0.99805849 0 0 0 -0.445312,-0.8301 l -8.992187,-5.9883 a 0.99924977,0.99805849 0 0 0 -0.05859,-0.037 0.99924977,0.99805849 0 0 0 -0.08203,-0.043 0.99924977,0.99805849 0 0 0 -0.03906,-0.016 0.99924977,0.99805849 0 0 0 -0.0332,-0.014 0.99924977,0.99805849 0 0 0 -0.08008,-0.027 0.99924977,0.99805849 0 0 0 -0.0078,0 0.99924977,0.99805849 0 0 0 -0.0039,0 0.99924977,0.99805849 0 0 0 -0.07812,-0.018 0.99924977,0.99805849 0 0 0 -0.02734,-0.01 0.99924977,0.99805849 0 0 0 -0.0625,-0.01 0.99924977,0.99805849 0 0 0 -0.02539,0 0.99924977,0.99805849 0 0 0 -0.01758,0 0.99924977,0.99805849 0 0 0 -0.01957,0 0.99924977,0.99805849 0 0 0 -0.02734,0 0.99924977,0.99805849 0 0 0 -0.02734,0 z m -7.9726567,9 v 7 c 0,1.108 0.8919904,2 2,2 h 3 2.0000007 v -3 H 9.0002263 v 1 h -3 v -7 z m 13.9999997,0 v 7 h -2.999999 v -1 h -2 v 3 h 2 2.999999 c 1.10801,0 2,-0.892 2,-2 v -7 z"
       id="rect31" />
  </g>
</svg>
