<?xml version="1.0" encoding="UTF-8" standalone="no"?>
<!-- Created with Inkscape (http://www.inkscape.org/) -->

<svg
   width="22"
   height="22"
   viewBox="0 0 5.8208332 5.8208333"
   version="1.1"
   id="svg1"
   inkscape:version="1.3.2 (091e20ef0f, 2023-11-25)"
   sodipodi:docname="network-wired-available.svg"
   xmlns:inkscape="http://www.inkscape.org/namespaces/inkscape"
   xmlns:sodipodi="http://sodipodi.sourceforge.net/DTD/sodipodi-0.dtd"
   xmlns="http://www.w3.org/2000/svg"
   xmlns:svg="http://www.w3.org/2000/svg">
  <sodipodi:namedview
     id="namedview1"
     pagecolor="#5b5b5b"
     bordercolor="#000000"
     borderopacity="0.25"
     inkscape:showpageshadow="2"
     inkscape:pageopacity="0.0"
     inkscape:pagecheckerboard="0"
     inkscape:deskcolor="#d1d1d1"
     inkscape:document-units="mm"
     showgrid="true"
     inkscape:zoom="12"
     inkscape:cx="3.0416667"
     inkscape:cy="7.125"
     inkscape:window-width="1354"
     inkscape:window-height="718"
     inkscape:window-x="0"
     inkscape:window-y="0"
     inkscape:window-maximized="1"
     inkscape:current-layer="layer1">
    <inkscape:grid
       id="grid1"
       units="px"
       originx="0"
       originy="0"
       spacingx="0.26458333"
       spacingy="0.26458333"
       empcolor="#0099e5"
       empopacity="0.30196078"
       color="#0099e5"
       opacity="0.14901961"
       empspacing="5"
       dotted="false"
       gridanglex="30"
       gridanglez="30"
       visible="true" />
  </sodipodi:namedview>
  <defs
     id="defs1" />
  <g
     inkscape:label="Capa 1"
     inkscape:groupmode="layer"
     id="layer1">
    <path
       id="network-wired-activated-100"
       d="m 1.3229166,0.52916711 c -0.43973749,0 -0.79374999,0.3540125 -0.79374999,0.79374999 v 3.175 c 0,0.4397375 0.3540125,0.79375 0.79374999,0.79375 h 3.175 c 0.4397375,0 0.79375,-0.3540125 0.79375,-0.79375 v -3.175 c 0,-0.43973749 -0.3540125,-0.79374999 -0.79375,-0.79374999 z m 0,0.52916669 h 3.175 c 0.1465791,0 0.2645833,0.1180041 0.2645833,0.2645833 v 2.38125 H 3.7041666 v 0.5291666 h -1.5875 V 3.7041671 H 1.0583333 v -2.38125 c 0,-0.1465792 0.1180041,-0.2645833 0.2645833,-0.2645833 z m 0.5291667,0.5291666 c -0.1465792,0 -0.2645834,0.1180042 -0.2645834,0.2645834 v 1.0583333 c 0,0.1465791 0.1180042,0.2645833 0.2645834,0.2645833 0.1465791,0 0.2645833,-0.1180042 0.2645833,-0.2645833 V 1.8520838 c 0,-0.1465792 -0.1180042,-0.2645834 -0.2645833,-0.2645834 z m 1.0583333,0 c -0.1465792,0 -0.2645833,0.1180042 -0.2645833,0.2645834 v 1.0583333 c 0,0.1465791 0.1180041,0.2645833 0.2645833,0.2645833 0.1465791,0 0.2645833,-0.1180042 0.2645833,-0.2645833 V 1.8520838 c 0,-0.1465792 -0.1180042,-0.2645834 -0.2645833,-0.2645834 z m 1.0583333,0 c -0.1465792,0 -0.2645833,0.1180042 -0.2645833,0.2645834 v 1.0583333 c 0,0.1465791 0.1180041,0.2645833 0.2645833,0.2645833 0.1465792,0 0.2645833,-0.1180042 0.2645833,-0.2645833 V 1.8520838 c 0,-0.1465792 -0.1180041,-0.2645834 -0.2645833,-0.2645834 z"
       style="color:#4d4d4d;fill:#f5f5f5;fill-opacity:1;stroke:none;stroke-width:0.264583"
       class="ColorScheme-Text"
       inkscape:connector-curvature="0" />
    <circle
       style="fill:#2196f3;fill-opacity:1;stroke:none;stroke-width:0.529167;stroke-linecap:round;stroke-linejoin:round;stroke-miterlimit:4;stroke-dasharray:none;stroke-opacity:1"
       id="circle4617"
       cx="4.2333331"
       cy="4.2333374"
       r="1.5875" />
    <circle
       r="1.3229166"
       cy="4.2333455"
       cx="4.2333331"
       id="circle4619"
       style="fill:#42a5f5;fill-opacity:1;stroke:none;stroke-width:0.529167;stroke-linecap:round;stroke-linejoin:round;stroke-miterlimit:4;stroke-dasharray:none;stroke-opacity:1" />
    <path
       inkscape:connector-curvature="0"
       id="path4621"
       d="M 4.2333331,3.1749999 A 0.26458333,0.26458333 0 0 0 3.9687498,3.4395832 0.26458333,0.26458333 0 0 0 4.2333331,3.7041666 0.26458333,0.26458333 0 0 0 4.4979165,3.4395832 0.26458333,0.26458333 0 0 0 4.2333331,3.1749999 Z m 0,0.79375 c -0.1465791,0 -0.2645833,0.1180042 -0.2645833,0.2645833 v 0.79375 c 0,0.1465792 0.1180042,0.2645834 0.2645833,0.2645834 0.1465792,0 0.2645834,-0.1180042 0.2645834,-0.2645834 v -0.79375 c 0,-0.1465791 -0.1180042,-0.2645833 -0.2645834,-0.2645833 z"
       style="fill:#fafafa;fill-opacity:1;stroke:none;stroke-width:0.529167;stroke-linecap:round;stroke-linejoin:round;stroke-miterlimit:4;stroke-dasharray:none;stroke-opacity:1" />
  </g>
</svg>
