<?xml version="1.0" encoding="UTF-8" standalone="no"?>
<!-- Created with Inkscape (http://www.inkscape.org/) -->

<svg
   width="22"
   height="22"
   viewBox="0 0 5.8208332 5.8208333"
   version="1.1"
   id="svg1"
   inkscape:version="1.4 (e7c3feb100, 2024-10-09)"
   sodipodi:docname="airplane-mode-disabled-symbolic.svg"
   xmlns:inkscape="http://www.inkscape.org/namespaces/inkscape"
   xmlns:sodipodi="http://sodipodi.sourceforge.net/DTD/sodipodi-0.dtd"
   xmlns="http://www.w3.org/2000/svg"
   xmlns:svg="http://www.w3.org/2000/svg">
  <sodipodi:namedview
     id="namedview1"
     pagecolor="#ffffff"
     bordercolor="#000000"
     borderopacity="0.25"
     inkscape:showpageshadow="2"
     inkscape:pageopacity="0.0"
     inkscape:pagecheckerboard="0"
     inkscape:deskcolor="#d1d1d1"
     inkscape:document-units="mm"
     showgrid="true"
     inkscape:zoom="16.970563"
     inkscape:cx="14.466226"
     inkscape:cy="10.783378"
     inkscape:window-width="1354"
     inkscape:window-height="732"
     inkscape:window-x="0"
     inkscape:window-y="0"
     inkscape:window-maximized="1"
     inkscape:current-layer="layer1">
    <inkscape:grid
       id="grid1"
       units="px"
       originx="0"
       originy="0"
       spacingx="0.26458333"
       spacingy="0.26458333"
       empcolor="#0099e5"
       empopacity="0.30196078"
       color="#0099e5"
       opacity="0.14901961"
       empspacing="5"
       dotted="false"
       gridanglex="30"
       gridanglez="30"
       visible="true" />
  </sodipodi:namedview>
  <defs
     id="defs1" />
  <g
     inkscape:label="Capa 1"
     inkscape:groupmode="layer"
     id="layer1">
    <path
       id="rect2"
       style="fill:#f5f5f5;stroke-width:0.529167;stroke-linecap:square"
       d="M 5.5511151e-17 0.74835468 L -0.52911014 0.74835468 L -0.52911014 7.4835468 L 4.4408921e-16 7.4835468 L 5.5511151e-17 0.74835468 z "
       transform="rotate(-45)" />
    <path
       id="flightmode-on-100"
       style="color:#4d4d4d;fill:#f5f5f5;fill-opacity:0.3019608;stroke:none;stroke-width:0.264583"
       class="ColorScheme-Text"
       d="M 2.9104167 0.52916667 C 2.6172583 0.52916667 2.38125 1.2943416 2.38125 1.5875 L 2.38125 1.6324585 L 4.5423584 3.7935669 L 5.2916667 3.96875 L 5.2916667 3.4395833 L 3.4395833 2.3569621 L 3.4395833 1.5875 C 3.4395833 1.2943416 3.203575 0.52916667 2.9104167 0.52916667 z M 2.3657471 2.3657471 L 0.52916667 3.4395833 L 0.52916667 3.96875 L 2.38125 3.5357015 L 2.38125 3.7041667 C 2.38125 3.8647822 2.4534629 4.1648941 2.5657349 4.4054159 L 1.8520833 4.7625 L 1.8520833 5.2916667 L 2.9104167 5.0270833 L 3.96875 5.2916667 L 3.96875 4.7625 L 3.2550985 4.4054159 C 3.3673702 4.1648941 3.4395833 3.8647822 3.4395833 3.7041667 L 3.4395833 3.5357015 L 3.5651571 3.5651571 L 2.3657471 2.3657471 z " />
  </g>
</svg>
