<?xml version="1.0" encoding="UTF-8" standalone="no"?>
<!-- Created with Inkscape (http://www.inkscape.org/) -->

<svg
   width="22"
   height="22"
   viewBox="0 0 5.8208332 5.8208333"
   version="1.1"
   id="svg1"
   inkscape:version="1.3.2 (091e20ef0f, 2023-11-25, custom)"
   sodipodi:docname="audio-volume-low-symbolic (copia 1).svg"
   xmlns:inkscape="http://www.inkscape.org/namespaces/inkscape"
   xmlns:sodipodi="http://sodipodi.sourceforge.net/DTD/sodipodi-0.dtd"
   xmlns="http://www.w3.org/2000/svg"
   xmlns:svg="http://www.w3.org/2000/svg">
  <sodipodi:namedview
     id="namedview1"
     pagecolor="#ffffff"
     bordercolor="#000000"
     borderopacity="0.25"
     inkscape:showpageshadow="2"
     inkscape:pageopacity="0.0"
     inkscape:pagecheckerboard="0"
     inkscape:deskcolor="#d1d1d1"
     inkscape:document-units="mm"
     showgrid="true"
     inkscape:zoom="12"
     inkscape:cx="11"
     inkscape:cy="11"
     inkscape:window-width="1354"
     inkscape:window-height="725"
     inkscape:window-x="0"
     inkscape:window-y="0"
     inkscape:window-maximized="1"
     inkscape:current-layer="layer1">
    <inkscape:grid
       id="grid1"
       units="px"
       originx="0"
       originy="0"
       spacingx="0.26458333"
       spacingy="0.26458333"
       empcolor="#0099e5"
       empopacity="0.30196078"
       color="#0099e5"
       opacity="0.14901961"
       empspacing="5"
       dotted="false"
       gridanglex="30"
       gridanglez="30"
       visible="true" />
  </sodipodi:namedview>
  <defs
     id="defs1" />
  <g
     inkscape:label="Capa 1"
     inkscape:groupmode="layer"
     id="layer1">
    <path
       style="color:#4d4d4d;fill:#f5f5f5;fill-opacity:1;stroke:none;stroke-width:0.264583"
       class="ColorScheme-Text"
       d="M 2.9026652,0.52916864 C 2.8434424,0.53181448 2.7864861,0.55218739 2.740918,0.5901551 L 1.2004436,1.8737811 C 1.1549581,1.861134 1.1079625,1.8520853 1.0583334,1.8520853 H 0.79375003 c -0.29316087,0 -0.52916666,0.2360083 -0.52916666,0.5291667 v 1.0583333 c 0,0.2931583 0.23600579,0.5291666 0.52916666,0.5291666 H 1.0583334 c 0.049804,0 0.096999,-0.009 0.1426269,-0.021696 L 2.740918,5.2296502 C 2.9133938,5.3734777 3.1753442,5.2505523 3.175,5.0260534 V 0.79322281 C 3.1747508,0.64426239 3.0515944,0.52482948 2.9026652,0.52916864 Z M 0.79375003,2.381252 H 1.0583334 V 3.4395853 H 0.79375003 Z"
       id="speaker-medium"
       inkscape:connector-curvature="0" />
    <path
       style="color:#4d4d4d;fill:#f5f5f5;fill-opacity:1;stroke:none;stroke-width:0.264583"
       class="ColorScheme-Text"
       d="M 3.7015827,1.5840359 A 0.26460979,0.26460979 0 0 0 3.5574055,2.0708428 c 0.3291377,0.2194189 0.4774903,0.5295106 0.4774903,0.8381735 0,0.3086894 -0.1483526,0.6187811 -0.4774903,0.8382 a 0.26460979,0.26460979 0 1 0 0.2935224,0.4402931 c 0.4646123,-0.3097477 0.7131346,-0.793406 0.7131346,-1.2784931 0,-0.4850606 -0.2485223,-0.9687189 -0.7131346,-1.2784666 A 0.26460979,0.26460979 0 0 0 3.7015827,1.5840359 Z"
       id="volume-50-medium"
       inkscape:connector-curvature="0" />
    <path
       style="color:#4d4d4d;fill:#f5f5f5;fill-opacity:0.3019608;stroke:none;stroke-width:0.264583"
       class="ColorScheme-Text"
       d="M 4.2712637,0.7908151 A 0.26460979,0.26460979 0 0 0 4.1503409,1.2838132 c 1.144973,0.6869642 1.144973,2.5634421 0,3.2504327 A 0.26460979,0.26460979 0 1 0 4.422159,4.9879798 c 1.5008603,-0.9005358 1.5008603,-3.2573912 0,-4.15790054 A 0.26460979,0.26460979 0 0 0 4.2712637,0.7908151 Z"
       id="volume-100-medium"
       inkscape:connector-curvature="0" />
  </g>
</svg>
