<?xml version="1.0" encoding="UTF-8" standalone="no"?>
<!-- Created with Inkscape (http://www.inkscape.org/) -->

<svg
   width="22"
   height="22"
   viewBox="0 0 5.8208332 5.8208333"
   version="1.1"
   id="svg1"
   inkscape:version="1.3.2 (091e20ef0f, 2023-11-25, custom)"
   sodipodi:docname="audio-volume-low-symbolic (copia 1).svg"
   xmlns:inkscape="http://www.inkscape.org/namespaces/inkscape"
   xmlns:sodipodi="http://sodipodi.sourceforge.net/DTD/sodipodi-0.dtd"
   xmlns="http://www.w3.org/2000/svg"
   xmlns:svg="http://www.w3.org/2000/svg">
  <sodipodi:namedview
     id="namedview1"
     pagecolor="#ffffff"
     bordercolor="#000000"
     borderopacity="0.25"
     inkscape:showpageshadow="2"
     inkscape:pageopacity="0.0"
     inkscape:pagecheckerboard="0"
     inkscape:deskcolor="#d1d1d1"
     inkscape:document-units="mm"
     showgrid="true"
     inkscape:zoom="12"
     inkscape:cx="3.1666667"
     inkscape:cy="11"
     inkscape:window-width="1354"
     inkscape:window-height="725"
     inkscape:window-x="0"
     inkscape:window-y="0"
     inkscape:window-maximized="1"
     inkscape:current-layer="layer1">
    <inkscape:grid
       id="grid1"
       units="px"
       originx="0"
       originy="0"
       spacingx="0.26458333"
       spacingy="0.26458333"
       empcolor="#0099e5"
       empopacity="0.30196078"
       color="#0099e5"
       opacity="0.14901961"
       empspacing="5"
       dotted="false"
       gridanglex="30"
       gridanglez="30"
       visible="true" />
  </sodipodi:namedview>
  <defs
     id="defs1" />
  <g
     inkscape:label="Capa 1"
     inkscape:groupmode="layer"
     id="layer1">
    <path
       style="color:#4d4d4d;fill:#f5f5f5;fill-opacity:1;stroke:none;stroke-width:0.264583"
       class="ColorScheme-Text"
       d="m 2.9026652,0.52916864 c -0.059223,0.002646 -0.1161791,0.0230106 -0.1617472,0.0609782 L 1.2004435,1.8737894 c -0.045485,-0.0127 -0.092481,-0.021704 -0.1421101,-0.021704 H 0.79375005 c -0.29316098,0 -0.52916666,0.2360083 -0.52916666,0.5291667 v 1.0583333 c 0,0.2931583 0.23600568,0.5291666 0.52916666,0.5291666 H 1.0583334 c 0.049804,0 0.096999,-0.009 0.1426268,-0.021704 L 2.740918,5.2296571 C 2.9133938,5.3734846 3.1753442,5.2505513 3.175,5.0260521 V 0.79323521 C 3.1747508,0.6442748 3.0515944,0.52482948 2.9026652,0.52916864 Z M 4.2710571,0.79065137 A 0.26460979,0.26460979 0 0 0 4.1501343,1.2836445 c 1.144973,0.6869642 1.144973,2.563457 0,3.2504477 A 0.26460979,0.26460979 0 1 0 4.4219524,4.987811 c 1.5008603,-0.9005358 1.5008603,-3.2573762 0,-4.15788551 A 0.26460979,0.26460979 0 0 0 4.2710571,0.79065137 Z M 3.7015828,1.5838846 a 0.26460979,0.26460979 0 0 0 -0.1441773,0.486792 c 0.3291379,0.219419 0.4774903,0.5295288 0.4774903,0.8381918 0,0.3086894 -0.1483524,0.6187726 -0.4774903,0.8381915 a 0.26460979,0.26460979 0 1 0 0.2935224,0.4402834 c 0.464612,-0.3097477 0.7131346,-0.7933878 0.7131346,-1.2784749 0,-0.4850607 -0.2485226,-0.9687273 -0.7131346,-1.278475 A 0.26460979,0.26460979 0 0 0 3.7015828,1.5838846 Z M 0.79375005,2.381252 H 1.0583334 V 3.4395853 H 0.79375005 Z"
       id="speaker-high" />
  </g>
</svg>
