<?xml version="1.0" encoding="UTF-8" standalone="no"?>
<!-- Created with Inkscape (http://www.inkscape.org/) -->

<svg
   width="22"
   height="22"
   viewBox="0 0 22 22"
   id="svg2"
   version="1.1"
   inkscape:version="1.3.2 (091e20ef0f, 2023-11-25)"
   sodipodi:docname="audio-volume-muted-symbolic.svg"
   xmlns:inkscape="http://www.inkscape.org/namespaces/inkscape"
   xmlns:sodipodi="http://sodipodi.sourceforge.net/DTD/sodipodi-0.dtd"
   xmlns="http://www.w3.org/2000/svg"
   xmlns:svg="http://www.w3.org/2000/svg"
   xmlns:rdf="http://www.w3.org/1999/02/22-rdf-syntax-ns#"
   xmlns:cc="http://creativecommons.org/ns#"
   xmlns:dc="http://purl.org/dc/elements/1.1/">
  <defs
     id="defs3051">
    <style
       type="text/css"
       id="current-color-scheme">
    .ColorScheme-Text {
    color:#F5F5F5;
    }
    </style>
  </defs>
  <sodipodi:namedview
     id="base"
     pagecolor="#7c7c7c"
     bordercolor="#666666"
     borderopacity="1.0"
     inkscape:pageopacity="0.0"
     inkscape:pageshadow="2"
     inkscape:zoom="16.809857"
     inkscape:cx="5.0863014"
     inkscape:cy="4.729368"
     inkscape:document-units="px"
     inkscape:current-layer="layer1"
     showgrid="true"
     units="px"
     inkscape:showpageshadow="false"
     borderlayer="true"
     showguides="true"
     inkscape:guide-bbox="true"
     inkscape:window-width="1354"
     inkscape:window-height="718"
     inkscape:window-x="0"
     inkscape:window-y="0"
     inkscape:window-maximized="1"
     inkscape:pagecheckerboard="0"
     inkscape:deskcolor="#d1d1d1">
    <inkscape:grid
       type="xygrid"
       id="grid4136"
       empspacing="2"
       originx="0"
       originy="0"
       spacingy="1"
       spacingx="1"
       units="px"
       visible="true" />
    <sodipodi:guide
       position="0,20"
       orientation="0,1"
       id="guide4140"
       inkscape:label="Icon Max Height"
       inkscape:color="rgb(233,30,99)"
       inkscape:locked="false" />
    <sodipodi:guide
       position="0,2"
       orientation="0,1"
       id="guide4142"
       inkscape:label="Icon Baseline"
       inkscape:color="rgb(233,30,99)"
       inkscape:locked="false" />
    <sodipodi:guide
       position="11,0"
       orientation="1,0"
       id="guide4144"
       inkscape:label="Center Vertical"
       inkscape:color="rgb(221,44,0)"
       inkscape:locked="false" />
    <sodipodi:guide
       position="15,11"
       orientation="0,1"
       id="guide4146"
       inkscape:label="Center Horizontal"
       inkscape:color="rgb(221,44,0)"
       inkscape:locked="false" />
  </sodipodi:namedview>
  <metadata
     id="metadata7">
    <rdf:RDF>
      <cc:Work
         rdf:about="">
        <dc:format>image/svg+xml</dc:format>
        <dc:type
           rdf:resource="http://purl.org/dc/dcmitype/StillImage" />
      </cc:Work>
    </rdf:RDF>
  </metadata>
  <g
     inkscape:label="Capa 1"
     inkscape:groupmode="layer"
     id="layer1"
     transform="translate(0,-1030.3622)">
    <path
       style="fill:#f5f5f5;fill-opacity:0.3019608;stroke:none"
       d="m 13.990234,5.9863281 a 1.0001,1.0001 0 0 0 -0.544922,1.8398438 c 1.243987,0.8293 1.804688,2.0013683 1.804688,3.1679691 0,0.11718 -0.01005,0.234629 -0.02148,0.351562 l 1.666015,1.564453 C 17.125009,12.290809 17.25,11.643875 17.25,10.994141 17.25,9.1608402 16.310702,7.3328094 14.554688,6.1621094 A 1.0001,1.0001 0 0 0 13.990234,5.9863281 Z"
       transform="translate(0,1030.3622)"
       id="path3" />
    <path
       style="fill:#f5f5f5;fill-opacity:0.3019608;stroke:none"
       d="M 16.142578,2.9882812 A 1.0001,1.0001 0 0 0 15.685547,4.8515625 C 18.831421,6.7390332 19.677955,10.996668 18.25,14.181641 l 1.541016,1.445312 C 22.053987,11.512329 21.034388,5.7295977 16.712891,3.1367188 A 1.0001,1.0001 0 0 0 16.142578,2.9882812 Z"
       transform="translate(0,1030.3622)"
       id="path2" />
    <path
       style="fill:#f5f5f5;fill-opacity:1;stroke:none"
       d="m 10.970703,2 c -0.223834,0.01 -0.439102,0.086969 -0.611328,0.2304688 L 7.7929688,4.3691406 12,8.3164062 V 2.9980469 C 11.999058,2.4350469 11.533585,1.9836 10.970703,2 Z"
       transform="translate(0,1030.3622)"
       id="path1" />
    <path
       id="path16"
       style="fill:#f5f5f5;fill-opacity:1;stroke:none"
       d="M 2.3671875 2 L 1 3.4550781 L 1.7265625 4.1386719 L 4.7109375 6.9375 L 4.5371094 7.0820312 C 4.3651968 7.0340315 4.1875744 7 4 7 L 3 7 C 1.8919933 7 1 7.8920033 1 9 L 1 13 C 1 14.107997 1.8919933 15 3 15 L 4 15 C 4.1882334 15 4.3666131 14.965969 4.5390625 14.917969 L 10.359375 19.765625 C 11.011249 20.309222 12.001301 19.844692 12 18.996094 L 12 13.777344 L 13.023438 14.738281 L 17.109375 18.570312 L 17.90625 19.318359 L 18.632812 20 L 20 18.544922 L 19.273438 17.861328 L 3.09375 2.6816406 L 2.3671875 2 z M 3 9 L 4 9 L 4 13 L 3 13 L 3 9 z "
       transform="translate(0,1030.3622)" />
    <path
       id="path15"
       style="fill:#f5f5f5;fill-opacity:0.3019608;stroke:none"
       d="M 15.623047 17.175781 L 15.623047 17.175781 A 1.0001 1.0001 0 0 0 16.712891 18.851562 C 16.854547 18.766563 16.975094 18.662256 17.109375 18.570312 "
       transform="translate(0,1030.3622)" />
    <path
       id="path13"
       style="fill:#f5f5f5;fill-opacity:0.3019608;stroke:none"
       d="M 13.023438 14.738281 L 13.023438 14.738281 A 1.0001 1.0001 0 0 0 14.314453 15.949219 "
       transform="translate(0,1030.3622)" />
  </g>
</svg>
