<?xml version="1.0" encoding="UTF-8" standalone="no"?>
<!-- Created with Inkscape (http://www.inkscape.org/) -->

<svg
   width="22"
   height="22"
   viewBox="0 0 5.8208333 5.8208334"
   version="1.1"
   id="svg1"
   sodipodi:docname="battery-level-0-symbolic.svg"
   inkscape:version="1.3.2 (091e20ef0f, 2023-11-25)"
   xmlns:inkscape="http://www.inkscape.org/namespaces/inkscape"
   xmlns:sodipodi="http://sodipodi.sourceforge.net/DTD/sodipodi-0.dtd"
   xmlns="http://www.w3.org/2000/svg"
   xmlns:svg="http://www.w3.org/2000/svg">
  <sodipodi:namedview
     id="namedview1"
     pagecolor="#969696"
     bordercolor="#000000"
     borderopacity="0.25"
     inkscape:showpageshadow="2"
     inkscape:pageopacity="0.0"
     inkscape:pagecheckerboard="0"
     inkscape:deskcolor="#d1d1d1"
     inkscape:document-units="px"
     inkscape:zoom="23.772727"
     inkscape:cx="11"
     inkscape:cy="11"
     inkscape:window-width="1354"
     inkscape:window-height="718"
     inkscape:window-x="0"
     inkscape:window-y="0"
     inkscape:window-maximized="1"
     inkscape:current-layer="layer1"
     showgrid="true">
    <inkscape:grid
       id="grid1"
       units="px"
       originx="0"
       originy="0"
       spacingx="0.26458333"
       spacingy="0.26458334"
       empcolor="#0099e5"
       empopacity="0.30196078"
       color="#0099e5"
       opacity="0.14901961"
       empspacing="5"
       dotted="false"
       gridanglex="30"
       gridanglez="30"
       visible="true" />
  </sodipodi:namedview>
  <defs
     id="defs1" />
  <g
     inkscape:label="Capa 1"
     inkscape:groupmode="layer"
     id="layer1">
    <rect
       style="fill:#ef5350;fill-opacity:1;stroke-width:0.529167"
       id="rect1"
       class="error"
       width="0.79374993"
       height="0.26458332"
       x="2.3812499"
       y="4.2333331" />
    <path
       id="battery-22"
       class="error"
       style="color:#4d4d4d;fill:#ef5350;fill-opacity:1;stroke:none;stroke-width:0.264583"
       d="M 2.6458333 0.52916667 C 2.4992543 0.52916667 2.38125 0.64717099 2.38125 0.79375 L 2.1166667 0.79375 C 1.8235087 0.79375 1.5875 1.0297587 1.5875 1.3229167 L 1.5875 4.7625 C 1.5875 5.0556581 1.8235087 5.2916667 2.1166667 5.2916667 L 3.0520101 5.2916667 A 1.5875 1.5875 0 0 1 2.740918 4.7625 L 2.1166667 4.7625 L 2.1166667 1.3229167 L 3.7041667 1.3229167 L 3.7041667 2.740918 A 1.5875 1.5875 0 0 1 4.2333333 2.6458333 L 4.2333333 1.3229167 C 4.2333333 1.0297587 3.9973247 0.79375 3.7041667 0.79375 L 3.4395833 0.79375 C 3.4395833 0.64717099 3.321579 0.52916667 3.175 0.52916667 L 2.6458333 0.52916667 z " />
    <path
       id="circle4633"
       class="error"
       style="fill:#ef5350;fill-opacity:1;stroke:none;stroke-width:0.529167;stroke-linecap:round;stroke-linejoin:round;stroke-miterlimit:4;stroke-dasharray:none;stroke-opacity:1"
       d="M 4.2333333 2.9104167 A 1.3229166 1.3229166 0 0 0 2.9104167 4.2333333 A 1.3229166 1.3229166 0 0 0 4.2333333 5.55625 A 1.3229166 1.3229166 0 0 0 5.55625 4.2333333 A 1.3229166 1.3229166 0 0 0 4.2333333 2.9104167 z M 4.2333333 3.175 C 4.3668899 3.175 4.5004467 3.2642833 4.4979167 3.4426839 L 4.4979167 4.2333333 C 4.4999567 4.3820805 4.378359 4.5033406 4.2291992 4.5010173 C 4.0832788 4.4987373 3.9667517 4.3788515 3.96875 4.2333333 L 3.96875 3.4426839 C 3.96622 3.2642833 4.0997768 3.175 4.2333333 3.175 z M 4.2333333 4.7656006 C 4.3794586 4.7656006 4.4979167 4.8840587 4.4979167 5.0301839 C 4.4979167 5.1763092 4.3794586 5.2947673 4.2333333 5.2947673 C 4.0872082 5.2947673 3.96875 5.1763091 3.96875 5.0301839 C 3.96875 4.8840588 4.0872082 4.7656006 4.2333333 4.7656006 z " />
  </g>
</svg>
