<?xml version="1.0" encoding="UTF-8" standalone="no"?>
<!-- Created with Inkscape (http://www.inkscape.org/) -->

<svg
   width="22"
   height="22"
   viewBox="0 0 5.8208333 5.8208334"
   version="1.1"
   id="svg1"
   sodipodi:docname="battery-missing-symbolic.svg"
   inkscape:version="1.4.1 (93de688d07, 2025-03-30)"
   xmlns:inkscape="http://www.inkscape.org/namespaces/inkscape"
   xmlns:sodipodi="http://sodipodi.sourceforge.net/DTD/sodipodi-0.dtd"
   xmlns="http://www.w3.org/2000/svg"
   xmlns:svg="http://www.w3.org/2000/svg">
  <sodipodi:namedview
     id="namedview1"
     pagecolor="#ffffff"
     bordercolor="#000000"
     borderopacity="0.25"
     inkscape:showpageshadow="2"
     inkscape:pageopacity="0.0"
     inkscape:pagecheckerboard="0"
     inkscape:deskcolor="#d1d1d1"
     inkscape:document-units="px"
     inkscape:zoom="11.886364"
     inkscape:cx="10.936903"
     inkscape:cy="14.722754"
     inkscape:window-width="1354"
     inkscape:window-height="712"
     inkscape:window-x="0"
     inkscape:window-y="0"
     inkscape:window-maximized="1"
     inkscape:current-layer="layer1"
     showgrid="true">
    <inkscape:grid
       id="grid1"
       units="px"
       originx="0"
       originy="0"
       spacingx="0.26458333"
       spacingy="0.26458334"
       empcolor="#0099e5"
       empopacity="0.30196078"
       color="#0099e5"
       opacity="0.14901961"
       empspacing="5"
       dotted="false"
       gridanglex="30"
       gridanglez="30"
       visible="true" />
  </sodipodi:namedview>
  <defs
     id="defs1" />
  <g
     inkscape:label="Capa 1"
     inkscape:groupmode="layer"
     id="layer1">
    <path
       id="battery-22"
       style="color:#4d4d4d;fill:#f5f5f5;fill-opacity:0.3019608;stroke:none;stroke-width:0.264583"
       class="ColorScheme-Text"
       d="M 2.6458333 0.52916667 C 2.4992541 0.52916667 2.38125 0.64717084 2.38125 0.79375 L 2.1166667 0.79375 C 1.8235084 0.79375 1.5875 1.0297584 1.5875 1.3229167 L 1.5875 4.7625 C 1.5875 5.0556584 1.8235084 5.2916667 2.1166667 5.2916667 L 3.2437297 5.2916667 C 3.2017633 5.2212933 3.174388 5.1399182 3.1698324 5.0508545 C 3.1649295 4.9550184 3.1922481 4.8523721 3.2457967 4.7625 L 2.1166667 4.7625 L 2.1166667 1.3229167 L 3.7041667 1.3229167 L 3.7041667 3.4395833 C 3.7044715 3.4395834 3.7048953 3.4395822 3.7052002 3.4395833 C 3.8467751 3.4395924 3.9807263 3.496769 4.0798543 3.5977132 L 4.0819214 3.5997803 L 4.2333333 3.7491252 L 4.2333333 1.3229167 C 4.2333333 1.0297584 3.997325 0.79375 3.7041667 0.79375 L 3.4395833 0.79375 C 3.4395833 0.64717084 3.3215791 0.52916667 3.175 0.52916667 L 2.6458333 0.52916667 z " />
    <path
       id="path4635"
       d="M 3.7041399,3.7042815 A 0.26333729,0.26352509 0 0 0 3.5205424,4.156666 L 3.8609952,4.49737 3.5205424,4.8380475 a 0.26333729,0.26352509 0 1 0 0.372338,0.3726127 l 0.3404529,-0.340704 0.3404529,0.340704 A 0.26333729,0.26352509 0 1 0 4.9461242,4.8380475 L 4.6056716,4.49737 4.9461242,4.156666 A 0.26333729,0.26352509 0 0 0 4.7548125,3.7042815 0.26333729,0.26352509 0 0 0 4.5737862,3.7840533 L 4.2333333,4.1247573 3.8928804,3.7840533 A 0.26333729,0.26352509 0 0 0 3.7041399,3.7042815 Z"
       style="color:#000000;font-style:normal;font-variant:normal;font-weight:normal;font-stretch:normal;font-size:medium;line-height:normal;font-family:sans-serif;text-indent:0;text-align:start;text-decoration:none;text-decoration-line:none;text-decoration-style:solid;text-decoration-color:#000000;letter-spacing:normal;word-spacing:normal;text-transform:none;writing-mode:lr-tb;direction:ltr;baseline-shift:baseline;text-anchor:start;white-space:normal;clip-rule:nonzero;display:inline;overflow:visible;visibility:visible;isolation:auto;mix-blend-mode:normal;color-interpolation:sRGB;color-interpolation-filters:linearRGB;solid-color:#000000;solid-opacity:1;fill:#fafafa;fill-opacity:1;fill-rule:evenodd;stroke:none;stroke-width:0.526809;stroke-linecap:round;stroke-linejoin:round;stroke-miterlimit:4;stroke-dasharray:none;stroke-dashoffset:0;stroke-opacity:1;color-rendering:auto;image-rendering:auto;shape-rendering:auto;text-rendering:auto;enable-background:accumulate"
       inkscape:connector-curvature="0" />
  </g>
</svg>
