<?xml version="1.0" encoding="UTF-8" standalone="no"?>
<svg
   width="22"
   height="22"
   viewBox="0 0 22 22"
   id="svg2"
   version="1.1"
   inkscape:version="1.4 (e7c3feb100, 2024-10-09)"
   sodipodi:docname="bluetooth-disconnected-symbolic.svg"
   xmlns:inkscape="http://www.inkscape.org/namespaces/inkscape"
   xmlns:sodipodi="http://sodipodi.sourceforge.net/DTD/sodipodi-0.dtd"
   xmlns="http://www.w3.org/2000/svg"
   xmlns:svg="http://www.w3.org/2000/svg"
   xmlns:rdf="http://www.w3.org/1999/02/22-rdf-syntax-ns#"
   xmlns:cc="http://creativecommons.org/ns#"
   xmlns:dc="http://purl.org/dc/elements/1.1/">
  <defs
     id="defs3051">
    <style
       type="text/css"
       id="current-color-scheme">
    .ColorScheme-Text {
    color:#f5f5f5;
    }
    </style>
  </defs>
  <sodipodi:namedview
     id="base"
     pagecolor="#ffffff"
     bordercolor="#666666"
     borderopacity="1.0"
     inkscape:pageopacity="0.0"
     inkscape:pageshadow="2"
     inkscape:zoom="16.000001"
     inkscape:cx="11.9375"
     inkscape:cy="14.6875"
     inkscape:document-units="px"
     inkscape:current-layer="layer1"
     showgrid="true"
     units="px"
     inkscape:showpageshadow="false"
     borderlayer="true"
     showguides="true"
     inkscape:guide-bbox="true"
     inkscape:window-width="1354"
     inkscape:window-height="732"
     inkscape:window-x="0"
     inkscape:window-y="0"
     inkscape:window-maximized="1"
     inkscape:document-rotation="0"
     inkscape:pagecheckerboard="0"
     inkscape:deskcolor="#d1d1d1">
    <inkscape:grid
       type="xygrid"
       id="grid4136"
       empspacing="2"
       originx="0"
       originy="0"
       spacingy="1"
       spacingx="1"
       units="px" />
    <sodipodi:guide
       position="0,20"
       orientation="0,1"
       id="guide4140"
       inkscape:label="Icon Max Height"
       inkscape:color="rgb(233,30,99)"
       inkscape:locked="false" />
    <sodipodi:guide
       position="0,2"
       orientation="0,1"
       id="guide4142"
       inkscape:label="Icon Baseline"
       inkscape:color="rgb(233,30,99)"
       inkscape:locked="false" />
    <sodipodi:guide
       position="11,0"
       orientation="1,0"
       id="guide4144"
       inkscape:label="Center Vertical"
       inkscape:color="rgb(221,44,0)"
       inkscape:locked="false" />
    <sodipodi:guide
       position="15,11"
       orientation="0,1"
       id="guide4146"
       inkscape:label="Center Horizontal"
       inkscape:color="rgb(221,44,0)"
       inkscape:locked="false" />
  </sodipodi:namedview>
  <metadata
     id="metadata7">
    <rdf:RDF>
      <cc:Work
         rdf:about="">
        <dc:format>image/svg+xml</dc:format>
        <dc:type
           rdf:resource="http://purl.org/dc/dcmitype/StillImage" />
      </cc:Work>
    </rdf:RDF>
  </metadata>
  <g
     inkscape:label="Capa 1"
     inkscape:groupmode="layer"
     id="layer1"
     transform="translate(0,-1030.3622)">
    <path
       id="path1111"
       style="color:#4d4d4d;fill:#f5f5f5;fill-opacity:0.3019608;stroke:none"
       class="ColorScheme-Text"
       d="M 10.498047 1033.3622 A 0.50005 0.50005 0 0 0 9.9980469 1033.8622 L 9.9980469 1039.6942 L 7.5585938 1037.2548 A 0.50005 0.50005 0 0 0 7.5214844 1037.2216 C 7.159869 1036.8598 6.5605469 1036.2606 6.5605469 1036.2606 A 0.50005 0.50005 0 0 0 5.8535156 1036.2606 L 5.1464844 1036.9677 A 0.50005 0.50005 0 0 0 5.1464844 1037.6747 L 9.3378906 1041.8622 L 5.1464844 1046.0497 A 0.50005 0.50005 0 0 0 5.1464844 1046.7567 L 5.8535156 1047.4638 A 0.50005 0.50005 0 0 0 6.5605469 1047.4638 C 6.5605469 1047.4638 7.1663757 1046.8582 7.5273438 1046.497 A 0.50005 0.50005 0 0 0 7.5566406 1046.4677 A 0.50005 0.50005 0 0 0 7.5585938 1046.4677 L 10 1044.0302 L 10 1049.8622 A 0.50005 0.50005 0 0 0 10.5 1050.3622 L 11.5 1050.3622 A 0.50005 0.50005 0 0 0 11.853516 1050.2157 L 13.007812 1049.0614 C 13.078924 1048.6489 13.2888 1048.2389 13.611328 1047.9286 L 14.177734 1047.3622 L 13.607422 1046.7899 C 13.399126 1046.5871 13.247056 1046.348 13.148438 1046.0946 L 12 1047.2431 L 12 1044.4852 L 13.015625 1045.5009 C 12.992795 1045.1915 13.0388 1044.8832 13.150391 1044.6083 C 13.308241 1044.2194 13.607151 1043.8733 13.990234 1043.6454 L 12.207031 1041.8622 L 15.853516 1038.2157 A 0.50005 0.50005 0 0 0 15.853516 1037.5087 L 11.853516 1033.5087 A 0.50005 0.50005 0 0 0 11.5 1033.3622 L 10.498047 1033.3622 z M 12 1036.4852 L 13.378906 1037.8642 L 12 1039.2431 L 12 1036.4852 z " />
    <path
       id="path4635"
       d="m 14.999463,1044.363 a 0.99529056,0.99600035 0 0 0 -0.693912,1.7098 l 1.286751,1.2877 -1.286751,1.2876 a 0.99529056,0.99600035 0 1 0 1.407262,1.4083 l 1.286751,-1.2877 1.286751,1.2877 a 0.99529056,0.99600035 0 1 0 1.407262,-1.4083 l -1.28675,-1.2876 1.28675,-1.2877 a 0.99529056,0.99600035 0 0 0 -0.723068,-1.7098 0.99529056,0.99600035 0 0 0 -0.684194,0.3015 l -1.286751,1.2877 -1.286751,-1.2877 a 0.99529056,0.99600035 0 0 0 -0.71335,-0.3015 z"
       style="color:#000000;font-style:normal;font-variant:normal;font-weight:normal;font-stretch:normal;font-size:medium;line-height:normal;font-family:sans-serif;text-indent:0;text-align:start;text-decoration:none;text-decoration-line:none;text-decoration-style:solid;text-decoration-color:#000000;letter-spacing:normal;word-spacing:normal;text-transform:none;writing-mode:lr-tb;direction:ltr;baseline-shift:baseline;text-anchor:start;white-space:normal;clip-rule:nonzero;display:inline;overflow:visible;visibility:visible;isolation:auto;mix-blend-mode:normal;color-interpolation:sRGB;color-interpolation-filters:linearRGB;solid-color:#000000;solid-opacity:1;fill:#fafafa;fill-opacity:1;fill-rule:evenodd;stroke:none;stroke-width:1.99109;stroke-linecap:round;stroke-linejoin:round;stroke-miterlimit:4;stroke-dasharray:none;stroke-dashoffset:0;stroke-opacity:1;color-rendering:auto;image-rendering:auto;shape-rendering:auto;text-rendering:auto;enable-background:accumulate"
       inkscape:connector-curvature="0" />
  </g>
</svg>
