<?xml version="1.0" encoding="UTF-8" standalone="no"?>
<svg
   width="22"
   height="22"
   viewBox="0 0 22 22"
   id="svg2"
   version="1.1"
   inkscape:version="1.4 (e7c3feb100, 2024-10-09)"
   sodipodi:docname="microphone-sensitivity-low-symbolic.svg"
   xmlns:inkscape="http://www.inkscape.org/namespaces/inkscape"
   xmlns:sodipodi="http://sodipodi.sourceforge.net/DTD/sodipodi-0.dtd"
   xmlns="http://www.w3.org/2000/svg"
   xmlns:svg="http://www.w3.org/2000/svg"
   xmlns:rdf="http://www.w3.org/1999/02/22-rdf-syntax-ns#"
   xmlns:cc="http://creativecommons.org/ns#"
   xmlns:dc="http://purl.org/dc/elements/1.1/">
  <defs
     id="defs3051">
    <style
       type="text/css"
       id="current-color-scheme">
    .ColorScheme-Text {
    color:#f5f5f5;
    }
    </style>
  </defs>
  <sodipodi:namedview
     id="base"
     pagecolor="#ffffff"
     bordercolor="#666666"
     borderopacity="1.0"
     inkscape:pageopacity="0.0"
     inkscape:pageshadow="2"
     inkscape:zoom="11.313709"
     inkscape:cx="13.656"
     inkscape:cy="9.8111066"
     inkscape:document-units="px"
     inkscape:current-layer="layer1"
     showgrid="true"
     units="px"
     inkscape:showpageshadow="false"
     borderlayer="true"
     showguides="true"
     inkscape:guide-bbox="true"
     inkscape:window-width="1354"
     inkscape:window-height="732"
     inkscape:window-x="0"
     inkscape:window-y="0"
     inkscape:window-maximized="1"
     inkscape:document-rotation="0"
     inkscape:pagecheckerboard="0"
     inkscape:deskcolor="#d1d1d1">
    <inkscape:grid
       type="xygrid"
       id="grid4136"
       empspacing="2"
       originx="0"
       originy="0"
       spacingy="1"
       spacingx="1"
       units="px" />
    <sodipodi:guide
       position="0,20"
       orientation="0,1"
       id="guide4140"
       inkscape:label="Icon Max Height"
       inkscape:color="rgb(233,30,99)"
       inkscape:locked="false" />
    <sodipodi:guide
       position="0,2"
       orientation="0,1"
       id="guide4142"
       inkscape:label="Icon Baseline"
       inkscape:color="rgb(233,30,99)"
       inkscape:locked="false" />
    <sodipodi:guide
       position="11,0"
       orientation="1,0"
       id="guide4144"
       inkscape:label="Center Vertical"
       inkscape:color="rgb(221,44,0)"
       inkscape:locked="false" />
    <sodipodi:guide
       position="15,11"
       orientation="0,1"
       id="guide4146"
       inkscape:label="Center Horizontal"
       inkscape:color="rgb(221,44,0)"
       inkscape:locked="false" />
  </sodipodi:namedview>
  <metadata
     id="metadata7">
    <rdf:RDF>
      <cc:Work
         rdf:about="">
        <dc:format>image/svg+xml</dc:format>
        <dc:type
           rdf:resource="http://purl.org/dc/dcmitype/StillImage" />
      </cc:Work>
    </rdf:RDF>
  </metadata>
  <g
     inkscape:label="Capa 1"
     inkscape:groupmode="layer"
     id="layer1"
     transform="translate(0,-1030.3622)">
    <path
       id="path1-6"
       style="color:#f5f5f5;fill:currentColor;fill-opacity:1;stroke:none"
       class="ColorScheme-Text"
       d="m 15.255944,1035.1077 c 0.06139,0.061 0.117426,0.1249 0.169889,0.192 -0.05217,-0.067 -0.108957,-0.1311 -0.169889,-0.192 z m 0,0 c -0.0614,-0.061 -0.126352,-0.1187 -0.193332,-0.1713 0.06704,0.052 0.131936,0.1099 0.193332,0.1713 z m -0.193332,-0.1713 c -0.06335,-0.05 -0.128348,-0.094 -0.196134,-0.1353 0.0673,0.041 0.133293,0.086 0.196134,0.1353 z m 0.364602,0.3646 c 0.05207,0.066 0.100278,0.1358 0.143647,0.2072 -0.04366,-0.072 -0.09112,-0.1402 -0.143647,-0.2072 z m 0.143647,0.2072 c 0.04366,0.072 0.08248,0.1461 0.117404,0.2223 -0.03474,-0.076 -0.0741,-0.1509 -0.117404,-0.2223 z m -0.7292,-0.7237 c -0.06771,-0.04 -0.138505,-0.078 -0.209913,-0.1105 0.07196,0.033 0.14176,0.07 0.209913,0.1105 z m -0.209913,-0.1105 c -0.06085,-0.028 -0.123232,-0.051 -0.18646,-0.073 0.06319,0.022 0.125569,0.045 0.18646,0.073 z m 1.057898,1.0579 c 0.03109,0.068 0.0573,0.1376 0.08144,0.2086 -0.02415,-0.071 -0.05042,-0.1407 -0.08144,-0.2086 z m -1.332735,-1.1615 c -0.06707,-0.021 -0.133913,-0.039 -0.203039,-0.054 0.06888,0.015 0.136157,0.033 0.203039,0.054 z m -0.203039,-0.054 c -0.08295,-0.018 -0.167388,-0.031 -0.252742,-0.04 0.08533,0.01 0.169823,0.022 0.252742,0.04 z m -0.252742,-0.04 c -0.08528,-0.01 -0.172585,-0.013 -0.259621,-0.014 0.08702,5e-4 0.174292,0 0.259621,0.014 z m -0.259621,-0.014 c -0.08704,-5e-4 -0.174294,0 -0.262432,0.011 0.08814,-0.01 0.175411,-0.012 0.262432,-0.011 z m 2.245601,2.0053 c 0.0085,0.083 0.01203,0.1681 0.01244,0.2528 -4.19e-4,-0.086 -0.0038,-0.1689 -0.01244,-0.2528 z m 0.01244,0.2528 c 4.55e-4,0.087 -0.003,0.1743 -0.01108,0.2624 0.0081,-0.088 0.01152,-0.1754 0.01108,-0.2624 z m -0.01108,0.2624 c -0.0069,0.076 -0.01858,0.1517 -0.03177,0.2279 0.01309,-0.076 0.0249,-0.1526 0.03177,-0.2279 z m -2.510781,-2.5108 c -0.08815,0.01 -0.17656,0.02 -0.265172,0.036 0.08861,-0.016 0.177018,-0.028 0.265172,-0.036 z m -0.265172,0.036 c -0.08854,0.016 -0.178174,0.037 -0.26653,0.062 0.08835,-0.025 0.177995,-0.046 0.26653,-0.062 z m -0.26653,0.062 c -0.08836,0.025 -0.176293,0.054 -0.263751,0.087 0.08752,-0.033 0.175405,-0.062 0.263751,-0.087 z m -0.263751,0.087 c -0.08753,0.033 -0.173639,0.069 -0.259628,0.1105 0.08544,-0.041 0.172639,-0.078 0.259628,-0.1105 z m 3.259316,2.6351 c -0.01486,0.074 -0.03046,0.1487 -0.05113,0.2224 0.02083,-0.074 0.03615,-0.1481 0.05113,-0.2224 z m -0.05113,0.2224 c -0.02479,0.088 -0.05387,0.1762 -0.08697,0.2638 0.03312,-0.088 0.06217,-0.1755 0.08697,-0.2638 z m -0.08697,0.2638 c -0.0331,0.088 -0.07053,0.1749 -0.111886,0.261 0.04137,-0.086 0.07877,-0.1735 0.111886,-0.261 z m -3.382255,-3.0094 c -0.08546,0.041 -0.170782,0.086 -0.254123,0.1354 0.08386,-0.05 0.168078,-0.094 0.254123,-0.1354 z m -0.254123,0.1354 c -0.08388,0.049 -0.166115,0.104 -0.247238,0.1616 0.08118,-0.058 0.163374,-0.1121 0.247238,-0.1616 z m -0.247238,0.1616 c -0.08105,0.057 -0.159797,0.1194 -0.237523,0.185 0.07722,-0.065 0.156981,-0.1278 0.237523,-0.185 z m 3.625352,3.2441 c -0.04397,0.074 -0.09203,0.1454 -0.142245,0.2168 0.05019,-0.071 0.0983,-0.1433 0.142245,-0.2168 z m -0.162992,0.2458 c -0.04002,0.056 -0.08318,0.1116 -0.127036,0.1657 0.04424,-0.055 0.08667,-0.1094 0.127036,-0.1657 z m -3.701227,-3.3035 c -0.07723,0.065 -0.153345,0.134 -0.226537,0.2072 0.07369,-0.074 0.148817,-0.1415 0.226537,-0.2072 z m 3.477472,3.5825 c -0.0513,0.058 -0.102838,0.1167 -0.15877,0.1726 0.05572,-0.056 0.10765,-0.1145 0.15877,-0.1726 z m -7.2326176,-2.6807 -1.4349315,1.435 -1.0648321,1.0648 c -1.7681712,1.7679 -1.7680053,4.6149 5.08e-5,6.3832 1.2693134,1.2692 3.0906578,1.611 4.6735048,1.058 l 1.2e-5,2.2677 h -1.999814 c -0.553932,0 -0.99975,0.4459 -0.999849,0.9998 7.4e-5,0.5541 0.446117,1 0.999894,0.9999 h 5.9993666 c 0.553999,-10e-5 1.00129,-0.4473 1.001264,-1.0012 2.2e-5,-0.5541 -0.445852,-1 -0.999893,-0.9999 h -2.001157 l 5e-6,-2.9996 0.0014,-0.6174 0.773363,-0.7733 1.434931,-1.435 -1.419738,-1.4197 -0.726411,0.7264 -3.5465816,-3.5466 0.726411,-0.7264 z m -0.726439,3.5632 3.5452006,3.5452 c -1.1786786,1.1788 -2.9178546,1.3388 -3.9001596,0.3563 -0.9823122,-0.9821 -0.8236061,-2.7229 0.354959,-3.9015 z" />
    <path
       id="rect852-7"
       style="color:#f5f5f5;fill:#f5f5f5;fill-opacity:0.301961;stroke:none"
       class="ColorScheme-Text"
       d="m 16.67433,1033.6893 c -0.8841,-0.8841 -2.037965,-1.3272 -3.191677,-1.3271 -1.153759,-10e-5 -2.307541,0.4432 -3.191639,1.3271 l -2.4651866,2.4652 1.416976,1.417 2.1116326,-2.1116 c 0.589356,-0.5893 1.318024,-0.9234 2.02326,-0.9875 h 0.0014 c 0.704893,-0.064 1.385625,0.1428 1.876867,0.6339 0.982155,0.9825 0.822541,2.7213 -0.356269,3.9001 l -2.11029,2.1103 1.419738,1.4197 2.465187,-2.4652 c 1.768006,-1.7682 1.768122,-4.6152 2e-5,-6.3833 z" />
  </g>
</svg>
