<?xml version="1.0" encoding="UTF-8" standalone="no"?>
<svg
   width="22"
   height="22"
   viewBox="0 0 22 22"
   id="svg2"
   version="1.1"
   inkscape:version="1.4 (e7c3feb100, 2024-10-09)"
   sodipodi:docname="microphone-sensitivity-medium-symbolic.svg"
   xmlns:inkscape="http://www.inkscape.org/namespaces/inkscape"
   xmlns:sodipodi="http://sodipodi.sourceforge.net/DTD/sodipodi-0.dtd"
   xmlns="http://www.w3.org/2000/svg"
   xmlns:svg="http://www.w3.org/2000/svg"
   xmlns:rdf="http://www.w3.org/1999/02/22-rdf-syntax-ns#"
   xmlns:cc="http://creativecommons.org/ns#"
   xmlns:dc="http://purl.org/dc/elements/1.1/">
  <defs
     id="defs3051">
    <style
       type="text/css"
       id="current-color-scheme">
    .ColorScheme-Text {
    color:#f5f5f5;
    }
    </style>
  </defs>
  <sodipodi:namedview
     id="base"
     pagecolor="#ffffff"
     bordercolor="#666666"
     borderopacity="1.0"
     inkscape:pageopacity="0.0"
     inkscape:pageshadow="2"
     inkscape:zoom="22.627417"
     inkscape:cx="10.054175"
     inkscape:cy="11.711456"
     inkscape:document-units="px"
     inkscape:current-layer="layer1"
     showgrid="true"
     units="px"
     inkscape:showpageshadow="false"
     borderlayer="true"
     showguides="true"
     inkscape:guide-bbox="true"
     inkscape:window-width="1354"
     inkscape:window-height="732"
     inkscape:window-x="0"
     inkscape:window-y="0"
     inkscape:window-maximized="1"
     inkscape:document-rotation="0"
     inkscape:pagecheckerboard="0"
     inkscape:deskcolor="#d1d1d1">
    <inkscape:grid
       type="xygrid"
       id="grid4136"
       empspacing="2"
       originx="0"
       originy="0"
       spacingy="1"
       spacingx="1"
       units="px" />
    <sodipodi:guide
       position="0,20"
       orientation="0,1"
       id="guide4140"
       inkscape:label="Icon Max Height"
       inkscape:color="rgb(233,30,99)"
       inkscape:locked="false" />
    <sodipodi:guide
       position="0,2"
       orientation="0,1"
       id="guide4142"
       inkscape:label="Icon Baseline"
       inkscape:color="rgb(233,30,99)"
       inkscape:locked="false" />
    <sodipodi:guide
       position="11,0"
       orientation="1,0"
       id="guide4144"
       inkscape:label="Center Vertical"
       inkscape:color="rgb(221,44,0)"
       inkscape:locked="false" />
    <sodipodi:guide
       position="15,11"
       orientation="0,1"
       id="guide4146"
       inkscape:label="Center Horizontal"
       inkscape:color="rgb(221,44,0)"
       inkscape:locked="false" />
  </sodipodi:namedview>
  <metadata
     id="metadata7">
    <rdf:RDF>
      <cc:Work
         rdf:about="">
        <dc:format>image/svg+xml</dc:format>
        <dc:type
           rdf:resource="http://purl.org/dc/dcmitype/StillImage" />
      </cc:Work>
    </rdf:RDF>
  </metadata>
  <g
     inkscape:label="Capa 1"
     inkscape:groupmode="layer"
     id="layer1"
     transform="translate(0,-1030.3622)">
    <path
       id="rect852-3"
       style="color:#f5f5f5;fill:currentColor;fill-opacity:1;stroke:none"
       class="ColorScheme-Text"
       d="M 12.650391 1032.4423 C 12.632177 1032.4457 12.613882 1032.4484 12.595703 1032.452 C 12.613854 1032.4484 12.632205 1032.4457 12.650391 1032.4423 z M 11.822266 1032.6806 C 11.790077 1032.6933 11.758514 1032.708 11.726562 1032.7216 C 11.758288 1032.7081 11.790306 1032.6933 11.822266 1032.6806 z M 11.421875 1032.8642 C 11.40088 1032.875 11.380236 1032.8862 11.359375 1032.8974 C 11.380173 1032.8862 11.400944 1032.875 11.421875 1032.8642 z M 11.095703 1033.0517 C 10.810547 1033.2303 10.539564 1033.4399 10.291016 1033.6884 L 6.390625 1037.5888 L 5.3261719 1038.6532 C 3.5580007 1040.4211 3.5581157 1043.2676 5.3261719 1045.036 C 6.595485 1046.3051 8.4171528 1046.6476 10 1046.0946 L 10 1048.3622 L 8 1048.3622 C 7.4460681 1048.3623 7.0000983 1048.8082 7 1049.3622 C 7.0000735 1049.9162 7.4462229 1050.3623 8 1050.3622 L 14 1050.3622 C 14.553999 1050.3621 15.000026 1049.9162 15 1049.3622 C 15.000022 1048.8082 14.554041 1048.3622 14 1048.3622 L 12 1048.3622 L 12 1045.3622 L 12 1044.745 L 12.773438 1043.9716 L 16.673828 1040.0712 C 16.796813 1039.9482 16.90975 1039.8191 17.015625 1039.6864 L 15.513672 1038.1845 C 15.355936 1038.4755 15.15293 1038.7542 14.900391 1039.0067 L 12.0625 1041.8446 L 8.5175781 1038.2977 L 11.353516 1035.4599 C 11.634174 1035.1793 11.947089 1034.9593 12.273438 1034.7958 C 12.240075 1034.8125 12.206877 1034.8286 12.173828 1034.8466 L 10.675781 1033.3485 C 10.81124 1033.2404 10.95171 1033.1421 11.095703 1033.0517 z M 17.015625 1039.6864 C 17.104277 1039.5753 17.187016 1039.4616 17.263672 1039.3446 C 17.187106 1039.4614 17.104131 1039.5755 17.015625 1039.6864 z M 16.505859 1033.5282 C 16.563157 1033.58 16.618572 1033.6351 16.673828 1033.6903 C 16.673492 1033.69 16.674164 1033.6887 16.673828 1033.6884 C 16.618572 1033.6331 16.563155 1033.58 16.505859 1033.5282 z M 13.642578 1034.4618 C 13.555544 1034.4613 13.467018 1034.4636 13.378906 1034.4716 L 13.378906 1034.4735 C 13.731353 1034.4415 14.078734 1034.4781 14.398438 1034.5829 C 14.157973 1034.5036 13.904538 1034.4633 13.642578 1034.4618 z M 14.398438 1034.5829 C 14.47756 1034.6088 14.555322 1034.6383 14.630859 1034.6727 C 14.555348 1034.6381 14.477541 1034.609 14.398438 1034.5829 z M 13.376953 1034.4716 C 13.308407 1034.4778 13.240728 1034.4895 13.171875 1034.5009 C 13.240261 1034.4897 13.308863 1034.4778 13.376953 1034.4716 z M 13.074219 1034.5165 C 13.01187 1034.529 12.948966 1034.5447 12.886719 1034.5614 C 12.949206 1034.5448 13.011627 1034.5289 13.074219 1034.5165 z M 12.800781 1034.5849 C 12.750464 1034.5999 12.70044 1034.6159 12.650391 1034.6337 C 12.700447 1034.616 12.750457 1034.5998 12.800781 1034.5849 z M 14.632812 1034.6747 C 14.700337 1034.7056 14.765901 1034.7404 14.830078 1034.7782 C 14.766178 1034.7405 14.700038 1034.7056 14.632812 1034.6747 z M 12.523438 1034.6825 C 12.470578 1034.7038 12.417538 1034.7266 12.365234 1034.7509 C 12.417723 1034.7266 12.47039 1034.7038 12.523438 1034.6825 z M 14.875 1034.8056 C 14.939764 1034.8459 15.001823 1034.8889 15.0625 1034.9364 C 15.002196 1034.8891 14.939341 1034.8457 14.875 1034.8056 z M 15.0625 1034.9364 C 15.129504 1034.9889 15.194454 1035.045 15.255859 1035.1063 C 15.194454 1035.045 15.129504 1034.9889 15.0625 1034.9364 z M 15.255859 1035.1063 C 15.314265 1035.1648 15.367608 1035.2264 15.417969 1035.2899 C 15.367667 1035.2265 15.314209 1035.1647 15.255859 1035.1063 z M 15.441406 1035.3231 C 15.480402 1035.3743 15.516843 1035.4274 15.550781 1035.4813 C 15.516687 1035.427 15.48063 1035.3746 15.441406 1035.3231 z M 15.583984 1035.5341 C 15.613511 1035.5842 15.640688 1035.6362 15.666016 1035.6884 C 15.64068 1035.636 15.613557 1035.5844 15.583984 1035.5341 z M 15.695312 1035.7489 C 15.713925 1035.7905 15.730054 1035.8332 15.746094 1035.8759 C 15.730146 1035.8333 15.713826 1035.7904 15.695312 1035.7489 z M 15.800781 1036.038 C 15.815497 1036.0883 15.82848 1036.1388 15.839844 1036.1903 C 15.828562 1036.1389 15.815411 1036.0883 15.800781 1036.038 z M 15.851562 1036.247 C 15.860901 1036.2948 15.868488 1036.3429 15.875 1036.3915 C 15.868547 1036.3429 15.860845 1036.2947 15.851562 1036.247 z M 17.976562 1036.4384 C 17.978227 1036.4554 17.978998 1036.4721 17.980469 1036.4892 C 17.978993 1036.4722 17.97823 1036.4553 17.976562 1036.4384 z M 17.998047 1036.8407 C 17.998301 1036.8733 17.998497 1036.9058 17.998047 1036.9384 C 17.998467 1036.9059 17.998329 1036.8732 17.998047 1036.8407 z M 17.980469 1037.2802 C 17.978074 1037.3068 17.973573 1037.3336 17.970703 1037.3602 C 17.973562 1037.3335 17.97809 1037.307 17.980469 1037.2802 z M 15.832031 1037.3368 C 15.826661 1037.3616 15.820476 1037.3863 15.814453 1037.411 C 15.820488 1037.3863 15.826646 1037.3615 15.832031 1037.3368 z M 17.921875 1037.7001 C 17.916397 1037.7296 17.910368 1037.7586 17.904297 1037.788 C 17.91032 1037.7587 17.916442 1037.7295 17.921875 1037.7001 z M 17.824219 1038.1161 C 17.816021 1038.1448 17.807606 1038.1735 17.798828 1038.202 C 17.807606 1038.1734 17.816025 1038.1449 17.824219 1038.1161 z M 17.693359 1038.5028 C 17.678939 1038.5401 17.665838 1038.5772 17.650391 1038.6142 C 17.665805 1038.5772 17.678972 1038.54 17.693359 1038.5028 z M 17.53125 1038.87 C 17.49686 1038.9396 17.462029 1039.0089 17.423828 1039.077 C 17.462004 1039.0089 17.49689 1038.9396 17.53125 1038.87 z M 7.0996094 1039.7177 L 10.644531 1043.2626 C 9.4658525 1044.4414 7.7264457 1044.6006 6.7441406 1043.6181 C 5.7618283 1042.636 5.9210445 1040.8964 7.0996094 1039.7177 z " />
    <path
       id="path1"
       style="color:#f5f5f5;fill:#f5f5f5;fill-opacity:0.3019608;stroke:none"
       class="ColorScheme-Text"
       d="m 16.67402,1033.6894 c -0.8841,-0.8841 -2.037965,-1.3272 -3.191677,-1.3272 -0.993235,0 -1.985153,0.3309 -2.806301,0.9861 l 1.498458,1.4984 c 0.388323,-0.2107 0.799577,-0.3376 1.202886,-0.3742 l 0.0014,0 c 0.704893,-0.064 1.385625,0.1428 1.876867,0.6339 0.771956,0.7721 0.837253,2.0107 0.258289,3.0783 l 1.50122,1.5013 c 1.416103,-1.7751 1.303978,-4.3529 -0.341124,-5.998 z" />
  </g>
</svg>
