<?xml version="1.0" encoding="UTF-8" standalone="no"?>
<svg
   width="22"
   height="22"
   viewBox="0 0 22 22"
   id="svg2"
   version="1.1"
   inkscape:version="1.4 (e7c3feb100, 2024-10-09)"
   sodipodi:docname="microphone-sensitivity-low-symbolic.svg"
   xmlns:inkscape="http://www.inkscape.org/namespaces/inkscape"
   xmlns:sodipodi="http://sodipodi.sourceforge.net/DTD/sodipodi-0.dtd"
   xmlns="http://www.w3.org/2000/svg"
   xmlns:svg="http://www.w3.org/2000/svg"
   xmlns:rdf="http://www.w3.org/1999/02/22-rdf-syntax-ns#"
   xmlns:cc="http://creativecommons.org/ns#"
   xmlns:dc="http://purl.org/dc/elements/1.1/">
  <defs
     id="defs3051">
    <style
       type="text/css"
       id="current-color-scheme">
    .ColorScheme-Text {
    color:#f5f5f5;
    }
    </style>
  </defs>
  <sodipodi:namedview
     id="base"
     pagecolor="#ffffff"
     bordercolor="#666666"
     borderopacity="1.0"
     inkscape:pageopacity="0.0"
     inkscape:pageshadow="2"
     inkscape:zoom="16.000001"
     inkscape:cx="11.28125"
     inkscape:cy="7.3124997"
     inkscape:document-units="px"
     inkscape:current-layer="layer1"
     showgrid="true"
     units="px"
     inkscape:showpageshadow="false"
     borderlayer="true"
     showguides="true"
     inkscape:guide-bbox="true"
     inkscape:window-width="1354"
     inkscape:window-height="732"
     inkscape:window-x="0"
     inkscape:window-y="0"
     inkscape:window-maximized="1"
     inkscape:document-rotation="0"
     inkscape:pagecheckerboard="0"
     inkscape:deskcolor="#d1d1d1">
    <inkscape:grid
       type="xygrid"
       id="grid4136"
       empspacing="2"
       originx="0"
       originy="0"
       spacingy="1"
       spacingx="1"
       units="px" />
    <sodipodi:guide
       position="0,20"
       orientation="0,1"
       id="guide4140"
       inkscape:label="Icon Max Height"
       inkscape:color="rgb(233,30,99)"
       inkscape:locked="false" />
    <sodipodi:guide
       position="0,2"
       orientation="0,1"
       id="guide4142"
       inkscape:label="Icon Baseline"
       inkscape:color="rgb(233,30,99)"
       inkscape:locked="false" />
    <sodipodi:guide
       position="11,0"
       orientation="1,0"
       id="guide4144"
       inkscape:label="Center Vertical"
       inkscape:color="rgb(221,44,0)"
       inkscape:locked="false" />
    <sodipodi:guide
       position="15,11"
       orientation="0,1"
       id="guide4146"
       inkscape:label="Center Horizontal"
       inkscape:color="rgb(221,44,0)"
       inkscape:locked="false" />
  </sodipodi:namedview>
  <metadata
     id="metadata7">
    <rdf:RDF>
      <cc:Work
         rdf:about="">
        <dc:format>image/svg+xml</dc:format>
        <dc:type
           rdf:resource="http://purl.org/dc/dcmitype/StillImage" />
      </cc:Work>
    </rdf:RDF>
  </metadata>
  <g
     inkscape:label="Capa 1"
     inkscape:groupmode="layer"
     id="layer1"
     transform="translate(0,-1030.3622)">
    <path
       id="path1"
       style="color:#f5f5f5;fill:currentColor;fill-opacity:1;stroke:none"
       class="ColorScheme-Text"
       d="m 15.25594,1035.1078 c 0.06139,0.061 0.114102,0.1282 0.169606,0.1922 -0.05224,-0.066 -0.108674,-0.1313 -0.169606,-0.1922 z m 0,0 c -0.06139,-0.061 -0.129611,-0.1155 -0.193615,-0.171 0.06682,0.053 0.132224,0.1096 0.193615,0.171 z m -0.193615,-0.171 c -0.06355,-0.049 -0.128635,-0.093 -0.196134,-0.1353 0.06708,0.042 0.133014,0.086 0.196134,0.1353 z m 0.364602,0.3646 c 0.05221,0.066 0.100348,0.1357 0.143576,0.2072 -0.04366,-0.072 -0.09091,-0.1404 -0.143576,-0.2072 z m 0.143576,0.2072 c 0.04366,0.072 0.08247,0.1461 0.117545,0.2222 -0.03467,-0.076 -0.07431,-0.1507 -0.117545,-0.2222 z m -0.726442,-0.7264 c -0.06749,-0.041 -0.138508,-0.078 -0.209701,-0.1107 0.07224,0.033 0.141834,0.07 0.209701,0.1107 z m -0.209701,-0.1107 c -0.07612,-0.035 -0.155123,-0.065 -0.234808,-0.091 0.07994,0.026 0.158293,0.056 0.234808,0.091 z m -0.234808,-0.091 c -0.07997,-0.026 -0.160257,-0.049 -0.243068,-0.066 0.08278,0.018 0.163132,0.04 0.243068,0.066 z m -0.243068,-0.066 c -0.08281,-0.018 -0.167101,-0.031 -0.252742,-0.04 0.08533,0.01 0.16982,0.023 0.252742,0.04 z m -0.252742,-0.04 c -0.08536,-0.01 -0.172577,-0.013 -0.259621,-0.014 0.08689,6e-4 0.174287,0 0.259621,0.014 z m 1.788516,1.2554 c 0.03116,0.068 0.05716,0.1377 0.08137,0.2086 -0.02415,-0.071 -0.05028,-0.1408 -0.08137,-0.2086 z m 0.09804,0.2582 c 0.02239,0.072 0.04369,0.1455 0.05937,0.2196 -0.01557,-0.075 -0.03676,-0.147 -0.05937,-0.2196 z m 0.05937,0.2196 c 0.01771,0.083 0.03,0.1658 0.03866,0.2514 -0.0087,-0.085 -0.0212,-0.169 -0.03866,-0.2514 z m 0.04005,0.2528 c 0.0087,0.085 0.01202,0.1717 0.01245,0.2582 -5.81e-4,-0.087 -0.0034,-0.173 -0.01245,-0.2582 z m -3.03835,-1.8893 c -0.353349,0.099 -0.703032,0.264 -1.027534,0.4944 0.324511,-0.2306 0.674176,-0.3952 1.027534,-0.4944 z m -1.027534,0.4944 c -0.08105,0.057 -0.159797,0.1194 -0.237524,0.1851 0.07722,-0.065 0.156984,-0.1279 0.237524,-0.1851 z m 3.473385,3.4734 c -0.04457,0.063 -0.09377,0.1266 -0.143578,0.1878 0.05014,-0.062 0.0983,-0.124 0.143578,-0.1878 z m -3.712253,-3.287 c -0.07723,0.065 -0.153346,0.134 -0.226537,0.2072 0.07369,-0.074 0.148818,-0.1415 0.226537,-0.2072 z m 3.477717,3.5795 c -0.05161,0.059 -0.102488,0.1163 -0.158837,0.1727 0.05586,-0.056 0.107466,-0.1143 0.158837,-0.1727 z m -7.9439666,-1.9693 -0.727825,0.7278 -1.0648322,1.0649 c -1.7680647,1.768 -1.7680433,4.615 5.09e-5,6.3832 1.2692898,1.2693 3.0905589,1.611 4.6735051,1.0579 l 1.12e-5,2.2677 -1.999813,10e-5 c -0.5539736,-10e-5 -0.9998044,0.4458 -0.999849,0.9998 2.62e-5,0.554 0.4459193,0.9999 0.9998933,0.9999 l 5.9993673,0 c 0.553975,0 1.00122,-0.4472 1.001263,-1.0013 -2.6e-5,-0.5539 -0.445919,-0.9998 -0.999892,-0.9999 l -2.001157,0 0.0013,-3.001 3.8e-5,-0.616 0.773362,-0.7734 0.727825,-0.7278 -1.418356,-1.4184 -0.01909,0.019 -3.5465827,-3.5466 0.019092,-0.019 z m -0.019333,2.856 3.5452014,3.5452 c -1.1787738,1.1788 -2.9178836,1.3388 -3.9001601,0.3564 -0.9823181,-0.9822 -0.8237445,-2.7229 0.3549587,-3.9016 z" />
    <path
       id="rect852"
       style="color:#f5f5f5;fill:#f5f5f5;fill-opacity:0.301961;stroke:none"
       class="ColorScheme-Text"
       d="m 16.674325,1033.6894 c -0.884082,-0.8841 -2.037942,-1.3272 -3.191676,-1.3272 -1.153735,0 -2.307561,0.4431 -3.191639,1.3272 l -3.1722936,3.1723 1.4183567,1.4184 2.8187399,-2.8188 c 0.589341,-0.5892 1.318179,-0.9233 2.02326,-0.9874 0.70506,-0.064 1.385743,0.1427 1.876867,0.6339 0.982297,0.9823 0.823798,2.7199 -0.354926,3.8987 l -2.817361,2.8201 1.418357,1.4184 3.172293,-3.1723 c 1.768136,-1.7681 1.768114,-4.6151 2e-5,-6.3833 z" />
  </g>
</svg>
