<?xml version="1.0" encoding="UTF-8" standalone="no"?>
<!-- Created with Inkscape (http://www.inkscape.org/) -->

<svg
   width="22"
   height="22"
   viewBox="0 0 5.8208332 5.8208333"
   version="1.1"
   id="svg1"
   inkscape:version="1.4 (e7c3feb100, 2024-10-09)"
   sodipodi:docname="network-wireless-encrypted-symbolic.svg"
   xmlns:inkscape="http://www.inkscape.org/namespaces/inkscape"
   xmlns:sodipodi="http://sodipodi.sourceforge.net/DTD/sodipodi-0.dtd"
   xmlns="http://www.w3.org/2000/svg"
   xmlns:svg="http://www.w3.org/2000/svg">
  <sodipodi:namedview
     id="namedview1"
     pagecolor="#ffffff"
     bordercolor="#000000"
     borderopacity="0.25"
     inkscape:showpageshadow="2"
     inkscape:pageopacity="0.0"
     inkscape:pagecheckerboard="0"
     inkscape:deskcolor="#d1d1d1"
     inkscape:document-units="mm"
     showgrid="true"
     inkscape:zoom="16.970563"
     inkscape:cx="4.2721035"
     inkscape:cy="7.0121422"
     inkscape:window-width="1354"
     inkscape:window-height="732"
     inkscape:window-x="0"
     inkscape:window-y="0"
     inkscape:window-maximized="1"
     inkscape:current-layer="layer1">
    <inkscape:grid
       id="grid1"
       units="px"
       originx="0"
       originy="0"
       spacingx="0.26458333"
       spacingy="0.26458333"
       empcolor="#0099e5"
       empopacity="0.30196078"
       color="#0099e5"
       opacity="0.14901961"
       empspacing="5"
       dotted="false"
       gridanglex="30"
       gridanglez="30"
       visible="true" />
  </sodipodi:namedview>
  <defs
     id="defs1" />
  <g
     inkscape:label="Capa 1"
     inkscape:groupmode="layer"
     id="layer1">
    <path
       id="rect1"
       style="fill:#f5f5f5;fill-opacity:1;stroke-width:0.529166;stroke-linecap:square"
       d="M 2.9104167 0.52916667 A 1.3229167 1.3229167 0 0 0 1.5875 1.8520833 L 1.5875 2.6458333 C 1.4409209 2.6458333 1.3229167 2.7638375 1.3229167 2.9104167 L 1.3229167 5.0270833 C 1.3229167 5.1736625 1.4409209 5.2916667 1.5875 5.2916667 L 4.2333333 5.2916667 C 4.3799125 5.2916667 4.4979167 5.1736625 4.4979167 5.0270833 L 4.4979167 2.9104167 C 4.4979167 2.7638375 4.3799125 2.6458333 4.2333333 2.6458333 L 4.2333333 1.8520833 A 1.3229167 1.3229167 0 0 0 2.9104167 0.52916667 z M 2.9104167 1.0583333 A 0.79374999 0.79374999 0 0 1 3.7041667 1.8520833 L 3.7041667 2.6458333 L 2.1166667 2.6458333 L 2.1166667 1.8520833 A 0.79374999 0.79374999 0 0 1 2.9104167 1.0583333 z M 2.9104167 3.175 A 0.5291667 0.5291667 0 0 1 3.4395833 3.7041667 A 0.5291667 0.5291667 0 0 1 3.175 4.1609863 L 3.175 4.4979167 C 3.175 4.6444959 3.0569958 4.7625 2.9104167 4.7625 C 2.7638375 4.7625 2.6458333 4.6444959 2.6458333 4.4979167 L 2.6458333 4.1609863 A 0.5291667 0.5291667 0 0 1 2.38125 3.7041667 A 0.5291667 0.5291667 0 0 1 2.9104167 3.175 z " />
  </g>
</svg>
