<?xml version="1.0" encoding="UTF-8" standalone="no"?>
<!-- Created with Inkscape (http://www.inkscape.org/) -->

<svg
   width="22"
   height="22"
   viewBox="0 0 5.8208332 5.8208333"
   version="1.1"
   id="svg1"
   inkscape:version="1.4 (e7c3feb100, 2024-10-09)"
   sodipodi:docname="network-wireless-offline-symbolic.svg"
   xmlns:inkscape="http://www.inkscape.org/namespaces/inkscape"
   xmlns:sodipodi="http://sodipodi.sourceforge.net/DTD/sodipodi-0.dtd"
   xmlns="http://www.w3.org/2000/svg"
   xmlns:svg="http://www.w3.org/2000/svg">
  <sodipodi:namedview
     id="namedview1"
     pagecolor="#5b5b5b"
     bordercolor="#000000"
     borderopacity="0.25"
     inkscape:showpageshadow="2"
     inkscape:pageopacity="0.0"
     inkscape:pagecheckerboard="0"
     inkscape:deskcolor="#d1d1d1"
     inkscape:document-units="mm"
     showgrid="true"
     inkscape:zoom="15.431818"
     inkscape:cx="10.9838"
     inkscape:cy="13.997054"
     inkscape:window-width="1354"
     inkscape:window-height="732"
     inkscape:window-x="0"
     inkscape:window-y="0"
     inkscape:window-maximized="1"
     inkscape:current-layer="layer1">
    <inkscape:grid
       id="grid1"
       units="px"
       originx="0"
       originy="0"
       spacingx="0.26458333"
       spacingy="0.26458333"
       empcolor="#0099e5"
       empopacity="0.30196078"
       color="#0099e5"
       opacity="0.14901961"
       empspacing="5"
       dotted="false"
       gridanglex="30"
       gridanglez="30"
       visible="true" />
  </sodipodi:namedview>
  <defs
     id="defs1" />
  <g
     inkscape:label="Capa 1"
     inkscape:groupmode="layer"
     id="layer1">
    <path
       style="color:#4d4d4d;fill:#f5f5f5;fill-opacity:0.3019608;stroke:none;stroke-width:0.264583"
       d="m 2.9138973,0.52632504 c -0.9768449,0 -1.95368625,0.27943624 -2.79259453,0.83870856 a 0.26460979,0.26460979 0 1 0 0.29352213,0.440283 c 1.4971834,-0.99812207 3.5009611,-0.99812207 4.9981445,0 A 0.26460979,0.26460979 0 1 0 5.7064918,1.3650336 C 4.8675835,0.80576128 3.8907421,0.52632504 2.9138973,0.52632504 Z"
       id="wireless-connected-60-100"
       inkscape:connector-curvature="0"
       class="ColorScheme-Text" />
    <path
       style="color:#4d4d4d;fill:#f5f5f5;fill-opacity:0.3019608;stroke:none;stroke-width:0.264583"
       d="m 2.9138769,1.7818063 c -0.7154333,0 -1.4307632,0.2171816 -2.01072986,0.6521566 A 0.26468673,0.26468673 0 0 0 1.2204404,2.8577095 c 0.9567333,-0.71755 2.4301399,-0.71755 3.3868733,0 A 0.26468668,0.26468668 0 1 0 4.9246067,2.4339629 C 4.3446401,1.9989879 3.6293102,1.7818063 2.9138769,1.7818063 Z"
       id="wireless-connected-60-75"
       inkscape:connector-curvature="0"
       class="ColorScheme-Text" />
    <path
       id="wireless-connected-60-50"
       style="color:#4d4d4d;fill:#f5f5f5;fill-opacity:0.3019608;stroke:none;stroke-width:0.264583"
       d="m 2.9138769,3.0427112 c -0.4556834,0 -0.9184621,0.1473822 -1.2454019,0.4743897 A 0.26460979,0.26460979 0 1 0 2.0426122,3.8912381 C 2.2448393,3.6889692 2.5758106,3.5718779 2.9138769,3.5718779 c 0.3380666,0 0.6690378,0.1170913 0.8712647,0.3193602 A 0.26460979,0.26460979 0 1 0 4.1592788,3.5171009 C 3.832339,3.1900934 3.3695603,3.0427112 2.9138769,3.0427112 Z"
       inkscape:connector-curvature="0"
       class="ColorScheme-Text" />
    <path
       id="wireless-connected-60-25"
       style="color:#4d4d4d;fill:#f5f5f5;fill-opacity:0.301961;stroke:none;stroke-width:0.264583"
       class="ColorScheme-Text"
       d="m 2.914034,4.2333333 c -0.2922506,1e-7 -0.5291666,0.2369161 -0.5291666,0.5291667 0,0.2922506 0.236916,0.5291666 0.5291666,0.5291667 0.2922507,0 0.5291667,-0.236916 0.5291667,-0.5291667 0,-0.2922507 -0.236916,-0.5291667 -0.5291667,-0.5291667 z"
       sodipodi:nodetypes="sssss" />
    <path
       id="path4635"
       d="M 4.4991683,4.2334483 A 0.26460979,0.26460979 0 0 0 4.3146836,4.6876842 l 0.342098,0.342098 -0.342098,0.3420981 a 0.26460979,0.26460979 0 1 0 0.3741372,0.3741372 l 0.342098,-0.342098 0.3420981,0.342098 A 0.26460979,0.26460979 0 1 0 5.7471541,5.3718803 L 5.4050563,5.0297822 5.7471541,4.6876842 A 0.26460979,0.26460979 0 0 0 5.5549179,4.2334483 0.26460979,0.26460979 0 0 0 5.3730169,4.313547 L 5.0309188,4.655645 4.6888208,4.313547 A 0.26460979,0.26460979 0 0 0 4.4991683,4.2334483 Z"
       style="color:#000000;font-style:normal;font-variant:normal;font-weight:normal;font-stretch:normal;font-size:medium;line-height:normal;font-family:sans-serif;text-indent:0;text-align:start;text-decoration:none;text-decoration-line:none;text-decoration-style:solid;text-decoration-color:#000000;letter-spacing:normal;word-spacing:normal;text-transform:none;writing-mode:lr-tb;direction:ltr;baseline-shift:baseline;text-anchor:start;white-space:normal;clip-rule:nonzero;display:inline;overflow:visible;visibility:visible;isolation:auto;mix-blend-mode:normal;color-interpolation:sRGB;color-interpolation-filters:linearRGB;solid-color:#000000;solid-opacity:1;fill:#fafafa;fill-opacity:1;fill-rule:evenodd;stroke:none;stroke-width:0.529167;stroke-linecap:round;stroke-linejoin:round;stroke-miterlimit:4;stroke-dasharray:none;stroke-dashoffset:0;stroke-opacity:1;color-rendering:auto;image-rendering:auto;shape-rendering:auto;text-rendering:auto;enable-background:accumulate"
       inkscape:connector-curvature="0" />
  </g>
</svg>
