<?xml version="1.0" encoding="UTF-8" standalone="no"?>
<!-- Created with Inkscape (http://www.inkscape.org/) -->

<svg
   width="22"
   height="22"
   viewBox="0 0 5.8208332 5.8208333"
   version="1.1"
   id="svg1"
   inkscape:version="1.4 (e7c3feb100, 2024-10-09)"
   sodipodi:docname="network-wireless-hardware-disabled-symbolic.svg"
   xmlns:inkscape="http://www.inkscape.org/namespaces/inkscape"
   xmlns:sodipodi="http://sodipodi.sourceforge.net/DTD/sodipodi-0.dtd"
   xmlns="http://www.w3.org/2000/svg"
   xmlns:svg="http://www.w3.org/2000/svg">
  <sodipodi:namedview
     id="namedview1"
     pagecolor="#5b5b5b"
     bordercolor="#000000"
     borderopacity="0.25"
     inkscape:showpageshadow="2"
     inkscape:pageopacity="0.0"
     inkscape:pagecheckerboard="0"
     inkscape:deskcolor="#d1d1d1"
     inkscape:document-units="mm"
     showgrid="true"
     inkscape:zoom="24"
     inkscape:cx="6.8125"
     inkscape:cy="5.6666667"
     inkscape:window-width="1354"
     inkscape:window-height="732"
     inkscape:window-x="0"
     inkscape:window-y="0"
     inkscape:window-maximized="1"
     inkscape:current-layer="layer1">
    <inkscape:grid
       id="grid1"
       units="px"
       originx="0"
       originy="0"
       spacingx="0.26458333"
       spacingy="0.26458333"
       empcolor="#0099e5"
       empopacity="0.30196078"
       color="#0099e5"
       opacity="0.14901961"
       empspacing="5"
       dotted="false"
       gridanglex="30"
       gridanglez="30"
       visible="true" />
  </sodipodi:namedview>
  <defs
     id="defs1" />
  <g
     inkscape:label="Capa 1"
     inkscape:groupmode="layer"
     id="layer1">
    <path
       class="ColorScheme-Text"
       inkscape:connector-curvature="0"
       id="wireless-20-100"
       d="m 2.913902,0.52632511 c -0.9768448,0 -1.9536862,0.27943624 -2.7925945,0.83870849 a 0.26460979,0.26460979 0 1 0 0.2935221,0.4402831 c 1.4971834,-0.9981221 3.5009596,-0.9981221 4.9981446,0 A 0.26460979,0.26460979 0 1 0 5.7064972,1.3650336 C 4.8675882,0.80576135 3.8907472,0.52632511 2.913902,0.52632511 Z"
       style="color:#4d4d4d;fill:#f5f5f5;fill-opacity:0.301961;stroke:none;stroke-width:0.264583" />
    <path
       id="wireless-20-75"
       style="color:#4d4d4d;fill:#f5f5f5;fill-opacity:0.301961;stroke:none;stroke-width:0.264583"
       class="ColorScheme-Text"
       d="M 2.914034 1.7818034 C 2.4018072 1.7818034 1.8897819 1.8937836 1.4273031 2.1166667 L 4.400765 2.1166667 C 3.9382363 1.8937223 3.426331 1.7818034 2.914034 1.7818034 z M 0.80046794 2.6458333 A 0.26468673 0.26468673 0 0 0 1.2205973 2.8577067 C 1.3266556 2.778163 1.439145 2.7077415 1.5564941 2.6458333 L 0.80046794 2.6458333 z M 4.2710571 2.6458333 C 4.3884063 2.7077415 4.5014124 2.778163 4.6074707 2.8577067 A 0.26468681 0.26468681 0 0 0 5.0270833 2.6458333 L 4.2710571 2.6458333 z " />
    <path
       class="ColorScheme-Text"
       inkscape:connector-curvature="0"
       id="wireless-20-50"
       d="m 2.9138816,3.0427113 c -0.4556834,0 -0.9184621,0.1473822 -1.2454019,0.4743897 A 0.26460979,0.26460979 0 1 0 2.0426169,3.8912382 C 2.244844,3.6889693 2.5758153,3.5718779 2.9138816,3.5718779 c 0.3380658,0 0.6690384,0.1170914 0.8712646,0.3193603 A 0.26460979,0.26460979 0 1 0 4.1592832,3.517101 C 3.8323422,3.1900935 3.3695653,3.0427113 2.9138816,3.0427113 Z"
       style="color:#4d4d4d;fill:#f5f5f5;fill-opacity:0.301961;stroke:none;stroke-width:0.264583" />
    <path
       class="ColorScheme-Text"
       id="wireless-20-25"
       d="M 3.4430665,4.7625 A 0.52916679,0.52916679 0 0 1 2.9139004,5.2916667 0.52916679,0.52916679 0 0 1 2.3847335,4.7625 0.52916679,0.52916679 0 0 1 2.9139004,4.2333331 0.52916679,0.52916679 0 0 1 3.4430665,4.7625 Z"
       style="color:#4d4d4d;fill:#f5f5f5;fill-opacity:0.3019608;stroke:none;stroke-width:0.264583"
       inkscape:connector-curvature="0" />
    <rect
       style="fill:#f5f5f5;stroke-width:0.529167;stroke-linecap:square"
       id="rect1"
       width="5.8208332"
       height="0.52916664"
       x="6.3578284e-08"
       y="2.6458333"
       rx="0.26458329"
       ry="4.0408377e-08" />
  </g>
</svg>
