<?xml version="1.0" encoding="UTF-8" standalone="no"?>
<!-- Created with Inkscape (http://www.inkscape.org/) -->

<svg
   width="22"
   height="22"
   viewBox="0 0 5.8208332 5.8208333"
   version="1.1"
   id="svg1"
   inkscape:version="1.3.2 (091e20ef0f, 2023-11-25)"
   sodipodi:docname="network-wireless-disabled-symbolic.svg"
   xmlns:inkscape="http://www.inkscape.org/namespaces/inkscape"
   xmlns:sodipodi="http://sodipodi.sourceforge.net/DTD/sodipodi-0.dtd"
   xmlns="http://www.w3.org/2000/svg"
   xmlns:svg="http://www.w3.org/2000/svg">
  <sodipodi:namedview
     id="namedview1"
     pagecolor="#5b5b5b"
     bordercolor="#000000"
     borderopacity="0.25"
     inkscape:showpageshadow="2"
     inkscape:pageopacity="0.0"
     inkscape:pagecheckerboard="0"
     inkscape:deskcolor="#d1d1d1"
     inkscape:document-units="mm"
     showgrid="true"
     inkscape:zoom="18.586941"
     inkscape:cx="14.553229"
     inkscape:cy="8.366089"
     inkscape:window-width="1354"
     inkscape:window-height="720"
     inkscape:window-x="0"
     inkscape:window-y="0"
     inkscape:window-maximized="1"
     inkscape:current-layer="layer1">
    <inkscape:grid
       id="grid1"
       units="px"
       originx="0"
       originy="0"
       spacingx="0.26458333"
       spacingy="0.26458333"
       empcolor="#0099e5"
       empopacity="0.30196078"
       color="#0099e5"
       opacity="0.14901961"
       empspacing="5"
       dotted="false"
       gridanglex="30"
       gridanglez="30"
       visible="true" />
  </sodipodi:namedview>
  <defs
     id="defs1" />
  <g
     inkscape:label="Capa 1"
     inkscape:groupmode="layer"
     id="layer1">
    <path
       id="wireless-connected-60-100"
       style="color:#4d4d4d;fill:#f5f5f5;fill-opacity:0.301961;stroke:none;stroke-width:0.264583"
       class="ColorScheme-Text"
       d="M 2.914034 0.52916667 C 2.3973537 0.52916667 1.8806797 0.60788231 1.3844116 0.76429443 L 1.8365804 1.1885579 C 3.0432746 0.89666809 4.3548113 1.1026286 5.4131063 1.8081584 A 0.26460979 0.26460979 0 1 0 5.7066284 1.3678752 C 4.8677219 0.80860395 3.8908768 0.52916667 2.914034 0.52916667 z M 0.3389974 1.2319661 C 0.26570149 1.2753983 0.19281033 1.3202947 0.12143962 1.3678752 A 0.26460979 0.26460979 0 1 0 0.41496175 1.8081584 C 0.52160985 1.7370596 0.6306529 1.6711561 0.74207357 1.6102376 L 0.3389974 1.2319661 z " />
    <path
       id="wireless-connected-60-75"
       style="color:#4d4d4d;fill:#f5f5f5;fill-opacity:0.3019608;stroke:none;stroke-width:0.264583"
       class="ColorScheme-Text"
       d="M 2.914034 1.7818034 C 2.7741823 1.7818034 2.6342885 1.7900056 2.4954549 1.8066081 L 3.0452922 2.3228556 C 3.6083614 2.3468771 4.1636244 2.524822 4.6074707 2.8577067 A 0.26468677 0.26468677 0 1 0 4.924764 2.43396 C 4.3447986 1.9989858 3.6294659 1.7818034 2.914034 1.7818034 z M 1.3327352 2.164209 C 1.183332 2.2423167 1.0395229 2.3317958 0.90330404 2.43396 A 0.26468677 0.26468677 0 0 0 1.2205973 2.8577067 C 1.3831517 2.7357909 1.5604376 2.6343622 1.7476969 2.5538493 L 1.3327352 2.164209 z " />
    <path
       id="wireless-connected-60-50"
       style="color:#4d4d4d;fill:#f5f5f5;fill-opacity:0.3019608;stroke:none;stroke-width:0.264583"
       class="ColorScheme-Text"
       d="M 2.352828 3.1217733 C 2.097444 3.1966116 1.8597371 3.3259533 1.668632 3.517098 A 0.26460979 0.26460979 0 1 0 2.0427694 3.8912354 C 2.2292487 3.7047175 2.5254444 3.5910962 2.8354858 3.5744588 L 2.352828 3.1217733 z " />
    <path
       inkscape:connector-curvature="0"
       style="color:#4d4d4d;fill:#f5f5f5;fill-opacity:0.3019608;stroke:none;stroke-width:0.264583"
       d="M 3.4430623,4.7624999 A 0.52916679,0.52916679 0 0 1 2.9138957,5.2916666 0.52916679,0.52916679 0 0 1 2.3847288,4.7624999 0.52916679,0.52916679 0 0 1 2.9138957,4.233333 0.52916679,0.52916679 0 0 1 3.4430623,4.7624999 Z"
       id="wireless-connected-60-25"
       class="ColorScheme-Text" />
    <path
       style="fill:#f5f5f5;fill-opacity:1;stroke-width:0.529167"
       d="M 0,0.91416192 4.6653481,5.2916666 5.0270832,4.9066714 0.3617351,0.52916671 Z"
       id="path4" />
  </g>
</svg>
