<?xml version="1.0" encoding="UTF-8" standalone="no"?>
<!-- Created with Inkscape (http://www.inkscape.org/) -->

<svg
   width="22"
   height="22"
   viewBox="0 0 5.8208332 5.8208333"
   version="1.1"
   id="svg1"
   inkscape:version="1.4 (e7c3feb100, 2024-10-09)"
   sodipodi:docname="network-wireless-signal-weak-symbolic.svg"
   xmlns:inkscape="http://www.inkscape.org/namespaces/inkscape"
   xmlns:sodipodi="http://sodipodi.sourceforge.net/DTD/sodipodi-0.dtd"
   xmlns="http://www.w3.org/2000/svg"
   xmlns:svg="http://www.w3.org/2000/svg">
  <sodipodi:namedview
     id="namedview1"
     pagecolor="#ffffff"
     bordercolor="#000000"
     borderopacity="0.25"
     inkscape:showpageshadow="2"
     inkscape:pageopacity="0.0"
     inkscape:pagecheckerboard="0"
     inkscape:deskcolor="#d1d1d1"
     inkscape:document-units="mm"
     showgrid="true"
     inkscape:zoom="12"
     inkscape:cx="3.0416667"
     inkscape:cy="11.166667"
     inkscape:window-width="1354"
     inkscape:window-height="732"
     inkscape:window-x="0"
     inkscape:window-y="0"
     inkscape:window-maximized="1"
     inkscape:current-layer="layer1">
    <inkscape:grid
       id="grid1"
       units="px"
       originx="0"
       originy="0"
       spacingx="0.26458333"
       spacingy="0.26458333"
       empcolor="#0099e5"
       empopacity="0.30196078"
       color="#0099e5"
       opacity="0.14901961"
       empspacing="5"
       dotted="false"
       gridanglex="30"
       gridanglez="30"
       visible="true" />
  </sodipodi:namedview>
  <defs
     id="defs1" />
  <g
     inkscape:label="Capa 1"
     inkscape:groupmode="layer"
     id="layer1">
    <path
       style="color:#4d4d4d;fill:#f5f5f5;fill-opacity:0.301961;stroke:none;stroke-width:0.264583"
       d="m 2.9138975,0.52632508 c -0.9768448,0 -1.95368619,0.27943624 -2.79259447,0.83870852 a 0.26460979,0.26460979 0 1 0 0.29352213,0.4402831 c 1.49718344,-0.99812213 3.50096104,-0.99812213 4.99814444,0 A 0.26460979,0.26460979 0 1 0 5.706492,1.3650336 C 4.8675837,0.80576132 3.8907424,0.52632508 2.9138975,0.52632508 Z"
       id="wireless-40-100"
       inkscape:connector-curvature="0"
       class="ColorScheme-Text" />
    <path
       style="color:#4d4d4d;fill:#f5f5f5;fill-opacity:0.3019608;stroke:none;stroke-width:0.264583"
       d="m 2.9138772,1.7818063 c -0.7154334,0 -1.4307632,0.2171817 -2.0107299,0.6521566 a 0.26468678,0.26468678 0 0 0 0.3172934,0.4237467 c 0.9567333,-0.71755 2.4301399,-0.71755 3.3868732,0 A 0.26468669,0.26468669 0 1 0 4.924607,2.4339629 C 4.3446404,1.998988 3.6293105,1.7818063 2.9138772,1.7818063 Z"
       id="wireless-40-75"
       inkscape:connector-curvature="0"
       class="ColorScheme-Text" />
    <path
       style="color:#4d4d4d;fill:#f5f5f5;fill-opacity:0.3019608;stroke:none;stroke-width:0.264583"
       d="m 2.9138772,3.0427112 c -0.4556834,0 -0.9184622,0.1473822 -1.245402,0.4743898 A 0.26460979,0.26460979 0 1 0 2.0426125,3.8912382 C 2.2448396,3.6889693 2.5758108,3.5718779 2.9138772,3.5718779 c 0.3380665,0 0.6690378,0.1170914 0.8712647,0.3193603 A 0.26460979,0.26460979 0 1 0 4.1592791,3.517101 C 3.8323393,3.1900934 3.3695606,3.0427112 2.9138772,3.0427112 Z"
       id="wireless-40-50"
       inkscape:connector-curvature="0"
       class="ColorScheme-Text" />
    <path
       inkscape:connector-curvature="0"
       style="color:#4d4d4d;fill:#f5f5f5;fill-opacity:1;stroke:none;stroke-width:0.264583"
       d="M 3.4430626,4.7625 A 0.52916679,0.52916679 0 0 1 2.9138959,5.2916666 0.52916679,0.52916679 0 0 1 2.384729,4.7625 0.52916679,0.52916679 0 0 1 2.9138959,4.2333331 0.52916679,0.52916679 0 0 1 3.4430626,4.7625 Z"
       id="wireless-40-25"
       class="ColorScheme-Text" />
  </g>
</svg>
