<?xml version="1.0" encoding="UTF-8" standalone="no"?>
<svg
   width="22"
   height="22"
   viewBox="0 0 22 22"
   id="svg2"
   version="1.1"
   inkscape:version="1.4 (e7c3feb100, 2024-10-09)"
   sodipodi:docname="night-light-disabled-symbolic.svg"
   xmlns:inkscape="http://www.inkscape.org/namespaces/inkscape"
   xmlns:sodipodi="http://sodipodi.sourceforge.net/DTD/sodipodi-0.dtd"
   xmlns="http://www.w3.org/2000/svg"
   xmlns:svg="http://www.w3.org/2000/svg"
   xmlns:rdf="http://www.w3.org/1999/02/22-rdf-syntax-ns#"
   xmlns:cc="http://creativecommons.org/ns#"
   xmlns:dc="http://purl.org/dc/elements/1.1/">
  <defs
     id="defs3051">
    <style
       type="text/css"
       id="current-color-scheme">
    .ColorScheme-Text {
    color:#f5f5f5;
    }
    </style>
  </defs>
  <sodipodi:namedview
     id="base"
     pagecolor="#ffffff"
     bordercolor="#666666"
     borderopacity="1.0"
     inkscape:pageopacity="0.0"
     inkscape:pageshadow="2"
     inkscape:zoom="32"
     inkscape:cx="10.359375"
     inkscape:cy="12.5"
     inkscape:document-units="px"
     inkscape:current-layer="layer1"
     showgrid="true"
     units="px"
     inkscape:showpageshadow="false"
     borderlayer="true"
     showguides="true"
     inkscape:guide-bbox="true"
     inkscape:window-width="1354"
     inkscape:window-height="732"
     inkscape:window-x="0"
     inkscape:window-y="0"
     inkscape:window-maximized="1"
     inkscape:document-rotation="0"
     inkscape:pagecheckerboard="0"
     inkscape:deskcolor="#d1d1d1">
    <inkscape:grid
       type="xygrid"
       id="grid4136"
       empspacing="2"
       originx="0"
       originy="0"
       spacingy="1"
       spacingx="1"
       units="px" />
    <sodipodi:guide
       position="0,20"
       orientation="0,1"
       id="guide4140"
       inkscape:label="Icon Max Height"
       inkscape:color="rgb(233,30,99)"
       inkscape:locked="false" />
    <sodipodi:guide
       position="0,2"
       orientation="0,1"
       id="guide4142"
       inkscape:label="Icon Baseline"
       inkscape:color="rgb(233,30,99)"
       inkscape:locked="false" />
    <sodipodi:guide
       position="11,0"
       orientation="1,0"
       id="guide4144"
       inkscape:label="Center Vertical"
       inkscape:color="rgb(221,44,0)"
       inkscape:locked="false" />
    <sodipodi:guide
       position="15,11"
       orientation="0,1"
       id="guide4146"
       inkscape:label="Center Horizontal"
       inkscape:color="rgb(221,44,0)"
       inkscape:locked="false" />
  </sodipodi:namedview>
  <metadata
     id="metadata7">
    <rdf:RDF>
      <cc:Work
         rdf:about="">
        <dc:format>image/svg+xml</dc:format>
        <dc:type
           rdf:resource="http://purl.org/dc/dcmitype/StillImage" />
      </cc:Work>
    </rdf:RDF>
  </metadata>
  <g
     inkscape:label="Capa 1"
     inkscape:groupmode="layer"
     id="layer1"
     transform="translate(0,-1030.3622)">
    <path
       id="path943"
       style="fill:#f5f5f5;fill-opacity:0.3019608;stroke:none"
       class="ColorScheme-Text"
       d="M 11 3 A 8 8 0 0 0 10.658203 3.0078125 A 6 6 0 0 1 11 5 A 6 6 0 0 1 10.335938 7.7402344 L 11.837891 9.1484375 A 8 8 0 0 0 12.992188 5.3398438 A 6 6 0 0 1 17 11 A 6 6 0 0 1 16.460938 13.484375 L 17.980469 14.910156 A 8 8 0 0 0 19 11 A 8 8 0 0 0 12.794922 3.2050781 A 8 8 0 0 0 11 3 z M 7.4257812 10.486328 A 6 6 0 0 1 5 11 A 6 6 0 0 1 3.0078125 10.660156 A 8 8 0 0 0 3 11 A 8 8 0 0 0 3.2050781 12.794922 A 8 8 0 0 0 11 19 A 8 8 0 0 0 15.21875 17.796875 L 13.689453 16.361328 A 6 6 0 0 1 11 17 A 6 6 0 0 1 5.3417969 12.992188 A 8 8 0 0 0 8.9765625 11.939453 L 7.4257812 10.486328 z "
       transform="translate(0,1030.3622)" />
    <path
       style="color:#f5f5f5;fill:currentColor;fill-opacity:1;stroke:none"
       d="m -12.356445,1042.1513 4.71289,4.4218 a 6,6 0 0 1 -2.689453,0.6387 6,6 0 0 1 -5.658203,-4.0078 8,8 0 0 0 3.634766,-1.0527 z"
       id="path2" />
    <path
       style="color:#f5f5f5;fill:currentColor;fill-opacity:1;stroke:none"
       d="m -10.333008,1033.2118 a 8,8 0 0 0 -0.341797,0.01 6,6 0 0 1 0.341797,1.9922 6,6 0 0 1 -0.664062,2.7402 l 1.501953,1.4082 a 8,8 0 0 0 1.154297,-3.8086 6,6 0 0 1 4.007812,5.6602 6,6 0 0 1 -0.539062,2.4844 l 1.519531,1.4258 a 8,8 0 0 0 1.019531,-3.9124 8,8 0 0 0 -6.205078,-7.7949 8,8 0 0 0 -1.794922,-0.2051 z"
       id="path1" />
    <path
       id="path943-3"
       style="color:#f5f5f5;fill:currentColor;fill-opacity:1;stroke:none"
       d="m 2.3671877,1033.3622 -1.36914,1.4551 0.728515,0.6836 13.4921883,12.6582 1.974609,1.8515 0.712891,0.67 0.726562,0.6816 1.367188,-1.4551 -0.726563,-0.6836 -16.1796873,-15.1796 z" />
    <path
       style="fill:#f5f5f5;stroke-width:2;stroke-linecap:square"
       d="m -13.907227,1040.6981 c 7.907227,7.6641 7.792982,7.3106 7.792982,7.3106 l -11.229505,-1.084 z"
       id="path3" />
  </g>
</svg>
