<?xml version="1.0" encoding="UTF-8" standalone="no"?>
<svg
   width="22"
   height="22"
   viewBox="0 0 22 22"
   id="svg2"
   version="1.1"
   inkscape:version="1.4 (e7c3feb100, 2024-10-09)"
   sodipodi:docname="notifications-disabled-symbolic.svg"
   xmlns:inkscape="http://www.inkscape.org/namespaces/inkscape"
   xmlns:sodipodi="http://sodipodi.sourceforge.net/DTD/sodipodi-0.dtd"
   xmlns="http://www.w3.org/2000/svg"
   xmlns:svg="http://www.w3.org/2000/svg"
   xmlns:rdf="http://www.w3.org/1999/02/22-rdf-syntax-ns#"
   xmlns:cc="http://creativecommons.org/ns#"
   xmlns:dc="http://purl.org/dc/elements/1.1/">
  <defs
     id="defs3051">
    <style
       type="text/css"
       id="current-color-scheme">
    .ColorScheme-Text {
    color:#f5f5f5;
    }
    </style>
  </defs>
  <sodipodi:namedview
     id="base"
     pagecolor="#ffffff"
     bordercolor="#666666"
     borderopacity="1.0"
     inkscape:pageopacity="0.0"
     inkscape:pageshadow="2"
     inkscape:zoom="11.313709"
     inkscape:cx="12.065009"
     inkscape:cy="14.672466"
     inkscape:document-units="px"
     inkscape:current-layer="layer1"
     showgrid="true"
     units="px"
     inkscape:showpageshadow="false"
     borderlayer="true"
     showguides="true"
     inkscape:guide-bbox="true"
     inkscape:window-width="1354"
     inkscape:window-height="732"
     inkscape:window-x="0"
     inkscape:window-y="0"
     inkscape:window-maximized="1"
     inkscape:document-rotation="0"
     inkscape:pagecheckerboard="0"
     inkscape:deskcolor="#d1d1d1">
    <inkscape:grid
       type="xygrid"
       id="grid4136"
       empspacing="2"
       originx="0"
       originy="0"
       spacingy="1"
       spacingx="1"
       units="px" />
    <sodipodi:guide
       position="0,20"
       orientation="0,1"
       id="guide4140"
       inkscape:label="Icon Max Height"
       inkscape:color="rgb(233,30,99)"
       inkscape:locked="false" />
    <sodipodi:guide
       position="0,2"
       orientation="0,1"
       id="guide4142"
       inkscape:label="Icon Baseline"
       inkscape:color="rgb(233,30,99)"
       inkscape:locked="false" />
    <sodipodi:guide
       position="11,0"
       orientation="1,0"
       id="guide4144"
       inkscape:label="Center Vertical"
       inkscape:color="rgb(221,44,0)"
       inkscape:locked="false" />
    <sodipodi:guide
       position="15,11"
       orientation="0,1"
       id="guide4146"
       inkscape:label="Center Horizontal"
       inkscape:color="rgb(221,44,0)"
       inkscape:locked="false" />
  </sodipodi:namedview>
  <metadata
     id="metadata7">
    <rdf:RDF>
      <cc:Work
         rdf:about="">
        <dc:format>image/svg+xml</dc:format>
        <dc:type
           rdf:resource="http://purl.org/dc/dcmitype/StillImage" />
        <dc:title />
      </cc:Work>
    </rdf:RDF>
  </metadata>
  <g
     inkscape:label="Capa 1"
     inkscape:groupmode="layer"
     id="layer1"
     transform="translate(0,-1030.3622)">
    <path
       id="notification-dsiabled-bell-icon"
       style="color:#4d4d4d;fill:#f5f5f5;fill-opacity:1;stroke:none"
       class="ColorScheme-Text"
       d="M 2.867188,1032.3622 1.5,1033.8173 l 0.726563,0.6836 2.978515,2.7949 C 4.75417,1038.2202 4.5,1039.26 4.5,1040.3622 v 6 H 3.427734 C 2.913427,1046.3623 2.5,1046.7756 2.5,1047.2899 v 0.1446 c 0,0.5143 0.413427,0.9277 0.927734,0.9277 H 9.5 a 2,2 0 0 0 2,2 2,2 0 0 0 2,-2 h 3.503906 l 1.402344,1.3164 0.726562,0.6836 1.367188,-1.4551 -0.726562,-0.6855 -16.179688,-15.1778 z m 8.632812,0 a 1,1 0 0 0 -1,1 1,1 0 0 0 0.002,0.078 c -0.942495,0.1339 -1.822218,0.4545 -2.603563,0.9219 l 0.748047,0.7012 c 0.659818,-0.3595 1.441548,-0.6016 2.353516,-0.6016 a 0.50005,0.50005 0 1 1 0,1 c -0.585823,0 -1.108047,0.13 -1.570313,0.3359 L 18.5,1044.3095 v -3.9473 c 0,-3.5385 -2.60268,-6.4397 -6.003906,-6.9219 a 1,1 0 0 0 0.0039,-0.078 1,1 0 0 0 -1,-1 z m -5.568359,5.6133 0.74414,0.6992 a 0.50005,0.50005 0 0 1 -0.833984,-0.5117 c 0,0 0.03249,-0.074 0.08984,-0.1875 z M 10.5,1048.3622 h 2 a 1,1 0 0 1 -1,1 1,1 0 0 1 -1,-1 z" />
  </g>
</svg>
