<?xml version="1.0" encoding="UTF-8" standalone="no"?>
<svg
   width="16px"
   height="16px"
   version="1.1"
   viewBox="0 0 16 16"
   id="svg1"
   sodipodi:docname="workspace-occupied.svg"
   inkscape:version="1.3.2 (091e20ef0f, 2023-11-25)"
   xmlns:inkscape="http://www.inkscape.org/namespaces/inkscape"
   xmlns:sodipodi="http://sodipodi.sourceforge.net/DTD/sodipodi-0.dtd"
   xmlns="http://www.w3.org/2000/svg"
   xmlns:svg="http://www.w3.org/2000/svg">
  <defs
     id="defs1" />
  <sodipodi:namedview
     id="namedview1"
     pagecolor="#989898"
     bordercolor="#000000"
     borderopacity="0.25"
     inkscape:showpageshadow="2"
     inkscape:pageopacity="0.0"
     inkscape:pagecheckerboard="0"
     inkscape:deskcolor="#d1d1d1"
     inkscape:zoom="25.234873"
     inkscape:cx="7.9651679"
     inkscape:cy="7.9849817"
     inkscape:window-width="1354"
     inkscape:window-height="718"
     inkscape:window-x="0"
     inkscape:window-y="0"
     inkscape:window-maximized="1"
     inkscape:current-layer="svg1"
     showgrid="true">
    <inkscape:grid
       id="grid1"
       units="px"
       originx="0"
       originy="0"
       spacingx="1"
       spacingy="1"
       empcolor="#0099e5"
       empopacity="0.30196078"
       color="#0099e5"
       opacity="0.14901961"
       empspacing="5"
       dotted="false"
       gridanglex="30"
       gridanglez="30"
       visible="true" />
  </sodipodi:namedview>
  <path
     style="fill:#f5f5f5;fill-opacity:1"
     d="m 11.999953,12.9961 v 0.0039 h -0.0039 c 0.01094,7.8e-5 0.0039,-0.0071 0.0039,-0.0039 z"
     id="path7" />
  <path
     style="fill:#f5f5f5;fill-opacity:1"
     d="m 7.9999531,12.9961 v 0.0039 h -0.00391 c 0.010944,7.8e-5 0.00393,-0.0071 0.00391,-0.0039 z"
     id="path6" />
  <path
     style="fill:#f5f5f5;fill-opacity:1"
     d="m 3.9999531,12.9961 v 0.0039 h -0.00391 c 0.010944,7.8e-5 0.00393,-0.0071 0.00391,-0.0039 z"
     id="path5" />
  <path
     id="path2"
     style="fill:#f5f5f5;fill-opacity:1"
     d="M 7.9921875 1 C 4.1249914 1.0039 0.996094 4.1406164 1 8.0078125 L 1 13.996094 C 1 14.550773 1.4492168 15 2.0039062 15 C 2.5546857 14.9961 3.00391 14.546873 3 13.996094 L 3 13.003906 C 3 12.449227 3.4492168 12 4.0039062 12 C 4.5546857 12.0039 5.00391 12.453127 5 13.003906 L 5 13.996094 C 5 14.550773 5.4492168 15 6.0039062 15 C 6.5546857 14.9961 7.00391 14.546873 7 13.996094 L 7 13.003906 C 7 12.449227 7.4492168 12 8.0039062 12 C 8.5546857 12.0039 9.00391 12.453127 9 13.003906 L 9 13.996094 C 9 14.550773 9.4492169 15 10.003906 15 C 10.554686 14.9961 11.0039 14.546873 11 13.996094 L 11 13.003906 C 11 12.449227 11.449217 12 12.003906 12 C 12.554686 12.0039 13.0039 12.453127 13 13.003906 L 13 13.996094 C 13 14.550773 13.449217 15 14.003906 15 C 14.554686 14.9961 15.0039 14.546873 15 13.996094 L 15 8.0078125 C 15 4.1367164 11.863284 1 7.9921875 1 z M 6 5 C 6.5546888 5 7 5.4453112 7 6 L 7 7 C 7 7.5546888 6.5546888 8 6 8 C 5.4453112 8 5 7.5546888 5 7 L 5 6 C 5 5.4453112 5.4453112 5 6 5 z M 10 5 C 10.554688 5 11 5.4453112 11 6 L 11 7 C 11 7.5546888 10.554688 8 10 8 C 9.4453112 8 9 7.5546888 9 7 L 9 6 C 9 5.4453112 9.4453112 5 10 5 z " />
</svg>
