<?xml version="1.0" encoding="UTF-8" standalone="no"?>
<!-- Created with Inkscape (http://www.inkscape.org/) -->

<svg
   width="16"
   height="16"
   viewBox="0 0 16 16"
   id="svg2"
   version="1.1"
   inkscape:version="1.3.2 (091e20ef0f, 2023-11-25)"
   sodipodi:docname="view-fullscreen.svg"
   xmlns:inkscape="http://www.inkscape.org/namespaces/inkscape"
   xmlns:sodipodi="http://sodipodi.sourceforge.net/DTD/sodipodi-0.dtd"
   xmlns="http://www.w3.org/2000/svg"
   xmlns:svg="http://www.w3.org/2000/svg"
   xmlns:rdf="http://www.w3.org/1999/02/22-rdf-syntax-ns#"
   xmlns:cc="http://creativecommons.org/ns#"
   xmlns:dc="http://purl.org/dc/elements/1.1/">
  <defs
     id="defs3051">
    <style
       type="text/css"
       id="current-color-scheme">
    .ColorScheme-Text {
    color:#f5f5f5;
    }
    </style>
  </defs>
  <sodipodi:namedview
     id="base"
     pagecolor="#ffffff"
     bordercolor="#666666"
     borderopacity="1.0"
     inkscape:pageopacity="0.0"
     inkscape:pageshadow="2"
     inkscape:zoom="27.510873"
     inkscape:cx="9.7052536"
     inkscape:cy="6.9245349"
     inkscape:document-units="px"
     inkscape:current-layer="layer1"
     showgrid="true"
     units="px"
     inkscape:showpageshadow="false"
     borderlayer="true"
     showguides="true"
     inkscape:guide-bbox="true"
     inkscape:window-width="1354"
     inkscape:window-height="718"
     inkscape:window-x="0"
     inkscape:window-y="0"
     inkscape:window-maximized="1"
     fit-margin-top="0"
     fit-margin-left="0"
     fit-margin-right="0"
     fit-margin-bottom="0"
     inkscape:pagecheckerboard="0"
     inkscape:deskcolor="#d1d1d1">
    <inkscape:grid
       type="xygrid"
       id="grid4136"
       empspacing="2"
       originx="-3"
       originy="-3.0000174"
       spacingy="1"
       spacingx="1"
       units="px"
       visible="true" />
    <sodipodi:guide
       position="0,14.999983"
       orientation="0,1"
       id="guide4140"
       inkscape:label="Icon Max Height"
       inkscape:color="rgb(233,30,99)"
       inkscape:locked="false" />
    <sodipodi:guide
       position="0,0.9999826"
       orientation="0,1"
       id="guide4142"
       inkscape:label="Icon Baseline"
       inkscape:color="rgb(233,30,99)"
       inkscape:locked="false" />
    <sodipodi:guide
       position="8,-1.74e-05"
       orientation="1,0"
       id="guide4144"
       inkscape:label="Center Vertical"
       inkscape:color="rgb(221,44,0)"
       inkscape:locked="false" />
    <sodipodi:guide
       position="17,7.9999826"
       orientation="0,1"
       id="guide4146"
       inkscape:label="Center Horizontal"
       inkscape:color="rgb(221,44,0)"
       inkscape:locked="false" />
  </sodipodi:namedview>
  <metadata
     id="metadata7">
    <rdf:RDF>
      <cc:Work
         rdf:about="">
        <dc:format>image/svg+xml</dc:format>
        <dc:type
           rdf:resource="http://purl.org/dc/dcmitype/StillImage" />
      </cc:Work>
    </rdf:RDF>
  </metadata>
  <g
     inkscape:label="Capa 1"
     inkscape:groupmode="layer"
     id="layer1"
     transform="translate(-3,-1033.3622)">
    <path
       style="fill:#f5f5f5;fill-opacity:1;stroke:none"
       d="m 9.3807253,1042.9025 c -0.195026,-0.195 -0.510037,-0.1942 -0.7056994,0 l -1.7664489,1.7664 -1.006663,-1.0068 c -0.2869786,-0.3916 -0.9090122,-0.1809 -0.901948,0.3052 l 6.8e-5,2.7898 3.74e-5,0.031 c -7.431e-4,0.033 0.012071,0.063 0.018247,0.095 0.00992,0.031 0.00972,0.06 0.017746,0.09 0.019123,0.047 0.052218,0.085 0.082021,0.1286 0.012083,0.012 0.013233,0.031 0.026096,0.043 0.012911,0.014 0.033984,0.017 0.04673,0.031 0.043146,0.029 0.081019,0.063 0.128537,0.082 0.03194,0.012 0.064815,0.013 0.098782,0.019 0.028812,-5e-4 0.056824,0.017 0.086111,0.017 l 0.03233,2e-4 h 2.7884031 c 0.4860918,0.01 0.6968708,-0.6149 0.305207,-0.9019 l -1.0066879,-1.0067 1.7663288,-1.7663 c 0.147705,-0.1478 0.182444,-0.3635 0.107676,-0.5443 -0.02312,-0.059 -0.06002,-0.1138 -0.106271,-0.1614 h -1.52e-4 z"
       id="path1" />
    <path
       style="fill:#f5f5f5;fill-opacity:1;stroke:none"
       d="m 16.855682,1035.5063 c -0.01253,-0.012 -0.0293,-0.015 -0.04281,-0.026 -0.04317,-0.029 -0.0813,-0.063 -0.12844,-0.082 -0.02949,-0.011 -0.05901,-0.013 -0.08977,-0.018 -0.03176,-0.01 -0.06204,-0.019 -0.09529,-0.018 h -0.03038 -2.789757 c -0.486137,-0.01 -0.696829,0.6149 -0.305216,0.9018 l 1.006799,1.0068 -1.766386,1.7664 c -0.195657,0.1957 -0.196469,0.5107 -0.0014,0.7057 h 0.0028 0.0014 c 0.04779,0.047 0.102962,0.083 0.161585,0.1064 0.180799,0.075 0.396397,0.04 0.544111,-0.1078 l 1.766386,-1.7664 1.006799,1.0068 c 0.286963,0.3916 0.90898,0.1809 0.901837,-0.3052 l 0.0041,-2.7884 0.0014,-0.032 c 2.05e-4,-0.03 -0.0117,-0.057 -0.01658,-0.086 -0.0054,-0.034 -0.0069,-0.067 -0.01933,-0.099 -0.01886,-0.047 -0.04892,-0.089 -0.08148,-0.1284 -0.01319,-0.013 -0.01701,-0.034 -0.03039,-0.047 z"
       id="path4160" />
  </g>
</svg>
