<?xml version="1.0" encoding="UTF-8" standalone="no"?>
<!-- Created with Inkscape (http://www.inkscape.org/) -->

<svg
   width="64"
   height="64"
   viewBox="0 0 64 64.000003"
   id="svg2"
   version="1.1"
   inkscape:version="1.3.2 (091e20ef0f, 2023-11-25)"
   sodipodi:docname="brave.svg"
   inkscape:export-filename="/home/uri/inkscape-icon.png"
   inkscape:export-xdpi="360"
   inkscape:export-ydpi="360"
   xmlns:inkscape="http://www.inkscape.org/namespaces/inkscape"
   xmlns:sodipodi="http://sodipodi.sourceforge.net/DTD/sodipodi-0.dtd"
   xmlns="http://www.w3.org/2000/svg"
   xmlns:svg="http://www.w3.org/2000/svg"
   xmlns:rdf="http://www.w3.org/1999/02/22-rdf-syntax-ns#"
   xmlns:cc="http://creativecommons.org/ns#"
   xmlns:dc="http://purl.org/dc/elements/1.1/">
  <defs
     id="defs4" />
  <sodipodi:namedview
     id="base"
     pagecolor="#ffffff"
     bordercolor="#666666"
     borderopacity="1.0"
     inkscape:pageopacity="0.0"
     inkscape:pageshadow="2"
     inkscape:zoom="11.512582"
     inkscape:cx="31.965027"
     inkscape:cy="52.334046"
     inkscape:document-units="px"
     inkscape:current-layer="layer1"
     showgrid="true"
     units="px"
     inkscape:showpageshadow="false"
     borderlayer="true"
     inkscape:window-width="1354"
     inkscape:window-height="724"
     inkscape:window-x="0"
     inkscape:window-y="0"
     inkscape:window-maximized="1"
     showguides="true"
     inkscape:pagecheckerboard="0"
     inkscape:deskcolor="#d1d1d1">
    <inkscape:grid
       type="xygrid"
       id="grid4136"
       originx="0"
       originy="0"
       spacingy="1"
       spacingx="1"
       units="px"
       visible="true" />
    <sodipodi:guide
       position="5,59.000069"
       orientation="54,0"
       id="guide4142"
       inkscape:locked="false" />
    <sodipodi:guide
       position="5,5.0000688"
       orientation="0,54"
       id="guide4144"
       inkscape:locked="false" />
    <sodipodi:guide
       position="59,5.0000688"
       orientation="-54,0"
       id="guide4146"
       inkscape:locked="false" />
    <sodipodi:guide
       position="59,59.000069"
       orientation="0,-54"
       id="guide4148"
       inkscape:locked="false" />
    <sodipodi:guide
       position="0,64.000069"
       orientation="64,0"
       id="guide4150"
       inkscape:locked="false" />
    <sodipodi:guide
       position="0,6.875e-05"
       orientation="0,64"
       id="guide4152"
       inkscape:locked="false" />
    <sodipodi:guide
       position="64,4.0000002"
       orientation="-64,0"
       id="guide4154"
       inkscape:locked="false" />
    <sodipodi:guide
       position="64,64.000069"
       orientation="0,-64"
       id="guide4156"
       inkscape:locked="false" />
    <sodipodi:guide
       position="31.999945,31.999826"
       orientation="27.000122,0"
       id="guide4213"
       inkscape:locked="false" />
    <sodipodi:guide
       position="4.9999847,31.999826"
       orientation="0,26.99996"
       id="guide4219"
       inkscape:locked="false" />
    <sodipodi:guide
       position="45,18.999948"
       orientation="13.999878,0"
       id="guide4233"
       inkscape:locked="false" />
    <sodipodi:guide
       position="45,5.000069"
       orientation="0,13.999931"
       id="guide4235"
       inkscape:locked="false" />
    <sodipodi:guide
       position="58.999931,5.000069"
       orientation="-13.999878,0"
       id="guide4237"
       inkscape:locked="false" />
    <sodipodi:guide
       position="58.999931,18.999948"
       orientation="0,-13.999931"
       id="guide4239"
       inkscape:locked="false" />
  </sodipodi:namedview>
  <metadata
     id="metadata7">
    <rdf:RDF>
      <cc:Work
         rdf:about="">
        <dc:format>image/svg+xml</dc:format>
        <dc:type
           rdf:resource="http://purl.org/dc/dcmitype/StillImage" />
        <dc:title />
      </cc:Work>
    </rdf:RDF>
  </metadata>
  <g
     inkscape:label="Capa 1"
     inkscape:groupmode="layer"
     id="layer1"
     transform="translate(0,-1058.5196)">
    <path
       fill="#fd4932"
       d="m 23.693007,1063.5196 c -1.039,0 -4.673,4.153 -5.193,4.153 h -2.596 c -1.038,0 -4.673,3.635 -4.673,4.673 v 3.116 c 0,0.519 -4.1300007,4.153 -4.1540007,5.192 -0.024,1.039 7.2700007,25.442 8.3080007,26.48 1.038,1.038 12.461,10.386 15.577,10.386 h 2.077 c 3.115,0 14.538,-9.346 15.576,-10.385 1.038,-1.039 8.329001,-25.442 8.308001,-26.48 -0.023,-1.032 -4.154001,-4.673 -4.154001,-5.192 v -3.116 c 0,-1.038 -3.634,-4.673 -4.673,-4.673 h -2.595 c -0.52,-10e-4 -4.155,-4.154 -5.193,-4.154 z"
       id="path1"
       style="fill:#f4511e;fill-opacity:1" />
    <path
       id="path4"
       style="fill:#ff7043;fill-opacity:1"
       d="M 23.804688 1064.5196 C 23.789125 1064.5238 23.747408 1064.5343 23.6875 1064.5684 C 23.557759 1064.6421 23.358563 1064.779 23.134766 1064.9551 C 22.687169 1065.3072 22.132453 1065.8119 21.587891 1066.3243 C 21.043327 1066.8367 20.508372 1067.3567 20.056641 1067.7657 C 19.830775 1067.9702 19.62704 1068.1447 19.429688 1068.293 C 19.331012 1068.3671 19.235853 1068.435 19.113281 1068.502 C 18.990709 1068.5692 18.865272 1068.6719 18.5 1068.6719 L 15.904297 1068.6719 C 16.228451 1068.6719 15.755856 1068.7489 15.328125 1069.0626 C 14.900394 1069.3763 14.374566 1069.8364 13.884766 1070.3262 C 13.394965 1070.816 12.934806 1071.3419 12.621094 1071.7696 C 12.307379 1072.1974 12.230469 1072.67 12.230469 1072.3458 L 12.230469 1075.461 C 12.230469 1075.825 12.12936 1075.9519 12.0625 1076.0743 C 11.995637 1076.1967 11.927276 1076.2917 11.853516 1076.3907 C 11.705985 1076.588 11.531746 1076.7899 11.328125 1077.0157 C 10.920883 1077.4675 10.403951 1078.002 9.8925781 1078.5469 C 9.3812059 1079.0917 8.875868 1079.6467 8.5214844 1080.0958 C 8.3442926 1080.3203 8.2052092 1080.5201 8.1289062 1080.6524 C 8.1117717 1080.6823 8.1122758 1080.6905 8.1035156 1080.713 C 8.1109285 1080.7718 8.1155873 1080.8257 8.1308594 1080.8946 C 8.1788109 1081.1108 8.2556497 1081.4192 8.3535156 1081.7969 C 8.5492478 1082.5523 8.8346105 1083.5902 9.1816406 1084.8106 C 9.8757009 1087.2516 10.815803 1090.4275 11.789062 1093.6016 C 12.762321 1096.7757 13.769691 1099.9487 14.59375 1102.3829 C 15.00578 1103.6 15.371022 1104.6351 15.660156 1105.379 C 15.804724 1105.751 15.930911 1106.05 16.025391 1106.252 C 16.119871 1106.4538 16.269734 1106.6037 16.091797 1106.4259 C 16.233502 1106.5675 17.192844 1107.4028 18.447266 1108.4161 C 19.701686 1109.4295 21.313489 1110.6871 22.984375 1111.9083 C 24.655261 1113.1295 26.389222 1114.316 27.865234 1115.1798 C 29.341248 1116.0435 30.683891 1116.5196 30.962891 1116.5196 L 33.039062 1116.5196 C 33.317759 1116.5196 34.660837 1116.0434 36.136719 1115.1798 C 37.612599 1114.3162 39.344805 1113.1312 41.015625 1111.9102 C 42.686445 1110.6891 44.298352 1109.4312 45.552734 1108.418 C 46.807118 1107.4047 47.767065 1106.5691 47.908203 1106.4278 C 47.730677 1106.6055 47.880139 1106.456 47.974609 1106.254 C 48.069082 1106.052 48.193357 1105.751 48.337891 1105.379 C 48.626956 1104.635 48.994334 1103.6019 49.40625 1102.3848 C 50.230081 1099.9504 51.23786 1096.7757 52.210938 1093.6016 C 53.184016 1090.4274 54.124138 1087.2516 54.818359 1084.8106 C 55.16547 1083.5902 55.450519 1082.5524 55.646484 1081.7969 C 55.744468 1081.4191 55.821011 1081.111 55.869141 1080.8946 C 55.884315 1080.8256 55.888983 1080.774 55.896484 1080.7169 C 55.887732 1080.6945 55.888219 1080.686 55.871094 1080.6563 C 55.794835 1080.5242 55.655772 1080.3261 55.478516 1080.1016 C 55.124001 1079.6526 54.61894 1079.0961 54.107422 1078.5509 C 53.595902 1078.0055 53.079188 1077.4699 52.671875 1077.0176 C 52.468218 1076.7914 52.292024 1076.5881 52.144531 1076.3907 C 52.070785 1076.292 52.00431 1076.1967 51.9375 1076.0743 C 51.870692 1075.952 51.769531 1075.8271 51.769531 1075.463 L 51.769531 1072.3458 C 51.769531 1072.6698 51.692543 1072.1974 51.378906 1071.7696 C 51.06527 1071.3419 50.604959 1070.818 50.115234 1070.3282 C 49.625511 1069.8384 49.101561 1069.3781 48.673828 1069.0645 C 48.246096 1068.7508 47.772361 1068.6739 48.095703 1068.6739 L 45.5 1068.6739 C 45.13529 1068.6732 45.009087 1068.571 44.886719 1068.504 C 44.76435 1068.4367 44.668932 1068.369 44.570312 1068.295 C 44.373068 1068.1467 44.171188 1067.9703 43.945312 1067.7657 C 43.493562 1067.3567 42.958688 1066.8368 42.414062 1066.3243 C 41.869438 1065.8118 41.312822 1065.3072 40.865234 1064.9551 C 40.641442 1064.779 40.444161 1064.6424 40.314453 1064.5684 C 40.254478 1064.5342 40.210883 1064.5237 40.195312 1064.5196 L 23.804688 1064.5196 z " />
    <path
       fill="#f9f9f9"
       d="m 32.001007,1071.7716 c -1.035,0 -2.065,0.355 -3.116,1.055 -3.115,2.077 -7.27,-1.038 -8.308,-1.038 -1.038,0 -7.269,7.566 -7.269,10.384 0,2.077 7.788,6.854 7.788,8.308 0,1.038 -1.557,1.537 -1.557,3.74 0,1.452 2.077,4.048 4.154,4.048 2.077,0 7.273,-4.077 7.269,-5.086 v -0.625 c 0,-1.246 -4.673,-2.817 -4.673,-5.193 0,-2.077 1.557,-2.845 1.557,-5.192 0,-2.019 -4.153,-2.596 -7.269,-3.115 -1.038,0 3.116,-3.417 8.827,0.276 1.446,0.935 -1.558,4.63 -1.038,8.031 0.778,0.727 2.207,1.09 3.634,1.09 1.43,0 2.856,-0.363 3.635,-1.09 0.519,-3.402 -2.484,-7.096 -1.039,-8.031 5.712,-3.693 9.866,-0.276 8.827,-0.276 -3.115,0.519 -7.269,1.096 -7.269,3.115 0,2.347 1.558,3.115 1.558,5.192 0,2.376 -4.673,3.947 -4.673,5.193 v 0.625 c -0.005,1.01 5.192,5.086 7.269,5.086 2.077,0 4.154,-2.596 4.154,-4.048 0,-2.201 -1.558,-2.702 -1.558,-3.74 0,-1.454 7.788,-6.23 7.788,-8.308 0,-2.818 -6.23,-10.384 -7.269,-10.384 -1.039,0 -5.192,3.115 -8.307,1.038 -1.051,-0.7 -2.077,-1.055 -3.116,-1.055 z m 0,24.732 c -2.078,0 -6.75,3.219 -6.75,3.842 0,0.623 4.672,5.712 6.75,5.712 2.078,0 6.75,-5.089 6.75,-5.712 0,-0.623 -4.674,-3.842 -6.75,-3.842 z"
       id="path6"
       style="fill:#000000;fill-opacity:0.30980393" />
    <path
       fill="#f9f9f9"
       d="m 32.001007,1070.7716 c -1.035,0 -2.065,0.355 -3.116,1.055 -3.115,2.077 -7.27,-1.038 -8.308,-1.038 -1.038,0 -7.269,7.566 -7.269,10.384 0,2.077 7.788,6.854 7.788,8.308 0,1.038 -1.557,1.537 -1.557,3.74 0,1.452 2.077,4.048 4.154,4.048 2.077,0 7.273,-4.077 7.269,-5.086 v -0.625 c 0,-1.246 -4.673,-2.817 -4.673,-5.193 0,-2.077 1.557,-2.845 1.557,-5.192 0,-2.019 -4.153,-2.596 -7.269,-3.115 -1.038,0 3.116,-3.417 8.827,0.276 1.446,0.935 -1.558,4.63 -1.038,8.031 0.778,0.727 2.207,1.09 3.634,1.09 1.43,0 2.856,-0.363 3.635,-1.09 0.519,-3.402 -2.484,-7.096 -1.039,-8.031 5.712,-3.693 9.866,-0.276 8.827,-0.276 -3.115,0.519 -7.269,1.096 -7.269,3.115 0,2.347 1.558,3.115 1.558,5.192 0,2.376 -4.673,3.947 -4.673,5.193 v 0.625 c -0.005,1.01 5.192,5.086 7.269,5.086 2.077,0 4.154,-2.596 4.154,-4.048 0,-2.201 -1.558,-2.702 -1.558,-3.74 0,-1.454 7.788,-6.23 7.788,-8.308 0,-2.818 -6.23,-10.384 -7.269,-10.384 -1.039,0 -5.192,3.115 -8.307,1.038 -1.051,-0.7 -2.077,-1.055 -3.116,-1.055 z m 0,24.732 c -2.078,0 -6.75,3.219 -6.75,3.842 0,0.623 4.672,5.712 6.75,5.712 2.078,0 6.75,-5.089 6.75,-5.712 0,-0.623 -4.674,-3.842 -6.75,-3.842 z"
       id="path2"
       style="fill:#fafafa;fill-opacity:1" />
  </g>
</svg>
