<?xml version="1.0" encoding="UTF-8" standalone="no"?>
<!-- Created with Inkscape (http://www.inkscape.org/) -->

<svg
   width="64"
   height="64"
   viewBox="0 0 64 64.000003"
   id="svg2"
   version="1.1"
   inkscape:version="1.4 (e7c3feb100, 2024-10-09)"
   sodipodi:docname="vscode.svg"
   inkscape:export-filename="/home/uri/vvave@4x.png"
   inkscape:export-xdpi="384"
   inkscape:export-ydpi="384"
   xmlns:inkscape="http://www.inkscape.org/namespaces/inkscape"
   xmlns:sodipodi="http://sodipodi.sourceforge.net/DTD/sodipodi-0.dtd"
   xmlns="http://www.w3.org/2000/svg"
   xmlns:svg="http://www.w3.org/2000/svg"
   xmlns:rdf="http://www.w3.org/1999/02/22-rdf-syntax-ns#"
   xmlns:cc="http://creativecommons.org/ns#"
   xmlns:dc="http://purl.org/dc/elements/1.1/">
  <defs
     id="defs4">
    <filter
       id="a"
       filterUnits="userSpaceOnUse"
       x="0"
       y="0"
       width="2000"
       height="1988.5">
      <feColorMatrix
         values="1 0 0 0 0 0 1 0 0 0 0 0 1 0 0 0 0 0 1 0"
         id="feColorMatrix1" />
    </filter>
    <linearGradient
       id="c"
       gradientUnits="userSpaceOnUse"
       x1="999.39203"
       y1="1990.4821"
       x2="999.39203"
       y2="2.0020001"
       gradientTransform="matrix(41.640365,0,0,-41.428305,-2709.7638,81665.113)">
      <stop
         offset="0"
         style="stop-color:#fff"
         id="stop4" />
      <stop
         offset="1"
         style="stop-color:#fff;stop-opacity:0"
         id="stop5" />
    </linearGradient>
    <mask
       maskUnits="userSpaceOnUse"
       id="mask1">
      <g
         id="g6"
         transform="matrix(41.640364,0,0,41.428299,-2739.2089,-44049.363)">
        <path
           d="m 1418.6,1980 c 31.5,12.3 67.4,11.5 99.2,-3.8 l 411.5,-198 c 43.2,-20.8 70.7,-64.6 70.7,-112.6 V 322.9 c 0,-48 -27.5,-91.8 -70.7,-112.6 l -411.5,-198 c -41.7,-20.1 -90.5,-15.2 -127.1,11.5 -5.2,3.8 -10.2,8 -14.9,12.7 L 588,755.2 244.8,494.7 c -31.9,-24.2 -76.6,-22.3 -106.3,4.7 l -110,100.2 c -36.3,33 -36.3,90.1 -0.1,123.2 L 326,994.2 28.4,1265.7 c -36.2,33.1 -36.2,90.2 0.1,123.2 l 110,100.1 c 29.7,27 74.3,29 106.3,4.7 L 588,1233.3 1375.8,1952 c 12.4,12.5 27.1,21.9 42.8,28 z m 82,-1439.5 -597.8,453.7 597.8,453.7 z"
           style="clip-rule:evenodd;fill:#ffffff;fill-rule:evenodd;filter:url(#a)"
           id="path6"
           transform="matrix(0.02401516,0,0,0.02413809,65.782541,1063.2675)" />
      </g>
    </mask>
    <mask
       maskUnits="userSpaceOnUse"
       id="mask6">
      <g
         id="g7"
         transform="matrix(41.640364,0,0,41.428299,-2739.2089,-44049.363)">
        <path
           d="m 1418.6,1980 c 31.5,12.3 67.4,11.5 99.2,-3.8 l 411.5,-198 c 43.2,-20.8 70.7,-64.6 70.7,-112.6 V 322.9 c 0,-48 -27.5,-91.8 -70.7,-112.6 l -411.5,-198 c -41.7,-20.1 -90.5,-15.2 -127.1,11.5 -5.2,3.8 -10.2,8 -14.9,12.7 L 588,755.2 244.8,494.7 c -31.9,-24.2 -76.6,-22.3 -106.3,4.7 l -110,100.2 c -36.3,33 -36.3,90.1 -0.1,123.2 L 326,994.2 28.4,1265.7 c -36.2,33.1 -36.2,90.2 0.1,123.2 l 110,100.1 c 29.7,27 74.3,29 106.3,4.7 L 588,1233.3 1375.8,1952 c 12.4,12.5 27.1,21.9 42.8,28 z m 82,-1439.5 -597.8,453.7 597.8,453.7 z"
           style="clip-rule:evenodd;fill:#ffffff;fill-rule:evenodd;filter:url(#a)"
           id="path7"
           transform="matrix(0.02401516,0,0,0.02413809,65.782541,1063.2675)" />
      </g>
    </mask>
    <mask
       maskUnits="userSpaceOnUse"
       id="mask7">
      <g
         id="g8"
         transform="matrix(41.640364,0,0,41.428299,-2739.2089,-44049.363)">
        <path
           d="m 1418.6,1980 c 31.5,12.3 67.4,11.5 99.2,-3.8 l 411.5,-198 c 43.2,-20.8 70.7,-64.6 70.7,-112.6 V 322.9 c 0,-48 -27.5,-91.8 -70.7,-112.6 l -411.5,-198 c -41.7,-20.1 -90.5,-15.2 -127.1,11.5 -5.2,3.8 -10.2,8 -14.9,12.7 L 588,755.2 244.8,494.7 c -31.9,-24.2 -76.6,-22.3 -106.3,4.7 l -110,100.2 c -36.3,33 -36.3,90.1 -0.1,123.2 L 326,994.2 28.4,1265.7 c -36.2,33.1 -36.2,90.2 0.1,123.2 l 110,100.1 c 29.7,27 74.3,29 106.3,4.7 L 588,1233.3 1375.8,1952 c 12.4,12.5 27.1,21.9 42.8,28 z m 82,-1439.5 -597.8,453.7 597.8,453.7 z"
           style="clip-rule:evenodd;fill:#ffffff;fill-rule:evenodd;filter:url(#a)"
           id="path8"
           transform="matrix(0.02401516,0,0,0.02413809,65.782541,1063.2675)" />
      </g>
    </mask>
    <mask
       maskUnits="userSpaceOnUse"
       id="mask8">
      <g
         id="g9"
         transform="matrix(41.640364,0,0,41.428299,-2739.2089,-44049.363)">
        <path
           d="m 1418.6,1980 c 31.5,12.3 67.4,11.5 99.2,-3.8 l 411.5,-198 c 43.2,-20.8 70.7,-64.6 70.7,-112.6 V 322.9 c 0,-48 -27.5,-91.8 -70.7,-112.6 l -411.5,-198 c -41.7,-20.1 -90.5,-15.2 -127.1,11.5 -5.2,3.8 -10.2,8 -14.9,12.7 L 588,755.2 244.8,494.7 c -31.9,-24.2 -76.6,-22.3 -106.3,4.7 l -110,100.2 c -36.3,33 -36.3,90.1 -0.1,123.2 L 326,994.2 28.4,1265.7 c -36.2,33.1 -36.2,90.2 0.1,123.2 l 110,100.1 c 29.7,27 74.3,29 106.3,4.7 L 588,1233.3 1375.8,1952 c 12.4,12.5 27.1,21.9 42.8,28 z m 82,-1439.5 -597.8,453.7 597.8,453.7 z"
           style="clip-rule:evenodd;fill:#ffffff;fill-rule:evenodd;filter:url(#a)"
           id="path9"
           transform="matrix(0.02401516,0,0,0.02413809,65.782541,1063.2675)" />
      </g>
    </mask>
    <linearGradient
       id="paint0_linear"
       x1="127.844"
       y1="0.65998799"
       x2="127.844"
       y2="255.34"
       gradientUnits="userSpaceOnUse"
       gradientTransform="matrix(0.1616951,0,0,0.22940381,61.554994,-7.960884)">
      <stop
         stop-color="white"
         id="stop51" />
      <stop
         offset="1"
         stop-color="white"
         stop-opacity="0"
         id="stop53" />
    </linearGradient>
    <filter
       inkscape:collect="always"
       style="color-interpolation-filters:sRGB"
       id="filter1"
       x="-0.047983319"
       y="-0.048016692"
       width="1.0959666"
       height="1.0960334">
      <feGaussianBlur
         inkscape:collect="always"
         stdDeviation="0.9994805"
         id="feGaussianBlur1" />
    </filter>
  </defs>
  <sodipodi:namedview
     id="base"
     pagecolor="#ffffff"
     bordercolor="#666666"
     borderopacity="1.0"
     inkscape:pageopacity="0.0"
     inkscape:pageshadow="2"
     inkscape:zoom="7.9999996"
     inkscape:cx="42.000002"
     inkscape:cy="33.125002"
     inkscape:document-units="px"
     inkscape:current-layer="layer1"
     showgrid="true"
     units="px"
     inkscape:showpageshadow="false"
     borderlayer="true"
     inkscape:window-width="1354"
     inkscape:window-height="732"
     inkscape:window-x="0"
     inkscape:window-y="0"
     inkscape:window-maximized="1"
     showguides="true"
     guidetolerance="10000"
     inkscape:guide-bbox="true"
     inkscape:pagecheckerboard="0"
     inkscape:deskcolor="#d1d1d1">
    <inkscape:grid
       type="xygrid"
       id="grid4136"
       originx="0"
       originy="0"
       spacingy="1"
       spacingx="1"
       units="px" />
    <sodipodi:guide
       position="5,59.000069"
       orientation="54,0"
       id="guide4142"
       inkscape:locked="false" />
    <sodipodi:guide
       position="5,5.0000688"
       orientation="0,54"
       id="guide4144"
       inkscape:locked="false" />
    <sodipodi:guide
       position="59,5.0000688"
       orientation="-54,0"
       id="guide4146"
       inkscape:locked="false" />
    <sodipodi:guide
       position="59,59.000069"
       orientation="0,-54"
       id="guide4148"
       inkscape:locked="false" />
    <sodipodi:guide
       position="0,6.875e-05"
       orientation="0,64"
       id="guide4152"
       inkscape:locked="false" />
    <sodipodi:guide
       position="32,32.000002"
       orientation="0,1"
       id="guide4351"
       inkscape:locked="false" />
    <sodipodi:guide
       position="32,32.000002"
       orientation="1,0"
       id="guide4353"
       inkscape:locked="false" />
  </sodipodi:namedview>
  <metadata
     id="metadata7">
    <rdf:RDF>
      <cc:Work
         rdf:about="">
        <dc:format>image/svg+xml</dc:format>
        <dc:type
           rdf:resource="http://purl.org/dc/dcmitype/StillImage" />
        <dc:title />
      </cc:Work>
    </rdf:RDF>
  </metadata>
  <g
     inkscape:label="Capa 1"
     inkscape:groupmode="layer"
     id="layer1"
     transform="translate(0,-1058.5196)">
    <path
       id="path12-3"
       style="fill:#000000;stroke-linecap:round;stroke-linejoin:round;filter:url(#filter1);fill-opacity:1;opacity:0.3"
       d="m 44.389227,1069.5358 c -2.1496,0.1463 -3.44518,2.1015 -5.06829,3.2882 -5.536463,4.7517 -11.072926,9.5034 -16.60939,14.2551 -2.726563,-2.0332 -5.453125,-4.0664 -8.179688,-6.0996 -1.105945,-1.0988 -3.164048,-0.2698 -4.060561,1.0466 -1.1062428,1.2378 -2.4916228,2.2701 -3.3574078,3.684 -0.617293,1.9044 1.518829,2.8548 2.605708,4.0055 1.6867688,1.4943 3.3735388,2.9885 5.0603078,4.4828 -2.371094,2.1999 -4.742187,4.3997 -7.1132808,6.5996 -1.167805,0.8076 -0.57338,3.1357 0.844371,3.9097 0.937292,0.8525 1.8745828,1.705 2.8118748,2.5575 1.078343,1.2206 3.228908,0.3848 4.345825,-0.7858 2.309854,-1.7858 4.619709,-3.5715 6.929563,-5.3572 6.706235,5.9139 13.382348,11.9072 20.107398,17.7715 1.27538,1.0606 2.88525,0.5466 4.0672,-0.3129 2.94068,-1.6993 5.9585,-3.2794 8.85043,-5.0541 1.40325,-1.17 1.41117,-2.4782 1.35588,-3.9164 -0.0118,-10.7521 0.0237,-21.5055 -0.0178,-32.2568 -0.30291,-2.2551 -2.82574,-2.7682 -4.44047,-3.8767 -2.26877,-1.2311 -4.46003,-2.622 -6.78493,-3.7373 -0.43179,-0.1424 -0.90039,-0.2244 -1.34674,-0.2037 z m -0.40039,16.4394 c 0,5.6563 0,11.3125 0,16.9688 -3.95443,-2.9486 -7.90885,-5.8971 -11.863278,-8.8457 3.954428,-2.7077 7.908848,-5.4154 11.863278,-8.1231 z" />
    <path
       id="path12"
       style="fill:none;fill-opacity:1;stroke-width:2;stroke:#01579b;stroke-opacity:1;stroke-dasharray:none;stroke-linejoin:round;stroke-linecap:round"
       d="m 43.745254,1068.9241 c -0.305266,0 -0.662986,0.1067 -1.07992,0.3606 l -20.339735,17.4554 -6.267101,5.6527 -7.6996735,7.1445 c 0,0 -0.807356,0.6008 0,1.6742 l 3.6479615,3.3186 c 0,0 0.866549,0.9307 2.146522,-0.128 l 8.172291,-6.3173 7.527384,-5.6331 15.480351,-10.5988 -1.2e-4,-11.416 c 0,0 -0.390733,-1.5258 -1.58832,-1.5128 z"
       sodipodi:nodetypes="cccccccccccccc" />
    <path
       d="m 43.088281,1115.8996 c 0.83696,0.8567 1.85108,0.576 1.85108,0.576 l 9.815253,-5.5344 c 1.43756,-0.98 1.23568,-2.1961 1.23568,-2.1961 v -33.0494 c 0,-1.4526 -1.486733,-1.9548 -1.486733,-1.9548 l -8.318227,-4.6925 c -2.126826,-1.3147 -3.52,0.2363 -3.52,0.2363 0,0 1.458426,-1.2073 2.334666,1.2349 v 43.8633 c 0,0.3004 0.02809,0.3496 -0.1,0.6155 -0.25596,0.5171 -0.571026,0.9996 -1.905186,0.7977 z"
       fill="#3c99d4"
       id="path11"
       style="fill:none;fill-opacity:1;stroke-width:2;stroke:#09a7f8;stroke-opacity:1;stroke-dasharray:none;stroke-linejoin:round;stroke-linecap:round"
       sodipodi:nodetypes="ccccsccccsccc" />
    <path
       id="path4-1"
       style="fill:#0277bd;fill-opacity:1;stroke-width:3.2878"
       d="m 43.745254,1068.9241 c -0.305266,0 -0.662986,0.1067 -1.07992,0.3606 l -20.339735,17.4554 -6.267101,5.6527 -7.6996735,7.1445 c 0,0 -0.807356,0.6008 0,1.6742 l 3.6479615,3.3186 c 0,0 0.866549,0.9307 2.146522,-0.128 l 8.172291,-6.3173 7.527384,-5.6331 15.480351,-10.5988 -1.2e-4,-11.416 c 0,0 -0.390733,-1.5258 -1.58832,-1.5128 z"
       sodipodi:nodetypes="cccccccccccccc" />
    <path
       d="m 8.4615445,1085.258 c 0,0 -1.1814933,-0.8519 0.2363573,-1.9893 l 3.3033222,-3.3571 c 0,0 0.945235,-0.9945 1.944659,-0.128 l 31.387451,23.4027 v 11.1966 c 0,0 -0.0148,1.7382 -2.244893,1.5462 z"
       fill="#2489ca"
       id="path13"
       style="fill:none;fill-opacity:1;stroke-width:2;stroke-dasharray:none;stroke:#1e88e5;stroke-opacity:1"
       sodipodi:nodetypes="cccccccc" />
    <path
       d="m 8.4615445,1085.258 c 0,0 -1.1814933,-0.8519 0.2363573,-1.9893 l 3.3033222,-3.3571 c 0,0 0.945235,-0.9945 1.944659,-0.128 l 31.387451,23.4027 v 11.1966 c 0,0 -0.0148,1.7382 -2.244893,1.5462 z"
       fill="#2489ca"
       id="path2-8"
       style="fill:#29b6f6;fill-opacity:1;stroke-width:3.2878"
       sodipodi:nodetypes="cccccccc" />
    <path
       d="m 43.088281,1115.8996 c 0.83696,0.8567 1.85108,0.576 1.85108,0.576 l 9.815253,-5.5344 c 1.43756,-0.98 1.23568,-2.1961 1.23568,-2.1961 v -33.0494 c 0,-1.4526 -1.486733,-1.9548 -1.486733,-1.9548 l -8.318227,-4.6925 c -2.126826,-1.3147 -3.52,0.2363 -3.52,0.2363 0,0 1.458426,-1.2073 2.334666,1.2349 v 43.8633 c 0,0.3004 0.02809,0.3496 -0.1,0.6155 -0.25596,0.5171 -0.571026,0.9996 -1.905186,0.7977 z"
       fill="#3c99d4"
       id="path8-7"
       style="fill:#81d4fa;fill-opacity:1;stroke-width:3.2878"
       sodipodi:nodetypes="ccccsccccsccc" />
  </g>
</svg>
