<?xml version="1.0" encoding="UTF-8" standalone="no"?>
<!-- Created with Inkscape (http://www.inkscape.org/) -->

<svg
   width="64"
   height="64"
   viewBox="0 0 64 64.000003"
   id="svg2"
   version="1.1"
   inkscape:version="1.4 (e7c3feb100, 2024-10-09)"
   sodipodi:docname="opera.svg"
   xmlns:inkscape="http://www.inkscape.org/namespaces/inkscape"
   xmlns:sodipodi="http://sodipodi.sourceforge.net/DTD/sodipodi-0.dtd"
   xmlns="http://www.w3.org/2000/svg"
   xmlns:svg="http://www.w3.org/2000/svg"
   xmlns:rdf="http://www.w3.org/1999/02/22-rdf-syntax-ns#"
   xmlns:cc="http://creativecommons.org/ns#"
   xmlns:dc="http://purl.org/dc/elements/1.1/">
  <defs
     id="defs4">
    <linearGradient
       id="SVGID_1_"
       gradientUnits="userSpaceOnUse"
       x1="24"
       y1="43.978298"
       x2="24"
       y2="3.6914001"
       gradientTransform="translate(0,1058.5196)">
      <stop
         offset="0"
         style="stop-color:#B31523"
         id="stop1" />
      <stop
         offset="0.4916"
         style="stop-color:#E52030"
         id="stop2" />
      <stop
         offset="1"
         style="stop-color:#EE3D4A"
         id="stop3" />
    </linearGradient>
    <linearGradient
       id="SVGID_2_"
       gradientUnits="userSpaceOnUse"
       x1="30.7936"
       y1="5.4348001"
       x2="30.7936"
       y2="55.952202"
       gradientTransform="translate(0,1058.5196)">
      <stop
         offset="0"
         style="stop-color:#B31523"
         id="stop4" />
      <stop
         offset="0.4916"
         style="stop-color:#E52030"
         id="stop5" />
      <stop
         offset="1"
         style="stop-color:#EE3D4A"
         id="stop6" />
    </linearGradient>
    <linearGradient
       id="SVGID_1_-3"
       gradientUnits="userSpaceOnUse"
       x1="24"
       y1="43.978298"
       x2="24"
       y2="3.6914001"
       gradientTransform="translate(0,1058.5196)">
      <stop
         offset="0"
         style="stop-color:#B31523"
         id="stop1-6" />
      <stop
         offset="0.4916"
         style="stop-color:#E52030"
         id="stop2-7" />
      <stop
         offset="1"
         style="stop-color:#EE3D4A"
         id="stop3-5" />
    </linearGradient>
    <linearGradient
       id="SVGID_2_-3"
       gradientUnits="userSpaceOnUse"
       x1="30.7936"
       y1="5.4348001"
       x2="30.7936"
       y2="55.952202"
       gradientTransform="translate(0,1058.5196)">
      <stop
         offset="0"
         style="stop-color:#B31523"
         id="stop4-5" />
      <stop
         offset="0.4916"
         style="stop-color:#E52030"
         id="stop5-6" />
      <stop
         offset="1"
         style="stop-color:#EE3D4A"
         id="stop6-2" />
    </linearGradient>
    <filter
       inkscape:collect="always"
       style="color-interpolation-filters:sRGB"
       id="filter6"
       x="-0.047999998"
       y="-0.047999998"
       width="1.096"
       height="1.096">
      <feGaussianBlur
         inkscape:collect="always"
         stdDeviation="1.04"
         id="feGaussianBlur6" />
    </filter>
  </defs>
  <sodipodi:namedview
     id="base"
     pagecolor="#ffffff"
     bordercolor="#666666"
     borderopacity="1.0"
     inkscape:pageopacity="0.0"
     inkscape:pageshadow="2"
     inkscape:zoom="8"
     inkscape:cx="46.5"
     inkscape:cy="34.5"
     inkscape:document-units="px"
     inkscape:current-layer="layer1"
     showgrid="false"
     units="px"
     inkscape:showpageshadow="false"
     borderlayer="true"
     inkscape:window-width="1354"
     inkscape:window-height="732"
     inkscape:window-x="0"
     inkscape:window-y="0"
     inkscape:window-maximized="1"
     showguides="true"
     inkscape:guide-bbox="true"
     inkscape:pagecheckerboard="1"
     inkscape:deskcolor="#d1d1d1">
    <inkscape:grid
       type="xygrid"
       id="grid4136"
       originx="0"
       originy="0"
       spacingy="1"
       spacingx="1"
       units="px" />
    <sodipodi:guide
       position="5,5.0000688"
       orientation="0,54"
       id="guide4144"
       inkscape:locked="false" />
    <sodipodi:guide
       position="59,5.0000688"
       orientation="-54,0"
       id="guide4146"
       inkscape:locked="false" />
    <sodipodi:guide
       position="59,59.000069"
       orientation="0,-54"
       id="guide4148"
       inkscape:locked="false" />
    <sodipodi:guide
       position="0,64.000069"
       orientation="64,0"
       id="guide4150"
       inkscape:locked="false" />
    <sodipodi:guide
       position="0,6.875e-05"
       orientation="0,64"
       id="guide4152"
       inkscape:locked="false" />
    <sodipodi:guide
       position="64,4.0000002"
       orientation="-64,0"
       id="guide4154"
       inkscape:locked="false" />
    <sodipodi:guide
       position="64,64.000069"
       orientation="0,-64"
       id="guide4156"
       inkscape:locked="false" />
    <sodipodi:guide
       position="5,41.000002"
       orientation="1,0"
       id="guide4174"
       inkscape:locked="false" />
  </sodipodi:namedview>
  <metadata
     id="metadata7">
    <rdf:RDF>
      <cc:Work
         rdf:about="">
        <dc:format>image/svg+xml</dc:format>
        <dc:type
           rdf:resource="http://purl.org/dc/dcmitype/StillImage" />
      </cc:Work>
    </rdf:RDF>
  </metadata>
  <g
     inkscape:label="Capa 1"
     inkscape:groupmode="layer"
     id="layer1"
     transform="translate(0,-1058.5196)">
    <path
       id="path1-2-6-2"
       style="opacity:0.3;fill:#000000;fill-opacity:1;stroke-linecap:round;stroke-linejoin:round;filter:url(#filter6)"
       d="m 32,1067.5196 c -14.347559,0 -26,11.6525 -26,26 0,14.3476 11.652441,26 26,26 14.34756,0 26,-11.6524 26,-26 0,-14.3475 -11.65244,-26 -26,-26 z m 0,9 c 2.7213,0 5.45397,1.8141 7.53906,4.9121 2.0851,3.098 3.46094,7.42 3.46094,12.0879 0,4.6679 -1.37584,8.9899 -3.46094,12.0879 -2.08509,3.098 -4.81777,4.9121 -7.53906,4.9121 -2.721294,0 -5.453967,-1.8141 -7.539062,-4.9121 C 22.375843,1102.5095 21,1098.1875 21,1093.5196 c 0,-4.6679 1.375845,-8.9899 3.460938,-12.0879 2.085093,-3.098 4.817763,-4.9121 7.539062,-4.9121 z" />
    <path
       id="path1-2-6"
       style="fill:none;fill-opacity:1;stroke:#d32f2f;stroke-width:2;stroke-linecap:round;stroke-linejoin:round;stroke-dasharray:none;stroke-opacity:1"
       d="m 32,1066.5196 a 25,25 0 0 0 -25,25 25,25 0 0 0 25,25 25,25 0 0 0 25,-25 25,25 0 0 0 -25,-25 z m 0,7 c 6.316,0 12,8.2746 12,18 0,9.7253 -5.684,18 -12,18 -6.316,0 -12,-8.2747 -12,-18 0,-9.7254 5.684001,-18 12,-18 z" />
    <path
       id="path4"
       style="opacity:1;fill:#000000;stroke-width:2.12766;stroke-linecap:round;stroke-linejoin:round"
       d="m 32,1066.5196 a 25,25 0 0 0 -25,25 25,25 0 0 0 25,25 25,25 0 0 0 25,-25 25,25 0 0 0 -25,-25 z m 0,7 c 6.316,0 12,8.2746 12,18 0,9.7253 -5.683999,18 -12,18 -6.316,0 -12,-8.2747 -12,-18 0,-9.7254 5.684001,-18 12,-18 z" />
    <path
       id="path1-2"
       style="opacity:1;fill:#f44336;stroke-width:2.12766;stroke-linecap:round;stroke-linejoin:round;fill-opacity:1"
       d="m 32,1066.5196 a 25,25 0 0 0 -25,25 25,25 0 0 0 25,25 25,25 0 0 0 25,-25 25,25 0 0 0 -25,-25 z m 0,7 c 6.316,0 12,8.2746 12,18 0,9.7253 -5.683999,18 -12,18 -6.316,0 -12,-8.2747 -12,-18 0,-9.7254 5.684001,-18 12,-18 z" />
    <path
       id="path2"
       style="opacity:1;fill:#ff8a65;stroke-width:1.85028;fill-opacity:1"
       d="m 38.5,1069.0196 c -8.974034,0 -17.114137,8.7819 -18.335938,19.668 0.96752,-8.4465 6.143785,-15.168 11.835938,-15.168 6.316,0 12,8.2746 12,18 0,9.7253 -5.683999,18 -12,18 -5.397318,0 -10.330678,-6.0444 -11.652344,-13.8711 1.706495,10.2632 9.546306,18.3399 18.152344,18.3399 9.737168,0 18.5,-10.3362 18.5,-22.4844 0,-12.1482 -8.762833,-22.4844 -18.5,-22.4844 z m -18.363281,19.9141 c -0.01894,0.185 -0.03588,0.3704 -0.05078,0.5566 0.01521,-0.1861 0.03151,-0.3721 0.05078,-0.5566 z m -0.09375,1.1914 c -0.0064,0.1165 -0.01476,0.2326 -0.01953,0.3496 0.0049,-0.1172 0.013,-0.233 0.01953,-0.3496 z m -0.01953,2.4609 c 0.0024,0.057 0.0069,0.1132 0.0098,0.1699 -0.0028,-0.057 -0.0073,-0.113 -0.0098,-0.1699 z m 0.07031,1.0488 c 0.0081,0.095 0.01627,0.1902 0.02539,0.2852 -0.0092,-0.095 -0.01728,-0.19 -0.02539,-0.2852 z m 0.101562,0.9668 c 0.01554,0.1258 0.0295,0.2518 0.04688,0.377 -0.01754,-0.1249 -0.03118,-0.2513 -0.04688,-0.377 z" />
    <path
       id="path2-0"
       style="fill:#d32f2f;fill-opacity:1;stroke-width:1.85028"
       d="m 38.500001,1069.0196 c -8.53996,0 -16.319409,7.9545 -18.105469,18.1055 1.251859,-6.9494 5.35271,-12.4372 10.064453,-13.4395 a 16.488501,22.484501 0 0 1 9.316406,-4.5996 c -0.42306,-0.039 -0.84792,-0.066 -1.27539,-0.066 z m -18.105469,18.1055 c -0.09078,0.5159 -0.17137,1.0359 -0.230469,1.5625 0.06047,-0.5279 0.13802,-1.0493 0.230469,-1.5625 z m -0.257812,1.8086 c -0.01894,0.185 -0.03588,0.3704 -0.05078,0.5566 0.01521,-0.1861 0.03151,-0.3721 0.05078,-0.5566 z m -0.09375,1.1914 c -0.0064,0.1165 -0.01476,0.2326 -0.01953,0.3496 0.0049,-0.1172 0.013,-0.233 0.01953,-0.3496 z m 36.957031,1.3789 a 16.488501,22.484501 0 0 1 -0.11328,2.3554 c 0.07271,-0.7762 0.11328,-1.5613 0.11328,-2.3554 z m -36.976562,1.082 c 0.0024,0.057 0.0069,0.1132 0.0098,0.1699 -0.0028,-0.057 -0.0073,-0.113 -0.0098,-0.1699 z m 0.07031,1.0488 c 0.0081,0.095 0.01627,0.1902 0.02539,0.2852 -0.0092,-0.095 -0.01728,-0.19 -0.02539,-0.2852 z m 0.101562,0.9668 c 0.01554,0.1258 0.0295,0.2518 0.04688,0.377 -0.01754,-0.1249 -0.03118,-0.2513 -0.04688,-0.377 z m 0.152344,1.0469 c 0.0811,0.4878 0.180827,0.9681 0.289063,1.4453 -0.110052,-0.4742 -0.206459,-0.9561 -0.289063,-1.4453 z m 0.289063,1.4453 c 2.169128,9.5648 9.666259,16.8946 17.863281,16.8946 0.42747,0 0.85233,-0.027 1.27539,-0.066 a 16.488501,22.484501 0 0 1 -9.277343,-4.5585 c -4.458026,-0.9237 -8.375417,-5.8669 -9.861328,-12.2696 z" />
  </g>
</svg>
