<?xml version="1.0" encoding="UTF-8" standalone="no"?>
<svg
   viewBox="0 0 32 32"
   width="32px"
   height="32px"
   version="1.1"
   id="svg1"
   sodipodi:docname="brave.svg"
   inkscape:version="1.4 (e7c3feb100, 2024-10-09)"
   xmlns:inkscape="http://www.inkscape.org/namespaces/inkscape"
   xmlns:sodipodi="http://sodipodi.sourceforge.net/DTD/sodipodi-0.dtd"
   xmlns="http://www.w3.org/2000/svg"
   xmlns:svg="http://www.w3.org/2000/svg">
  <defs
     id="defs1">
    <filter
       inkscape:collect="always"
       style="color-interpolation-filters:sRGB"
       id="filter1"
       x="-0.051085497"
       y="-0.045265991"
       width="1.102171"
       height="1.090532">
      <feGaussianBlur
         inkscape:collect="always"
         stdDeviation="0.52474054"
         id="feGaussianBlur1" />
    </filter>
  </defs>
  <sodipodi:namedview
     id="namedview1"
     pagecolor="#ffffff"
     bordercolor="#000000"
     borderopacity="0.25"
     inkscape:showpageshadow="2"
     inkscape:pageopacity="0.0"
     inkscape:pagecheckerboard="0"
     inkscape:deskcolor="#d1d1d1"
     showgrid="true"
     inkscape:zoom="12.529048"
     inkscape:cx="16.042719"
     inkscape:cy="14.047356"
     inkscape:window-width="1354"
     inkscape:window-height="732"
     inkscape:window-x="0"
     inkscape:window-y="0"
     inkscape:window-maximized="1"
     inkscape:current-layer="svg1">
    <inkscape:grid
       id="grid1"
       units="px"
       originx="0"
       originy="0"
       spacingx="1"
       spacingy="1"
       empcolor="#0099e5"
       empopacity="0.30196078"
       color="#0099e5"
       opacity="0.14901961"
       empspacing="5"
       dotted="false"
       gridanglex="30"
       gridanglez="30"
       visible="true" />
  </sodipodi:namedview>
  <path
     d="M 11.585938,3.0003773 9.6230469,4.9632679 C 8.8686522,4.8595759 8.1169404,4.9631591 7.4667969,5.2660023 6.5799707,5.6790946 5.8091588,6.2902451 5.2753906,6.9906117 L 3.6738281,9.0882679 4.7832031,10.197643 3.9453125,11.875377 6.6523438,23.611705 C 6.9508425,24.903118 7.7498933,26.024373 8.875,26.726939 l 6.064453,3.791016 c 0.647216,0.405509 1.473878,0.405509 2.121094,0 L 23.125,26.726939 c 1.123998,-0.703123 1.924126,-1.823683 2.222656,-3.115234 L 28.054688,11.875377 27.216797,10.197643 28.326172,9.0882679 26.724609,6.9906117 C 26.190841,6.2902451 25.420029,5.6790946 24.533203,5.2660023 23.88306,4.9631591 23.131348,4.8595759 22.376953,4.9632679 L 20.414062,3.0003773 H 20 Z"
     id="path1"
     style="opacity:0.3;fill:#000000;fill-opacity:1;filter:url(#filter1)" />
  <path
     d="M 11.585938,2 9.6230469,3.9628906 C 8.8686522,3.8591986 8.1169404,3.9627818 7.4667969,4.265625 6.5799707,4.6787173 5.8091588,5.2898678 5.2753906,5.9902344 L 3.6738281,8.0878906 4.7832031,9.1972656 3.9453125,10.875 6.6523438,22.611328 C 6.9508425,23.902741 7.7498933,25.023996 8.875,25.726562 l 6.064453,3.791016 c 0.647216,0.405509 1.473878,0.405509 2.121094,0 L 23.125,25.726562 c 1.123998,-0.703123 1.924126,-1.823683 2.222656,-3.115234 L 28.054688,10.875 27.216797,9.1972656 28.326172,8.0878906 26.724609,5.9902344 C 26.190841,5.2898678 25.420029,4.6787173 24.533203,4.265625 23.88306,3.9627818 23.131348,3.8591986 22.376953,3.9628906 L 20.414062,2 H 20 Z"
     id="path7"
     style="fill:#f4511e;fill-opacity:1" />
  <path
     id="path6"
     style="fill:#ff7043;fill-opacity:1"
     d="M 19.855469 2.8964844 L 12.005859 2.9941406 L 9.9726562 5.0273438 L 9.4726562 4.9511719 C 8.6886059 4.8323725 7.9866911 5.0449883 7.2949219 5.4960938 C 6.6031526 5.9471993 5.9606722 6.645523 5.46875 7.3808594 L 5.4511719 7.4082031 L 5 8 L 5.96875 8.96875 L 5.7011719 9.5917969 C 5.4209191 10.244103 5.1434065 10.694208 5.0117188 11.041016 C 5.9319503 14.976077 6.7948981 18.91491 7.75 22.814453 C 8.1128142 24.09757 9.3787327 24.901038 10.828125 25.769531 L 10.833984 25.771484 L 10.839844 25.775391 C 12.454626 26.769902 14.024828 27.793003 15.615234 28.738281 C 15.960022 28.890424 16.155587 28.847382 16.589844 28.626953 C 17.013006 28.412155 17.534524 28.000184 18.164062 27.648438 C 19.852011 26.558774 21.557995 25.591983 23.107422 24.494141 C 24.3444 23.504108 24.468764 21.666823 25.009766 19.628906 L 27 11 L 26 9 L 26.992188 8.0078125 C 26.018422 6.7245128 25.167427 5.5339916 23.951172 5.1035156 L 23.914062 5.0898438 L 23.876953 5.0742188 C 23.704971 4.9973571 23.33669 4.9929379 22.761719 4.9375 C 22.231035 4.8863327 21.42029 4.6209691 20.9375 3.9433594 C 20.421185 3.4758393 20.080077 3.0523287 19.855469 2.8964844 z " />
  <path
     id="path5"
     d="M 16 6.2324219 C 15.647061 6.2324219 15.293146 6.2890036 14.953125 6.4023438 L 14.021484 6.7128906 C 13.339111 6.9413516 12.598058 6.9155635 11.933594 6.6425781 L 11.138672 6.3164062 C 10.730482 6.148477 10.275426 6.2617463 9.9921875 6.5996094 L 7.2285156 9.8964844 C 6.686702 10.543473 6.6793602 11.459773 7.1933594 12.125 L 10.027344 14.677734 C 10.760719 15.337574 10.899471 16.453487 10.353516 17.273438 L 10.351562 17.275391 L 10.302734 17.349609 C 9.7385389 18.195233 9.8887563 19.309201 10.658203 19.972656 L 10.662109 19.976562 L 11.378906 20.607422 L 14.482422 18.746094 C 14.641653 18.650559 14.829398 18.663089 15 18.599609 L 15 16.720703 L 11.804688 15.65625 L 12.787109 11.728516 L 9.7578125 10.970703 L 10.242188 9.0292969 L 15.212891 10.271484 L 14.195312 14.34375 L 16 14.945312 L 17.804688 14.34375 L 16.787109 10.271484 L 21.757812 9.0292969 L 22.242188 10.970703 L 19.212891 11.728516 L 20.195312 15.65625 L 17 16.720703 L 17 18.580078 C 17.168697 18.639277 17.353402 18.622673 17.511719 18.712891 L 17.523438 18.71875 L 20.628906 20.603516 L 21.822266 19.556641 L 21.824219 19.554688 C 22.440075 19.023756 22.673619 18.180345 22.416016 17.408203 L 22.222656 16.830078 C 22.009451 16.18847 22.135583 15.477981 22.558594 14.949219 L 24.800781 12.146484 C 25.33211 11.483139 25.324736 10.550882 24.779297 9.8964844 L 22.105469 6.6875 C 21.840152 6.3693265 21.414823 6.2479463 21.021484 6.3789062 L 19.949219 6.7382812 L 19.947266 6.7382812 C 19.331756 6.9434509 18.666291 6.9434509 18.050781 6.7382812 L 17.044922 6.4023438 C 16.704901 6.289004 16.352939 6.2324219 16 6.2324219 z M 16.013672 20.318359 C 15.839079 20.320463 15.665256 20.367648 15.509766 20.460938 L 12.955078 21.992188 L 15.339844 24.087891 C 15.723487 24.424786 16.277262 24.424128 16.660156 24.087891 L 19.052734 21.988281 L 16.521484 20.449219 C 16.363629 20.359229 16.188265 20.316259 16.013672 20.318359 z "
     style="fill:#fafafa;fill-opacity:1" />
  <path
     d="m 8.0058594,18.984375 c 0.00105,0.0079 0.00281,0.01553 0.00391,0.02344 L 8,19 Z"
     id="path4" />
  <path
     d="M 7.0292969,7.0214844 6.7519531,7.3515625 6.8652344,7.203125 c 0.043666,-0.057295 0.106998,-0.1201731 0.1640625,-0.1816406 z"
     id="path3" />
</svg>
