<?xml version="1.0" encoding="UTF-8" standalone="no"?>
<!-- Created with Inkscape (http://www.inkscape.org/) -->

<svg
   width="24"
   height="24"
   viewBox="0 0 24 24"
   id="svg2"
   version="1.1"
   inkscape:version="1.3.2 (091e20ef0f, 2023-11-25)"
   sodipodi:docname="go-home.svg"
   xmlns:inkscape="http://www.inkscape.org/namespaces/inkscape"
   xmlns:sodipodi="http://sodipodi.sourceforge.net/DTD/sodipodi-0.dtd"
   xmlns="http://www.w3.org/2000/svg"
   xmlns:svg="http://www.w3.org/2000/svg"
   xmlns:rdf="http://www.w3.org/1999/02/22-rdf-syntax-ns#"
   xmlns:cc="http://creativecommons.org/ns#"
   xmlns:dc="http://purl.org/dc/elements/1.1/">
  <defs
     id="defs3051">
    <style
       type="text/css"
       id="current-color-scheme">
    .ColorScheme-Text {
    color:#F5F5F5;
    }
    </style>
  </defs>
  <sodipodi:namedview
     id="base"
     pagecolor="#ffffff"
     bordercolor="#666666"
     borderopacity="1.0"
     inkscape:pageopacity="0.0"
     inkscape:pageshadow="2"
     inkscape:zoom="19.204546"
     inkscape:cx="10.986982"
     inkscape:cy="11.013017"
     inkscape:document-units="px"
     inkscape:current-layer="layer1"
     showgrid="true"
     units="px"
     inkscape:showpageshadow="false"
     borderlayer="true"
     showguides="true"
     inkscape:guide-bbox="true"
     inkscape:window-width="1354"
     inkscape:window-height="756"
     inkscape:window-x="0"
     inkscape:window-y="0"
     inkscape:window-maximized="1"
     inkscape:pagecheckerboard="0"
     inkscape:deskcolor="#d1d1d1">
    <inkscape:grid
       type="xygrid"
       id="grid4136"
       empspacing="2"
       originx="0"
       originy="0"
       spacingy="1"
       spacingx="1"
       units="px"
       visible="true" />
  </sodipodi:namedview>
  <metadata
     id="metadata7">
    <rdf:RDF>
      <cc:Work
         rdf:about="">
        <dc:format>image/svg+xml</dc:format>
        <dc:type
           rdf:resource="http://purl.org/dc/dcmitype/StillImage" />
      </cc:Work>
    </rdf:RDF>
  </metadata>
  <g
     inkscape:label="Capa 1"
     inkscape:groupmode="layer"
     id="layer1"
     transform="translate(0,-1030.3622)">
    <path
       style="fill:currentColor;fill-opacity:1;stroke:none"
       class="ColorScheme-Text"
       d="m 11.999999,1033.3623 v 0 a 0.99938989,0.99789228 0 0 0 -0.01758,0 0.99938989,0.99789228 0 0 0 -0.0332,0 0.99938989,0.99789228 0 0 0 -0.634735,0.2675 l -7.9136797,5.9258 a 0.99938989,0.99789228 0 0 0 -0.4003702,0.7989 v 1.9961 a 0.99938989,0.99789228 0 0 0 0.9979986,1.0273 0.99938989,0.99789228 0 0 1 0.00195,0 v 1.9844 4 c 0,1.108 0.8919469,2 1.9999033,2 h 2.9998548 1.9999032 0.999952 0.999951 1.999903 2.999855 c 1.107957,0 1.999904,-0.892 1.999904,-2 v -4 -1.9844 a 0.99938986,0.99789228 0 0 0 0.002,0 0.99938986,0.99789228 0 0 0 0.997998,-1.0273 v -1.9961 a 0.99938986,0.99789228 0 0 0 -0.400371,-0.7969 l -7.91368,-5.9258 a 0.99938986,0.99789228 0 0 0 -0.634735,-0.2675 0.99938986,0.99789228 0 0 0 -0.0332,0 0.99938986,0.99789228 0 0 0 -0.01758,0 z m 0,2.25 7.001614,5.2422 v 1.4961 a 0.99938986,0.99789228 0 0 0 0,0.012 h -0.002 -0.999952 v 1 2 4 H 15.999758 14.999806 12.999903 11.999952 11 9.0000968 8.0001452 6.000242 v -4 -2 -1 h -0.9999517 -0.00195 a 0.99938989,0.99789228 0 0 0 0,-0.012 v -1.4961 l 7.0016147,-5.2422 z"
       id="rect3211"
       inkscape:connector-curvature="0" />
  </g>
</svg>
