<?xml version="1.0" encoding="UTF-8" standalone="no"?>
<!-- Created with Inkscape (http://www.inkscape.org/) -->

<svg
   width="32"
   height="32"
   viewBox="0 0 32 32.000001"
   id="svg2"
   version="1.1"
   inkscape:version="1.4 (e7c3feb100, 2024-10-09)"
   sodipodi:docname="vscode.svg"
   xmlns:inkscape="http://www.inkscape.org/namespaces/inkscape"
   xmlns:sodipodi="http://sodipodi.sourceforge.net/DTD/sodipodi-0.dtd"
   xmlns="http://www.w3.org/2000/svg"
   xmlns:svg="http://www.w3.org/2000/svg"
   xmlns:rdf="http://www.w3.org/1999/02/22-rdf-syntax-ns#"
   xmlns:cc="http://creativecommons.org/ns#"
   xmlns:dc="http://purl.org/dc/elements/1.1/">
  <defs
     id="defs4">
    <linearGradient
       id="paint0_linear"
       x1="127.844"
       y1="0.65998799"
       x2="127.844"
       y2="255.34"
       gradientUnits="userSpaceOnUse"
       gradientTransform="matrix(0.1616951,0,0,0.22940381,61.554994,-7.960884)">
      <stop
         stop-color="white"
         id="stop51" />
      <stop
         offset="1"
         stop-color="white"
         stop-opacity="0"
         id="stop53" />
    </linearGradient>
    <filter
       inkscape:collect="always"
       style="color-interpolation-filters:sRGB"
       id="filter4"
       x="-0.047935484"
       y="-0.04806469"
       width="1.095871"
       height="1.0961294">
      <feGaussianBlur
         inkscape:collect="always"
         stdDeviation="0.51965242"
         id="feGaussianBlur4" />
    </filter>
  </defs>
  <sodipodi:namedview
     id="base"
     pagecolor="#ffffff"
     bordercolor="#666666"
     borderopacity="1.0"
     inkscape:pageopacity="0.0"
     inkscape:pageshadow="2"
     inkscape:zoom="16"
     inkscape:cx="25.25"
     inkscape:cy="15.875"
     inkscape:document-units="px"
     inkscape:current-layer="layer1"
     showgrid="true"
     inkscape:window-width="1354"
     inkscape:window-height="732"
     inkscape:window-x="0"
     inkscape:window-y="0"
     inkscape:window-maximized="1"
     inkscape:showpageshadow="false"
     borderlayer="true"
     units="px"
     inkscape:pagecheckerboard="0"
     inkscape:deskcolor="#d1d1d1">
    <inkscape:grid
       type="xygrid"
       id="grid4155"
       empspacing="2"
       originx="0"
       originy="0"
       spacingy="1"
       spacingx="1"
       units="px" />
    <sodipodi:guide
       position="2,30.000018"
       orientation="28,0"
       id="guide4159"
       inkscape:locked="false" />
    <sodipodi:guide
       position="2,2.0000174"
       orientation="0,28"
       id="guide4161"
       inkscape:locked="false" />
    <sodipodi:guide
       position="30,2.0000174"
       orientation="-28,0"
       id="guide4163"
       inkscape:locked="false" />
    <sodipodi:guide
       position="30,30.000018"
       orientation="0,-28"
       id="guide4165"
       inkscape:locked="false" />
  </sodipodi:namedview>
  <metadata
     id="metadata7">
    <rdf:RDF>
      <cc:Work
         rdf:about="">
        <dc:format>image/svg+xml</dc:format>
        <dc:type
           rdf:resource="http://purl.org/dc/dcmitype/StillImage" />
        <dc:title />
      </cc:Work>
    </rdf:RDF>
  </metadata>
  <g
     inkscape:label="Layer 1"
     inkscape:groupmode="layer"
     id="layer1"
     transform="translate(0,-1020.3622)">
    <path
       id="path2-3"
       style="fill:#000000;stroke-linecap:round;stroke-linejoin:round;fill-opacity:1;filter:url(#filter4);opacity:0.3"
       d="m 22.203785,1025.3775 c -1.268847,0.061 -2.064425,1.1923 -3.010962,1.9035 -2.599861,2.2315 -5.199723,4.463 -7.799585,6.6945 -1.271484,-0.9284 -2.5429688,-1.8568 -3.8144528,-2.7852 -0.481417,-0.5025 -2.026011,-0.4719 -2.544842,0.4413 -0.640019,0.7186 -1.456694,1.3081 -1.923911,2.1543 -0.427734,1.0533 0.531133,1.7719 1.228776,2.3654 0.776607,0.6874 1.553213,1.3749 2.32982,2.0623 -1.051432,0.9759 -2.102865,1.9519 -3.154297,2.9278 -0.74266,0.5733 -0.574911,2.0131 0.279477,2.5554 0.759817,0.609 1.361347,1.4521 2.265453,1.8013 0.927567,0.2045 1.581642,-0.3323 2.225699,-0.8532 1.006147,-0.7779 2.0122948,-1.5559 3.0184418,-2.3338 3.260485,2.8723 6.497614,5.7739 9.772703,8.6279 0.739122,0.5575 1.761647,0.4828 2.476985,-0.063 1.525749,-0.8845 3.097067,-1.6987 4.593402,-2.6286 0.814488,-0.6239 0.915489,-1.6133 0.863944,-2.1503 -0.01057,-5.4698 0.0212,-10.9409 -0.01597,-16.4099 -0.132142,-1.0592 -1.141002,-1.5534 -1.555894,-1.7765 -1.467522,-0.7939 -2.882794,-1.698 -4.386613,-2.4154 -0.280061,-0.093 -0.564721,-0.1297 -0.848176,-0.118 z m -0.1875,9.5078 c 0,2.2819 0,4.5638 0,6.8457 -1.645833,-1.2018 -3.291667,-2.4037 -4.9375,-3.6055 1.645833,-1.0801 3.291667,-2.1601 4.9375,-3.2402 z" />
    <path
       id="path2"
       style="fill:none;fill-opacity:1;stroke-width:2;stroke:#01579b;stroke-opacity:1;stroke-dasharray:none;stroke-linejoin:round;stroke-linecap:round"
       d="m 21.333335,1025.7447 -10.170537,8.7277 -3.1335492,2.8263 -3.8498359,3.5722 c 0,0 -0.4036787,0.3004 0,0.8371 l 1.8239799,1.6595 c 0,0 0.4332747,0.4652 1.0732613,-0.064 l 4.0861439,-3.1588 3.763691,-2.8164 L 23,1032.0288 v -5.708 c -0.158556,-0.8321 -1.180814,-0.8728 -1.666665,-0.5761 z"
       sodipodi:nodetypes="cccccccccccc" />
    <path
       d="m 21.544812,1049.0521 c 0.418474,0.4283 0.925538,0.288 0.925538,0.288 l 4.906956,-2.7672 c 0.718773,-0.49 0.617841,-1.0981 0.617841,-1.0981 v -16.5247 c 0,-0.7262 -0.743371,-0.9773 -0.743371,-0.9773 l -4.15845,-2.3463 c -1.063411,-0.6573 -1.759991,0.1187 -1.759991,0.1187 0,0 1.103542,-0.3949 1.666665,0.5761 v 21.8499 c -0.480249,0.4757 -0.850174,0.7007 -1.501937,0.8297 z"
       fill="#3c99d4"
       id="path1"
       style="fill:none;fill-opacity:1;stroke-width:2;stroke:#09a7f8;stroke-opacity:1;stroke-dasharray:none;stroke-linejoin:round;stroke-linecap:round"
       sodipodi:nodetypes="ccccsccccscc" />
    <path
       id="path4-2"
       style="fill:#0277bd;fill-opacity:1;stroke-width:3.2878"
       d="m 21.333335,1025.7447 -10.170537,8.7277 -3.1335492,2.8263 -3.8498359,3.5722 c 0,0 -0.4036787,0.3004 0,0.8371 l 1.8239799,1.6595 c 0,0 0.4332747,0.4652 1.0732613,-0.064 l 4.0861439,-3.1588 3.763691,-2.8164 L 23,1032.0288 v -5.708 c -0.158556,-0.8321 -1.180814,-0.8728 -1.666665,-0.5761 z"
       sodipodi:nodetypes="cccccccccccc" />
    <path
       d="m 4.2307742,1033.7313 c 0,0 -0.590748,-0.426 0.1181733,-0.9946 l 1.65166,-1.6786 c 0,0 0.4726173,-0.4973 0.9723293,-0.064 L 23,1042.6955 v 5.5836 c 0,0 -0.340236,0.869 -1.455188,0.773 z"
       fill="#2489ca"
       id="path3"
       style="fill:none;fill-opacity:1;stroke-width:2;stroke:#1e88e5;stroke-opacity:1;stroke-dasharray:none;stroke-linejoin:round;stroke-linecap:round"
       sodipodi:nodetypes="cccccccc" />
    <path
       d="m 21.544812,1049.0521 c 0.418474,0.4283 0.925538,0.288 0.925538,0.288 l 4.906956,-2.7672 c 0.718773,-0.49 0.617841,-1.0981 0.617841,-1.0981 v -16.5247 c 0,-0.7262 -0.743371,-0.9773 -0.743371,-0.9773 l -4.15845,-2.3463 c -1.063411,-0.6573 -1.759991,0.1187 -1.759991,0.1187 0,0 1.103542,-0.3949 1.666665,0.5761 v 21.8499 c -0.480249,0.4757 -0.850174,0.7007 -1.501937,0.8297 z"
       fill="#3c99d4"
       id="path8-2"
       style="fill:#81d4fa;fill-opacity:1;stroke-width:3.2878"
       sodipodi:nodetypes="ccccsccccscc" />
    <path
       d="m 4.2307742,1033.7313 c 0,0 -0.590748,-0.426 0.1181733,-0.9946 l 1.65166,-1.6786 c 0,0 0.4726173,-0.4973 0.9723293,-0.064 L 23,1042.6955 v 5.5836 c 0,0 -0.340236,0.869 -1.455188,0.773 z"
       fill="#2489ca"
       id="path2-0"
       style="fill:#29b6f6;fill-opacity:1;stroke-width:3.2878"
       sodipodi:nodetypes="cccccccc" />
  </g>
</svg>
