<?xml version="1.0" encoding="UTF-8" standalone="no"?>
<svg
   width="22"
   height="22"
   viewBox="0 0 22 22"
   id="svg2"
   version="1.1"
   inkscape:version="1.4 (e7c3feb100, 2024-10-09)"
   sodipodi:docname="microphone-sensitivity-medium-symbolic.svg"
   xmlns:inkscape="http://www.inkscape.org/namespaces/inkscape"
   xmlns:sodipodi="http://sodipodi.sourceforge.net/DTD/sodipodi-0.dtd"
   xmlns="http://www.w3.org/2000/svg"
   xmlns:svg="http://www.w3.org/2000/svg"
   xmlns:rdf="http://www.w3.org/1999/02/22-rdf-syntax-ns#"
   xmlns:cc="http://creativecommons.org/ns#"
   xmlns:dc="http://purl.org/dc/elements/1.1/">
  <defs
     id="defs3051">
    <style
       type="text/css"
       id="current-color-scheme">
    .ColorScheme-Text {
    color:#f5f5f5;
    }
    </style>
  </defs>
  <sodipodi:namedview
     id="base"
     pagecolor="#ffffff"
     bordercolor="#666666"
     borderopacity="1.0"
     inkscape:pageopacity="0.0"
     inkscape:pageshadow="2"
     inkscape:zoom="23.636364"
     inkscape:cx="10.978846"
     inkscape:cy="11"
     inkscape:document-units="px"
     inkscape:current-layer="layer1"
     showgrid="true"
     units="px"
     inkscape:showpageshadow="false"
     borderlayer="true"
     showguides="true"
     inkscape:guide-bbox="true"
     inkscape:window-width="1354"
     inkscape:window-height="732"
     inkscape:window-x="0"
     inkscape:window-y="0"
     inkscape:window-maximized="1"
     inkscape:document-rotation="0"
     inkscape:pagecheckerboard="0"
     inkscape:deskcolor="#d1d1d1">
    <inkscape:grid
       type="xygrid"
       id="grid4136"
       empspacing="2"
       originx="0"
       originy="0"
       spacingy="1"
       spacingx="1"
       units="px" />
    <sodipodi:guide
       position="0,20"
       orientation="0,1"
       id="guide4140"
       inkscape:label="Icon Max Height"
       inkscape:color="rgb(233,30,99)"
       inkscape:locked="false" />
    <sodipodi:guide
       position="0,2"
       orientation="0,1"
       id="guide4142"
       inkscape:label="Icon Baseline"
       inkscape:color="rgb(233,30,99)"
       inkscape:locked="false" />
    <sodipodi:guide
       position="11,0"
       orientation="1,0"
       id="guide4144"
       inkscape:label="Center Vertical"
       inkscape:color="rgb(221,44,0)"
       inkscape:locked="false" />
    <sodipodi:guide
       position="15,11"
       orientation="0,1"
       id="guide4146"
       inkscape:label="Center Horizontal"
       inkscape:color="rgb(221,44,0)"
       inkscape:locked="false" />
  </sodipodi:namedview>
  <metadata
     id="metadata7">
    <rdf:RDF>
      <cc:Work
         rdf:about="">
        <dc:format>image/svg+xml</dc:format>
        <dc:type
           rdf:resource="http://purl.org/dc/dcmitype/StillImage" />
      </cc:Work>
    </rdf:RDF>
  </metadata>
  <g
     inkscape:label="Capa 1"
     inkscape:groupmode="layer"
     id="layer1"
     transform="translate(0,-1030.3622)">
    <path
       id="path2"
       style="color:#f5f5f5;fill:currentColor;fill-opacity:1;stroke:none"
       class="ColorScheme-Text"
       d="m 15.256198,1035.1119 c 0.06818,0.068 0.128544,0.1427 0.187494,0.2158 -0.05683,-0.075 -0.119314,-0.1476 -0.187494,-0.2158 z m 0,0 c -0.06464,-0.065 -0.136109,-0.1219 -0.204696,-0.1792 0.07142,0.054 0.140054,0.1146 0.204696,0.1792 z m -0.204696,-0.1792 c -0.07142,-0.054 -0.144904,-0.1039 -0.221126,-0.149 0.07622,0.045 0.149709,0.095 0.221126,0.149 z m -0.221126,-0.149 c -0.06454,-0.038 -0.130183,-0.072 -0.197205,-0.1039 0.06773,0.031 0.133372,0.066 0.197205,0.1039 z m 0.613316,0.544 c 0.05683,0.075 0.108579,0.1539 0.154425,0.2351 -0.04585,-0.081 -0.0976,-0.1599 -0.154425,-0.2351 z m 0.154425,0.2351 c 0.04585,0.081 0.08616,0.1653 0.121391,0.2515 -0.03523,-0.086 -0.07554,-0.1703 -0.121391,-0.2515 z m 0.121391,0.2515 c 0.03523,0.086 0.06481,0.1737 0.08973,0.2638 -0.02499,-0.09 -0.05457,-0.1776 -0.08973,-0.2638 z m -1.088426,-1.1351 c -0.07573,-0.035 -0.154094,-0.064 -0.233427,-0.09 0.07962,0.026 0.157975,0.055 0.233427,0.09 z m 1.2084,1.5178 c 0.01708,0.079 0.03043,0.1605 0.04003,0.2417 -0.0093,-0.082 -0.02268,-0.1627 -0.04003,-0.2417 z m 0.04003,0.2417 c 0.0093,0.081 0.01491,0.1628 0.01658,0.2458 -0.002,-0.083 -0.007,-0.1646 -0.01658,-0.2458 z m 0.01658,0.2458 c 0.002,0.083 -8.51e-4,0.1659 -0.0069,0.25 0.0062,-0.084 0.0086,-0.1671 0.0069,-0.25 z m -0.006,0.249 c -0.0062,0.084 -0.01529,0.1682 -0.02899,0.2528 0.01335,-0.084 0.02296,-0.1687 0.02899,-0.2528 z m -0.02899,0.2528 c -0.01405,0.085 -0.03114,0.1695 -0.05248,0.2541 0.02142,-0.085 0.03878,-0.1695 0.05248,-0.2541 z m -0.05248,0.2541 c -0.02142,0.085 -0.04704,0.1688 -0.07594,0.2527 0.02904,-0.084 0.0546,-0.1681 0.07594,-0.2527 z m -0.07594,0.2527 c -0.02904,0.084 -0.06018,0.1685 -0.09668,0.2514 0.03622,-0.083 0.06771,-0.1674 0.09668,-0.2514 z m -0.09668,0.2514 c -0.03622,0.082 -0.07755,0.1647 -0.121558,0.2458 0.04436,-0.082 0.08506,-0.163 0.121558,-0.2458 z m -1.785759,-3.4679 c -0.0773,-0.01 -0.154832,-0.01 -0.233398,-0.01 0.07878,-4e-4 0.156167,0 0.233398,0.01 z m -0.233398,-0.01 c -0.07878,4e-4 -0.158096,0 -0.237557,0.011 0.07925,-0.01 0.158991,-0.011 0.237557,-0.011 z m -0.845209,0.1325 c -0.08222,0.025 -0.165463,0.057 -0.247225,0.09 0.08169,-0.033 0.16465,-0.064 0.247225,-0.09 z m -0.51102,0.21 c -0.07707,0.039 -0.153743,0.081 -0.22922,0.127 0.07585,-0.046 0.151927,-0.088 0.22922,-0.127 z m -0.22922,0.127 c -0.06607,0.04 -0.131703,0.082 -0.1961,0.1271 0.06426,-0.045 0.13005,-0.087 0.1961,-0.1271 z m 4.984268,4.755 c -0.09351,0.1172 -0.193239,0.2312 -0.299674,0.3411 0.106512,-0.11 0.206164,-0.2239 0.299674,-0.3411 z m -6.714752,-6.0076 c -1.2e-5,0 -0.0071,0.01 -0.0099,0.01 l -3.9001177,3.9001 -1.0648321,1.0648 c -1.7681854,1.768 -1.7680359,4.6149 5.08e-5,6.3833 1.269348,1.2691 3.0906382,1.6109 4.6735051,1.0579 l 1.12e-5,2.2677 -1.9998129,0 c -0.5539604,2e-4 -0.9997554,0.4459 -0.999849,0.9999 6.3e-5,0.554 0.4460811,1 0.9998932,0.9999 l 5.9993674,0 c 0.553994,-1e-4 0.999889,-0.4459 0.999849,-0.9999 5.6e-5,-0.554 -0.445828,-0.9999 -0.999893,-0.9999 l -1.999742,0 5e-6,-2.9997 0.0014,-0.6173 0.773362,-0.7734 3.900118,-3.9001 c 0,0 0.0071,-0.01 0.0099,-0.01 l -1.445978,-1.446 c -0.101169,0.1353 -0.214025,0.2665 -0.338344,0.3908 l -2.838115,2.8382 -3.545201,-3.5452 2.836736,-2.8395 c 0.124958,-0.125 0.256172,-0.236 0.392206,-0.337 z m -3.2013465,6.0408 3.5452015,3.5452 c -1.1786863,1.1788 -2.9178284,1.3388 -3.9000895,0.3563 -0.9823475,-0.9821 -0.8236499,-2.7228 0.354888,-3.9015 z" />
    <path
       id="rect852-3"
       style="color:#f5f5f5;fill:#f5f5f5;fill-opacity:0.3019608;stroke:none"
       class="ColorScheme-Text"
       d="m 16.674583,1033.6936 v 0 c -0.03668,-0.037 -0.07273,-0.073 -0.109104,-0.1091 l -0.05524,-0.055 v 0 c -0.859324,-0.7773 -1.94156,-1.167 -3.023157,-1.167 -0.278728,0 -0.556642,0.028 -0.831381,0.08 -0.0183,10e-5 -0.03563,0.01 -0.05392,0.01 -0.262917,0.053 -0.5212,0.1286 -0.773409,0.2293 -0.03222,0.013 -0.06319,0.026 -0.0955,0.04 -0.102767,0.044 -0.205189,0.091 -0.305211,0.1423 -0.02126,0.011 -0.04208,0.021 -0.06327,0.033 -0.237489,0.1276 -0.466891,0.2787 -0.683675,0.4516 -0.129264,0.102 -0.25431,0.211 -0.374237,0.3301 l 1.444597,1.4446 c 0.169551,-0.1259 0.346476,-0.2352 0.527557,-0.3259 0.0312,-0.015 0.0619,-0.032 0.09277,-0.046 0.05229,-0.024 0.105544,-0.046 0.158783,-0.068 0.08169,-0.033 0.164649,-0.064 0.247224,-0.09 0.133391,-0.041 0.266626,-0.072 0.400503,-0.094 0.05077,-0.01 0.100499,-0.015 0.150541,-0.021 0.01772,-0 0.03588,-0.01 0.05388,-0.01 l 0.0014,0 c 0.158922,-0.014 0.316422,-0.015 0.470955,-0 0.05241,0 0.104811,0.01 0.156304,0.018 0.01498,8e-4 0.0275,0 0.04116,0.01 0.01417,0 0.0241,0.01 0.03553,0.01 0.04318,0.01 0.0857,0.016 0.128251,0.026 0.06334,0.015 0.125166,0.033 0.186621,0.054 0.07962,0.026 0.157975,0.055 0.233427,0.09 l 0.0014,0 c 0.06773,0.031 0.133373,0.065 0.197205,0.1038 0.152444,0.09 0.295831,0.1997 0.425115,0.329 0.272719,0.2727 0.454771,0.6042 0.553819,0.9653 0.0097,0.035 0.01823,0.071 0.02599,0.1066 0.0026,0 0.0057,0.01 0.0012,0.015 0.138581,0.6324 0.02626,1.3449 -0.325914,1.9942 -0.08003,0.1477 -0.171957,0.2915 -0.276214,0.4309 l 1.445978,1.446 c 0.119265,-0.1202 0.228339,-0.2464 0.331457,-0.3756 0.163227,-0.2047 0.305499,-0.4203 0.428122,-0.6436 0.03013,-0.055 0.05814,-0.1103 0.0856,-0.1657 0.06062,-0.1221 0.115542,-0.2457 0.164414,-0.3716 0.0905,-0.2333 0.159735,-0.4728 0.209854,-0.7153 0.0044,-0.02 0.0085,-0.038 0.01255,-0.057 0.02899,-0.1497 0.05127,-0.3001 0.06489,-0.4515 0.01319,-0.1462 0.01906,-0.294 0.01794,-0.4406 -0.0013,-0.1343 -0.0076,-0.2678 -0.02067,-0.4019 -0.09769,-1.0028 -0.532234,-1.9796 -1.303755,-2.7511 z" />
  </g>
</svg>
