<?xml version="1.0" encoding="UTF-8" standalone="no"?>
<!-- Created with Inkscape (http://www.inkscape.org/) -->

<svg
   width="22"
   height="22"
   viewBox="0 0 5.8208332 5.8208333"
   version="1.1"
   id="svg1"
   inkscape:version="1.4 (e7c3feb100, 2024-10-09)"
   sodipodi:docname="network-wireless-signal-good-symbolic.svg"
   xmlns:inkscape="http://www.inkscape.org/namespaces/inkscape"
   xmlns:sodipodi="http://sodipodi.sourceforge.net/DTD/sodipodi-0.dtd"
   xmlns="http://www.w3.org/2000/svg"
   xmlns:svg="http://www.w3.org/2000/svg">
  <sodipodi:namedview
     id="namedview1"
     pagecolor="#ffffff"
     bordercolor="#000000"
     borderopacity="0.25"
     inkscape:showpageshadow="2"
     inkscape:pageopacity="0.0"
     inkscape:pagecheckerboard="0"
     inkscape:deskcolor="#d1d1d1"
     inkscape:document-units="mm"
     showgrid="true"
     inkscape:zoom="12"
     inkscape:cx="11.625"
     inkscape:cy="11.166667"
     inkscape:window-width="1354"
     inkscape:window-height="732"
     inkscape:window-x="0"
     inkscape:window-y="0"
     inkscape:window-maximized="1"
     inkscape:current-layer="layer1">
    <inkscape:grid
       id="grid1"
       units="px"
       originx="0"
       originy="0"
       spacingx="0.26458333"
       spacingy="0.26458333"
       empcolor="#0099e5"
       empopacity="0.30196078"
       color="#0099e5"
       opacity="0.14901961"
       empspacing="5"
       dotted="false"
       gridanglex="30"
       gridanglez="30"
       visible="true" />
  </sodipodi:namedview>
  <defs
     id="defs1" />
  <g
     inkscape:label="Capa 1"
     inkscape:groupmode="layer"
     id="layer1">
    <path
       style="color:#4d4d4d;fill:#f5f5f5;fill-opacity:0.3019608;stroke:none;stroke-width:0.264583"
       d="m 2.9138975,0.52632504 c -0.9768448,0 -1.95368621,0.27943624 -2.79259449,0.83870856 a 0.26460979,0.26460979 0 1 0 0.29352213,0.440283 c 1.49718336,-0.99812207 3.50096106,-0.99812207 4.99814446,0 A 0.26460979,0.26460979 0 1 0 5.706492,1.3650336 C 4.8675837,0.80576128 3.8907423,0.52632504 2.9138975,0.52632504 Z"
       id="wireless-80-100"
       inkscape:connector-curvature="0"
       class="ColorScheme-Text" />
    <path
       style="color:#4d4d4d;fill:#f5f5f5;fill-opacity:1;stroke:none;stroke-width:0.264583"
       d="m 2.9138771,1.7818063 c -0.7154333,0 -1.4307632,0.2171816 -2.01072982,0.6521566 A 0.26468673,0.26468673 0 0 0 1.2204406,2.8577095 c 0.9567334,-0.71755 2.43014,-0.71755 3.3868733,0 A 0.26468668,0.26468668 0 1 0 4.924607,2.4339629 C 4.3446403,1.9989879 3.6293105,1.7818063 2.9138771,1.7818063 Z"
       id="wireless-80-75"
       inkscape:connector-curvature="0"
       class="ColorScheme-Text" />
    <path
       style="color:#4d4d4d;fill:#f5f5f5;fill-opacity:1;stroke:none;stroke-width:0.264583"
       d="m 2.9138771,3.0427112 c -0.4556834,0 -0.9184621,0.1473822 -1.2454019,0.4743897 A 0.26460979,0.26460979 0 1 0 2.0426124,3.8912381 C 2.2448396,3.6889692 2.5758108,3.5718779 2.9138771,3.5718779 c 0.3380666,0 0.6690379,0.1170913 0.8712647,0.3193602 A 0.26460979,0.26460979 0 1 0 4.1592791,3.5171009 C 3.8323393,3.1900934 3.3695605,3.0427112 2.9138771,3.0427112 Z"
       id="wireless-80-50"
       inkscape:connector-curvature="0"
       class="ColorScheme-Text" />
    <path
       inkscape:connector-curvature="0"
       style="color:#4d4d4d;fill:#f5f5f5;fill-opacity:1;stroke:none;stroke-width:0.264583"
       d="M 3.4430626,4.7624999 A 0.52916679,0.52916679 0 0 1 2.9138959,5.2916666 0.52916679,0.52916679 0 0 1 2.384729,4.7624999 0.52916679,0.52916679 0 0 1 2.9138959,4.233333 0.52916679,0.52916679 0 0 1 3.4430626,4.7624999 Z"
       id="wireless-80-25"
       class="ColorScheme-Text" />
  </g>
</svg>
