<?xml version="1.0" encoding="UTF-8" standalone="no"?>
<!-- Created with Inkscape (http://www.inkscape.org/) -->

<svg
   width="24"
   height="24"
   viewBox="0 0 24 24"
   id="svg2"
   version="1.1"
   inkscape:version="1.3.2 (091e20ef0f, 2023-11-25, custom)"
   sodipodi:docname="folder-pictures.svg"
   xmlns:inkscape="http://www.inkscape.org/namespaces/inkscape"
   xmlns:sodipodi="http://sodipodi.sourceforge.net/DTD/sodipodi-0.dtd"
   xmlns="http://www.w3.org/2000/svg"
   xmlns:svg="http://www.w3.org/2000/svg"
   xmlns:rdf="http://www.w3.org/1999/02/22-rdf-syntax-ns#"
   xmlns:cc="http://creativecommons.org/ns#"
   xmlns:dc="http://purl.org/dc/elements/1.1/">
  <defs
     id="defs3051">
    <style
       type="text/css"
       id="current-color-scheme">
    .ColorScheme-Text {
    color:#F5F5F5;
    }
    </style>
  </defs>
  <sodipodi:namedview
     id="base"
     pagecolor="#ffffff"
     bordercolor="#666666"
     borderopacity="1.0"
     inkscape:pageopacity="0.0"
     inkscape:pageshadow="2"
     inkscape:zoom="16"
     inkscape:cx="10.5625"
     inkscape:cy="8.03125"
     inkscape:document-units="px"
     inkscape:current-layer="layer1"
     showgrid="true"
     units="px"
     inkscape:showpageshadow="false"
     borderlayer="true"
     showguides="true"
     inkscape:guide-bbox="true"
     inkscape:window-width="1354"
     inkscape:window-height="720"
     inkscape:window-x="0"
     inkscape:window-y="0"
     inkscape:window-maximized="1"
     inkscape:pagecheckerboard="0"
     inkscape:deskcolor="#d1d1d1">
    <inkscape:grid
       type="xygrid"
       id="grid4136"
       empspacing="2"
       originx="0"
       originy="0"
       spacingy="1"
       spacingx="1"
       units="px"
       visible="true" />
  </sodipodi:namedview>
  <metadata
     id="metadata7">
    <rdf:RDF>
      <cc:Work
         rdf:about="">
        <dc:format>image/svg+xml</dc:format>
        <dc:type
           rdf:resource="http://purl.org/dc/dcmitype/StillImage" />
      </cc:Work>
    </rdf:RDF>
  </metadata>
  <g
     inkscape:label="Capa 1"
     inkscape:groupmode="layer"
     id="layer1"
     transform="translate(0,-1030.3622)">
    <path
       inkscape:connector-curvature="0"
       style="fill:currentColor;fill-opacity:1;stroke:none"
       class="ColorScheme-Text"
       d="m 5,1034.3622 c -1.107993,0 -2,0.892 -2,2 v 12 c 0,1.108 0.892007,2 2,2 h 14 c 1.107993,0 2,-0.892 2,-2 v -12 c 0,-1.108 -0.892007,-2 -2,-2 z m 0,2 h 14 v 10.5859 l -2.292969,-2.2929 a 1.0001,1.0001 0 0 0 -1.414062,0 L 13,1046.9481 8.707031,1042.6552 a 1.0001,1.0001 0 0 0 -0.722656,-0.293 1.0001,1.0001 0 0 0 -0.691406,0.293 L 5,1044.9481 Z m 10.5,1 a 2.4999924,2.4999924 0 0 0 -2.5,2.5 2.4999924,2.4999924 0 0 0 2.5,2.5 2.4999924,2.4999924 0 0 0 2.5,-2.5 2.4999924,2.4999924 0 0 0 -2.5,-2.5 z m 0,2 a 0.49999237,0.49999237 0 0 1 0.5,0.5 0.49999237,0.49999237 0 0 1 -0.5,0.5 0.49999237,0.49999237 0 0 1 -0.5,-0.5 0.49999237,0.49999237 0 0 1 0.5,-0.5 z m -7.5,5.4141 3.585938,3.5859 H 5 v -0.5859 z m 8,2 1.585938,1.5859 h -3.171876 z"
       id="rect4229" />
  </g>
</svg>
